<svg width="527" height="203" viewBox="0 0 527 203" fill="none" xmlns="http://www.w3.org/2000/svg">
<path d="M198.944 92.0314C199.49 91.8266 200.003 91.8607 200.481 92.1339C201.027 92.3387 201.368 92.7143 201.505 93.2606C201.71 93.7386 201.71 94.2166 201.505 94.6946C194.676 109.308 187.882 121.736 181.121 131.979C174.361 142.222 167.84 149.973 161.557 155.231C155.343 160.489 149.573 163.118 144.247 163.118C142.676 163.118 141.14 162.879 139.637 162.401C134.789 160.898 130.862 157.074 127.858 150.929C124.922 144.851 123.18 137.135 122.634 127.779C122.088 118.492 122.736 107.908 124.58 96.0262C126.56 83.5981 129.941 70.7602 134.721 57.5126C140.32 41.9433 146.398 30.2322 152.953 22.3792C158.279 16.0286 162.855 13.7751 166.679 15.6189C169.342 16.9163 171.117 20.0233 172.005 24.94C172.961 29.7883 173.132 35.8999 172.517 43.2749C171.903 50.6498 170.981 58.0589 169.752 65.5021C168.522 72.8771 166.952 80.8666 165.04 89.4707C164.903 89.9487 164.596 90.3584 164.118 90.6999C163.64 90.973 163.128 91.0413 162.582 90.9047C162.103 90.7681 161.694 90.495 161.352 90.0853C161.079 89.6073 161.011 89.0951 161.147 88.5488C163.196 79.3984 164.835 71.0333 166.064 63.4535C167.293 55.8055 168.079 49.4207 168.42 44.2992C168.83 39.1777 168.932 34.7732 168.727 31.0857C168.522 27.3983 168.079 24.6327 167.396 22.7889C166.781 20.8769 165.962 19.6819 164.937 19.2039C163.981 18.7259 162.718 18.999 161.147 20.0233C159.577 21.0476 157.87 22.6524 156.026 24.8375C149.949 32.1442 144.349 42.7969 139.228 56.7956C134.106 70.7261 130.521 84.0078 128.472 96.6408C125.741 113.439 125.639 127.677 128.165 139.354C129.326 144.68 130.999 148.982 133.184 152.26C135.369 155.606 137.93 157.723 140.866 158.611C147.354 160.659 155.172 156.904 164.323 147.344C175.112 136.076 186.311 117.98 197.92 93.0557C198.125 92.5777 198.466 92.2363 198.944 92.0314ZM237.915 93.1582C238.461 92.9533 238.973 92.9875 239.451 93.2606C239.929 93.4655 240.236 93.841 240.373 94.3873C240.578 94.8653 240.578 95.3433 240.373 95.8213C233.066 110.913 226.545 118.458 220.809 118.458C220.467 118.458 220.092 118.424 219.682 118.356C215.107 117.468 212.273 111.322 211.18 99.9185C207.834 104.425 204.864 108.113 202.269 110.981C199.947 113.439 197.967 114.293 196.328 113.542C194.689 112.927 193.904 111.152 193.972 108.215C193.972 105.757 194.519 102.821 195.611 99.4064C196.704 95.9921 198.308 92.6802 200.425 89.4707C202.542 86.2612 204.83 84.2468 207.288 83.4273C210.907 82.1299 214.253 83.3249 217.326 87.0124C217.668 87.4221 217.804 87.9001 217.736 88.4464C217.736 88.9927 217.531 89.4366 217.121 89.778C216.712 90.1194 216.234 90.2901 215.687 90.2901C215.141 90.2218 214.697 89.9828 214.356 89.5731C211.966 86.7051 209.542 86.1588 207.083 87.9342C204.283 89.9146 201.928 93.4996 200.016 98.6894C198.172 103.811 197.455 107.464 197.865 109.649C198.274 109.308 198.752 108.864 199.299 108.318C202.03 105.381 205.376 101.182 209.337 95.7189C210.224 94.4898 210.839 93.6362 211.18 93.1582C211.727 92.4753 212.444 92.2704 213.331 92.5436C214.219 92.7484 214.697 93.3289 214.765 94.2849C214.902 97.6309 215.175 100.601 215.585 103.196C215.995 105.791 216.404 107.771 216.814 109.137C217.224 110.435 217.702 111.527 218.248 112.415C218.794 113.303 219.204 113.883 219.477 114.156C219.819 114.361 220.16 114.464 220.502 114.464C221.458 114.668 222.653 114.225 224.087 113.132C225.589 111.971 227.467 109.786 229.72 106.576C232.042 103.299 234.398 99.1674 236.788 94.1825C237.061 93.6362 237.437 93.2947 237.915 93.1582ZM321.095 55.5664C321.436 55.9762 321.573 56.4542 321.504 57.0005C321.436 57.5468 321.163 57.9906 320.685 58.3321C319.866 58.8783 319.08 58.8442 318.329 58.2296C315.051 57.0688 292.039 56.9663 249.291 57.9223C244.853 76.5645 240.346 96.7774 235.771 118.561C230.308 144.851 226.996 162.913 225.835 172.746C225.972 172.746 226.108 172.78 226.245 172.849C226.791 172.985 227.167 173.292 227.372 173.77C227.576 174.317 227.576 174.829 227.372 175.307C227.03 176.399 226.757 177.185 226.552 177.663C226.279 178.209 225.903 178.721 225.425 179.199C224.947 179.745 224.435 180.019 223.889 180.019C223.684 180.019 223.445 179.984 223.172 179.916C222.284 179.643 221.772 178.926 221.635 177.765C221.431 176.604 221.499 175.034 221.84 173.053C222.113 170.185 222.728 166.054 223.684 160.659C225.391 150.416 227.952 137.101 231.366 120.712C235.941 98.5869 240.551 77.6913 245.194 58.0248C240.551 58.0931 234.781 58.2296 227.884 58.4345C216.958 58.7076 210.539 58.8442 208.627 58.8442C208.081 58.8442 207.637 58.6735 207.295 58.3321C206.886 57.9223 206.681 57.4443 206.681 56.898C206.681 56.5566 206.783 56.2493 206.988 55.9762C207.125 55.6347 207.364 55.3957 207.705 55.2592C207.978 55.0543 208.285 54.9519 208.627 54.9519C210.539 54.9519 216.924 54.7812 227.781 54.4397C234.542 54.3031 240.687 54.1666 246.219 54.03C248.404 45.0162 250.35 37.3681 252.057 31.0857C252.194 30.5395 252.501 30.1297 252.979 29.8566C253.457 29.5834 253.935 29.5152 254.413 29.6517C254.959 29.7883 255.369 30.0956 255.642 30.5736C255.915 31.0516 255.984 31.5637 255.847 32.11C254.208 38.1875 252.33 45.4601 250.213 53.9276C270.699 53.3813 286.166 53.1764 296.614 53.313C307.062 53.4496 313.617 53.6886 316.281 54.03C319.012 54.3032 320.617 54.8153 321.095 55.5664ZM289.63 93.1582C290.176 92.9533 290.688 92.9875 291.166 93.2606C291.644 93.4655 291.951 93.841 292.088 94.3873C292.293 94.8653 292.293 95.3433 292.088 95.8213C284.781 110.913 278.26 118.458 272.524 118.458C272.182 118.458 271.807 118.424 271.397 118.356C266.822 117.468 263.988 111.322 262.895 99.9185C259.549 104.425 256.579 108.113 253.984 110.981C251.662 113.439 249.682 114.293 248.043 113.542C246.404 112.927 245.619 111.152 245.687 108.215C245.687 105.757 246.234 102.821 247.326 99.4064C248.419 95.9921 250.023 92.6802 252.14 89.4707C254.257 86.2612 256.545 84.2468 259.003 83.4273C262.622 82.1299 265.968 83.3249 269.041 87.0124C269.383 87.4221 269.519 87.9001 269.451 88.4464C269.451 88.9927 269.246 89.4366 268.836 89.778C268.427 90.1194 267.949 90.2901 267.402 90.2901C266.856 90.2218 266.412 89.9828 266.071 89.5731C263.681 86.7051 261.257 86.1588 258.798 87.9342C255.998 89.9146 253.643 93.4996 251.731 98.6894C249.887 103.811 249.17 107.464 249.58 109.649C249.989 109.308 250.467 108.864 251.014 108.318C253.745 105.381 257.091 101.182 261.052 95.7189C261.939 94.4898 262.554 93.6362 262.895 93.1582C263.442 92.4753 264.159 92.2704 265.046 92.5436C265.934 92.7484 266.412 93.3289 266.48 94.2849C266.617 97.6309 266.89 100.601 267.3 103.196C267.71 105.791 268.119 107.771 268.529 109.137C268.939 110.435 269.417 111.527 269.963 112.415C270.509 113.303 270.919 113.883 271.192 114.156C271.534 114.361 271.875 114.464 272.217 114.464C273.173 114.668 274.368 114.225 275.802 113.132C277.304 111.971 279.182 109.786 281.435 106.576C283.757 103.299 286.113 99.1674 288.503 94.1825C288.776 93.6362 289.152 93.2947 289.63 93.1582ZM316.473 20.0233C317.907 22.1402 317.19 27.1593 314.322 35.0805C311.523 42.9334 306.947 51.9131 300.597 62.0195C300.528 62.0878 300.46 62.1561 300.392 62.2244C296.09 79.4326 291.959 97.3578 287.998 116C284.106 134.711 281.613 148.026 280.521 155.948C280.589 155.948 280.657 155.948 280.725 155.948C281.272 156.152 281.681 156.494 281.955 156.972C282.159 157.45 282.159 157.962 281.955 158.508C281.545 159.669 281.238 160.523 281.033 161.069C280.76 161.684 280.384 162.264 279.906 162.81C279.428 163.357 278.916 163.63 278.37 163.63C278.165 163.63 277.926 163.596 277.653 163.527C276.696 163.186 276.184 162.23 276.116 160.659C276.048 159.157 276.526 155.401 277.55 149.392C278.779 142.017 280.623 132.389 283.081 120.507C288.749 93.4655 294.383 69.3603 299.982 48.1915C300.46 46.4161 300.972 44.5723 301.519 42.6603C302.065 40.68 302.85 38.2217 303.875 35.2854C304.899 32.349 305.889 29.7883 306.845 27.6031C307.869 25.3497 308.996 23.3694 310.225 21.6622C311.454 19.8868 312.615 18.9307 313.708 18.7942C314.869 18.5893 315.791 18.999 316.473 20.0233ZM303.977 48.4988C309.44 38.1875 312.513 30.0956 313.196 24.2229C310.191 28.7299 307.118 36.8218 303.977 48.4988ZM337.609 93.2606C338.155 93.1923 338.633 93.3289 339.043 93.6703C339.521 94.0117 339.794 94.4556 339.863 95.0019C339.931 95.5482 339.794 96.0262 339.453 96.4359C336.653 100.055 333.307 102.889 329.415 104.938C325.522 106.986 321.869 107.635 318.455 106.884C317.499 109.205 316.167 111.049 314.46 112.415C312.753 113.712 310.977 114.361 309.134 114.361H309.031C307.187 114.293 305.549 113.678 304.115 112.517C302.749 111.288 301.793 109.615 301.247 107.498C300.359 104.152 300.53 100.977 301.759 97.9724C302.92 94.8995 304.627 92.646 306.88 91.212C307.358 90.8706 307.905 90.8023 308.519 91.0071C309.134 89.5048 309.987 88.344 311.08 87.5245C312.241 86.7051 313.436 86.3978 314.665 86.6027C315.348 86.7392 315.962 87.0465 316.509 87.5245C317.123 87.9342 317.704 88.6171 318.25 89.5731C318.864 90.5291 319.308 91.9973 319.581 93.9776C319.855 95.9579 319.923 98.3138 319.786 101.045C319.718 101.728 319.616 102.411 319.479 103.094C322.074 103.64 324.942 102.991 328.083 101.148C331.293 99.304 334.024 96.9139 336.278 93.9776C336.619 93.5679 337.063 93.3289 337.609 93.2606ZM309.134 110.366C310.09 110.366 311.08 109.923 312.104 109.035C313.197 108.147 314.084 106.952 314.767 105.45C310.329 102.991 308.007 99.6454 307.802 95.4116C306.436 96.7091 305.48 98.4504 304.934 100.636C304.456 102.821 304.49 104.733 305.036 106.372C305.788 109.035 307.153 110.366 309.134 110.366ZM315.792 100.84C315.928 99.2015 315.928 97.8016 315.792 96.6408C315.723 95.4116 315.621 94.4215 315.484 93.6703C315.348 92.9192 315.177 92.3046 314.972 91.8266C314.767 91.3486 314.562 91.0071 314.358 90.8023C314.221 90.5974 314.119 90.495 314.05 90.495H313.948C313.675 90.495 313.333 90.734 312.924 91.212C312.514 91.6217 312.207 92.2022 312.002 92.9533C311.592 94.3873 311.66 95.8555 312.207 97.3578C312.753 98.8601 313.948 100.226 315.792 101.455C315.792 101.25 315.792 101.045 315.792 100.84ZM380.457 92.4412C381.003 92.5777 381.413 92.885 381.686 93.363C382.027 93.7727 382.13 94.2508 381.993 94.797C381.925 95.3433 381.652 95.7531 381.174 96.0262C368.882 104.016 359.22 111.015 352.186 117.024C347.884 142.973 342.865 162.708 337.129 176.229C331.393 189.749 325.793 197.261 320.33 198.763C319.579 198.968 318.862 199.071 318.179 199.071C315.994 199.071 314.116 198.115 312.546 196.202C309.61 192.515 308.551 186.608 309.371 178.482C310.327 169.741 313.297 160.796 318.282 151.646C325.589 138.466 335.661 126.243 348.499 114.976C349.455 109.171 350.342 103.094 351.162 96.7432C348.977 100.021 346.962 102.889 345.118 105.347C342.25 109.103 339.792 110.674 337.744 110.059C336.105 109.581 335.149 108.079 334.876 105.552C334.671 103.162 335.012 100.089 335.9 96.3335C336.856 92.5094 338.392 88.7537 340.509 85.0662C342.626 81.3787 344.948 78.9204 347.474 77.6913C350.957 75.9158 354.337 76.4963 357.615 79.4326C358.025 79.8423 358.229 80.3203 358.229 80.8666C358.298 81.3446 358.127 81.7885 357.717 82.1982C357.376 82.6079 356.932 82.8469 356.386 82.9152C355.839 82.9152 355.361 82.7445 354.952 82.403C352.493 80.1496 350.001 80.1496 347.474 82.403C344.606 84.9979 342.319 89.1293 340.612 94.797C338.904 100.397 338.358 104.152 338.973 106.064C339.724 105.586 340.714 104.562 341.943 102.991C346.314 97.2554 349.83 92.0314 352.493 87.3197C353.04 86.4319 353.825 86.1588 354.849 86.5002C355.874 86.7734 356.317 87.4562 356.181 88.5488C355.225 96.4018 354.201 103.913 353.108 111.083C359.459 105.894 368.097 99.782 379.023 92.7484C379.501 92.407 379.979 92.3046 380.457 92.4412ZM319.204 194.973C321.047 194.495 323.062 192.856 325.247 190.057C327.364 187.257 329.686 183.16 332.212 177.765C334.739 172.371 337.334 164.791 339.997 155.026C342.728 145.261 345.221 134.028 347.474 121.326C336.685 131.296 328.115 142.051 321.765 153.592C319.716 157.279 318.043 160.967 316.745 164.654C315.38 168.342 314.424 171.688 313.877 174.692C313.331 177.697 313.058 180.462 313.058 182.989C313.058 185.584 313.297 187.769 313.775 189.545C314.253 191.32 314.868 192.72 315.619 193.744C316.643 194.973 317.838 195.383 319.204 194.973ZM412.631 93.2606C413.177 93.1923 413.655 93.3289 414.065 93.6703C414.543 94.0117 414.816 94.4556 414.884 95.0019C414.953 95.5482 414.816 96.0262 414.475 96.4359C411.675 100.055 408.329 102.889 404.437 104.938C400.544 106.986 396.891 107.635 393.477 106.884C392.521 109.205 391.189 111.049 389.482 112.415C387.775 113.712 385.999 114.361 384.155 114.361H384.053C382.209 114.293 380.57 113.678 379.136 112.517C377.771 111.288 376.815 109.615 376.268 107.498C375.381 104.152 375.551 100.977 376.781 97.9724C377.941 94.8995 379.649 92.646 381.902 91.212C382.38 90.8706 382.926 90.8023 383.541 91.0071C384.155 89.5048 385.009 88.344 386.102 87.5245C387.262 86.7051 388.457 86.3978 389.687 86.6027C390.37 86.7392 390.984 87.0465 391.53 87.5245C392.145 87.9342 392.725 88.6171 393.272 89.5731C393.886 90.5291 394.33 91.9973 394.603 93.9776C394.876 95.9579 394.945 98.3138 394.808 101.045C394.74 101.728 394.637 102.411 394.501 103.094C397.096 103.64 399.964 102.991 403.105 101.148C406.314 99.304 409.046 96.9139 411.299 93.9776C411.641 93.5679 412.085 93.3289 412.631 93.2606ZM384.155 110.366C385.111 110.366 386.102 109.923 387.126 109.035C388.218 108.147 389.106 106.952 389.789 105.45C385.35 102.991 383.029 99.6454 382.824 95.4116C381.458 96.7091 380.502 98.4504 379.956 100.636C379.478 102.821 379.512 104.733 380.058 106.372C380.809 109.035 382.175 110.366 384.155 110.366ZM390.813 100.84C390.95 99.2015 390.95 97.8016 390.813 96.6408C390.745 95.4116 390.643 94.4215 390.506 93.6703C390.37 92.9192 390.199 92.3046 389.994 91.8266C389.789 91.3486 389.584 91.0071 389.379 90.8023C389.243 90.5974 389.14 90.495 389.072 90.495H388.97C388.696 90.495 388.355 90.734 387.945 91.212C387.536 91.6217 387.228 92.2022 387.023 92.9533C386.614 94.3873 386.682 95.8555 387.228 97.3578C387.775 98.8601 388.97 100.226 390.813 101.455C390.813 101.25 390.813 101.045 390.813 100.84Z" fill="#EEC664"/>
<path d="M60.7014 159.061C59.013 160.925 56.917 162.409 54.4135 163.515C51.9683 164.622 49.4357 165.175 46.8157 165.175C40.7026 165.175 35.9867 162.555 32.6681 157.315C29.3495 152.017 27.6902 144.535 27.6902 134.871C27.6902 125.148 29.3495 117.637 32.6681 112.339C35.9867 107.041 40.7317 104.392 46.9031 104.392C50.2799 104.392 53.3656 105.178 56.1601 106.75C58.9547 108.264 61.2253 110.447 62.972 113.3C64.7186 116.211 65.9994 119.908 66.8145 124.391L68.0372 124.042L67.1639 104.392H66.0285L63.9326 108.584C60.5558 106.779 57.4701 105.469 54.6755 104.654C51.9391 103.781 49.261 103.344 46.6411 103.344C41.6341 103.344 37.0347 104.742 32.8428 107.536C28.6509 110.331 25.3323 114.144 22.887 118.977C20.5 123.809 19.3065 129.107 19.3065 134.871C19.3065 140.693 20.5 146.02 22.887 150.852C25.3323 155.626 28.6509 159.411 32.8428 162.205C37.0929 165 41.7505 166.397 46.8157 166.397C49.6685 166.397 52.6087 165.844 55.6362 164.738C58.7219 163.632 61.5747 162.118 64.1946 160.197L67.1639 165H68.2992V144.914L67.1639 144.739C65.7083 151.085 63.5542 155.859 60.7014 159.061ZM137.796 164.301V165H116.399V164.301L123.561 163.428L115.351 141.071H94.2174L86.9689 160.371C86.736 161.012 86.6196 161.536 86.6196 161.943C86.6196 162.584 86.7942 163.05 87.1435 163.341C87.5511 163.574 88.2497 163.748 89.2395 163.865L94.5667 164.301V165H75.9652V164.301L80.8557 163.865C82.3112 163.748 83.3301 163.457 83.9123 162.991C84.5527 162.526 85.1058 161.652 85.5716 160.371L106.968 103.344H108.54L130.547 163.428L137.796 164.301ZM114.827 139.674L105.046 113.038H104.697L94.7413 139.674H114.827ZM161.097 163.603L151.665 164.301V165H177.253V164.301L167.822 163.603V105.702H180.572C181.969 105.702 182.959 105.935 183.541 106.401C184.182 106.808 184.764 107.682 185.288 109.021L190.702 122.47L191.401 122.295L189.48 103.344H188.956C187.675 103.927 186.569 104.305 185.637 104.48C184.764 104.654 183.629 104.742 182.231 104.742H148.609C147.212 104.742 146.047 104.654 145.116 104.48C144.242 104.305 143.165 103.927 141.884 103.344H141.36L137.954 122.295L138.653 122.47L144.679 109.021C145.261 107.682 145.873 106.808 146.513 106.401C147.153 105.935 148.172 105.702 149.57 105.702H161.097V163.603ZM251.981 164.301V165H230.585V164.301L237.746 163.428L229.537 141.071H208.403L201.154 160.371C200.921 161.012 200.805 161.536 200.805 161.943C200.805 162.584 200.98 163.05 201.329 163.341C201.736 163.574 202.435 163.748 203.425 163.865L208.752 164.301V165H190.15V164.301L195.041 163.865C196.497 163.748 197.515 163.457 198.098 162.991C198.738 162.526 199.291 161.652 199.757 160.371L221.153 103.344H222.725L244.732 163.428L251.981 164.301ZM229.013 139.674L219.232 113.038H218.882L208.927 139.674H229.013ZM221.153 95.7465L226.83 88.5854L228.052 87.0134C228.809 86.1401 229.304 85.4997 229.537 85.0921C229.828 84.6264 229.973 84.1897 229.973 83.7822C229.973 83.0253 229.741 82.3849 229.275 81.8609C228.867 81.3369 228.285 81.0749 227.528 81.0749C226.131 81.0749 225.228 81.6862 224.821 82.9088L220.891 95.6592L221.153 95.7465ZM266.583 163.603L259.422 164.301V165H302.214L304.397 145.962L303.349 145.787L297.411 160.721C296.887 162.002 296.305 162.875 295.664 163.341C295.024 163.748 294.005 163.952 292.607 163.952H273.307V106.139L280.905 105.44V104.742H259.422V105.44L266.583 106.139V163.603ZM344.133 103.344C349.199 103.344 353.827 104.742 358.019 107.536C362.269 110.331 365.588 114.144 367.975 118.977C370.42 123.751 371.643 129.049 371.643 134.871C371.643 140.693 370.42 146.02 367.975 150.852C365.588 155.626 362.269 159.411 358.019 162.205C353.827 165 349.199 166.397 344.133 166.397C339.068 166.397 334.411 165 330.161 162.205C325.969 159.411 322.65 155.626 320.205 150.852C317.818 146.02 316.624 140.693 316.624 134.871C316.624 129.049 317.818 123.751 320.205 118.977C322.65 114.144 325.969 110.331 330.161 107.536C334.411 104.742 339.068 103.344 344.133 103.344ZM325.008 134.871C325.008 144.594 326.667 152.104 329.986 157.402C333.304 162.642 338.02 165.262 344.133 165.262C350.247 165.262 354.963 162.642 358.281 157.402C361.6 152.104 363.259 144.594 363.259 134.871C363.259 125.148 361.6 117.637 358.281 112.339C354.963 107.041 350.247 104.392 344.133 104.392C338.02 104.392 333.304 107.041 329.986 112.339C326.667 117.637 325.008 125.148 325.008 134.871ZM427.567 158.276C426.112 160.371 424.132 162.089 421.629 163.428C419.125 164.709 416.418 165.349 413.507 165.349C407.394 165.349 402.678 162.7 399.359 157.402C396.041 152.104 394.382 144.594 394.382 134.871C394.382 125.148 396.041 117.637 399.359 112.339C402.678 107.041 407.423 104.392 413.594 104.392C416.913 104.392 419.911 105.178 422.589 106.75C425.326 108.264 427.567 110.447 429.314 113.3C431.061 116.211 432.341 119.908 433.157 124.391L434.379 124.042L433.506 104.392H432.371L430.275 108.584C426.956 106.779 423.929 105.469 421.192 104.654C418.514 103.781 415.894 103.344 413.332 103.344C408.325 103.344 403.726 104.742 399.534 107.536C395.342 110.331 392.024 114.144 389.578 118.977C387.191 123.809 385.998 129.107 385.998 134.871C385.998 140.693 387.191 146.02 389.578 150.852C392.024 155.626 395.342 159.411 399.534 162.205C403.784 165 408.442 166.397 413.507 166.397C416.535 166.397 420.057 165.815 424.074 164.651C428.091 163.486 431.497 161.623 434.292 159.061V136.268L441.453 135.569V134.871H421.279V135.569L427.567 136.268V158.276ZM480.151 103.344C485.217 103.344 489.845 104.742 494.037 107.536C498.287 110.331 501.606 114.144 503.993 118.977C506.438 123.751 507.661 129.049 507.661 134.871C507.661 140.693 506.438 146.02 503.993 150.852C501.606 155.626 498.287 159.411 494.037 162.205C489.845 165 485.217 166.397 480.151 166.397C475.086 166.397 470.429 165 466.179 162.205C461.987 159.411 458.668 155.626 456.223 150.852C453.836 146.02 452.642 140.693 452.642 134.871C452.642 129.049 453.836 123.751 456.223 118.977C458.668 114.144 461.987 110.331 466.179 107.536C470.429 104.742 475.086 103.344 480.151 103.344ZM461.026 134.871C461.026 144.594 462.685 152.104 466.004 157.402C469.322 162.642 474.038 165.262 480.151 165.262C486.265 165.262 490.981 162.642 494.299 157.402C497.618 152.104 499.277 144.594 499.277 134.871C499.277 125.148 497.618 117.637 494.299 112.339C490.981 107.041 486.265 104.392 480.151 104.392C474.038 104.392 469.322 107.041 466.004 112.339C462.685 117.637 461.026 125.148 461.026 134.871Z" fill="black"/>
<path fill-rule="evenodd" clip-rule="evenodd" d="M275.302 70.4815C276.14 71.2004 276.237 72.463 275.519 73.3016L269.519 80.3016C268.8 81.1403 267.537 81.2374 266.698 80.5185C265.86 79.7997 265.763 78.5371 266.482 77.6985L272.482 70.6985C273.2 69.8598 274.463 69.7627 275.302 70.4815Z" fill="#EEC664"/>
</svg>
