<svg width="253" height="111" viewBox="0 0 253 111" fill="none" xmlns="http://www.w3.org/2000/svg">
<path d="M131.698 28.6395C133.065 29.0496 133.976 30.1434 134.432 31.9206C134.888 33.6524 134.819 35.6803 134.227 38.0044C133.133 42.0147 130.445 45.7288 126.161 49.1466C124.384 50.6049 122.424 51.8809 120.282 52.9746C118.642 59.6736 116.819 67.9904 114.814 77.925C112.763 87.9051 111.259 95.789 110.302 101.577C110.165 102.306 109.732 102.67 109.003 102.67C108.912 102.67 108.844 102.67 108.798 102.67C108.57 102.625 108.365 102.534 108.183 102.397C108.001 102.26 107.864 102.078 107.773 101.85C107.682 101.622 107.659 101.394 107.704 101.166C108.889 93.1914 111.51 77.7883 115.565 54.957C115.019 55.1393 114.472 55.2988 113.925 55.4355C113.56 55.5722 113.219 55.5494 112.9 55.3671C112.581 55.1849 112.375 54.9114 112.284 54.5469C112.193 54.1823 112.239 53.8405 112.421 53.5215C112.603 53.2025 112.877 52.9974 113.241 52.9063C114.153 52.6784 115.087 52.3594 116.044 51.9493C116.363 50.3543 116.796 47.9846 117.343 44.8401C119.712 31.5333 120.92 24.5836 120.966 23.9912C120.966 23.6266 121.08 23.3304 121.307 23.1026C121.581 22.8291 121.877 22.6924 122.196 22.6924C122.561 22.6469 122.88 22.7608 123.153 23.0342C123.427 23.2621 123.586 23.5583 123.632 23.9229C123.632 24.2874 122.561 30.4851 120.419 42.516C121.102 40.602 121.786 38.8703 122.47 37.3209C123.199 35.7714 123.859 34.4954 124.452 33.4929C125.09 32.4903 125.728 31.6472 126.366 30.9636C127.004 30.2801 127.574 29.7788 128.075 29.4598C128.576 29.0952 129.055 28.8446 129.51 28.7079C130.012 28.5256 130.422 28.4572 130.741 28.5028C131.105 28.5028 131.424 28.5484 131.698 28.6395ZM131.698 37.3209C132.108 35.5436 132.199 34.1081 131.971 33.0144C131.789 31.9206 131.447 31.3054 130.946 31.1687C130.9 31.1231 130.832 31.1004 130.741 31.1004C130.467 31.1004 130.148 31.2143 129.784 31.4421C129.465 31.6244 129.032 32.0118 128.485 32.6042C127.938 33.1511 127.368 33.8802 126.776 34.7916C126.229 35.6575 125.591 36.8651 124.862 38.4146C124.178 39.964 123.495 41.7413 122.811 43.7464C122.356 45.1136 121.809 47.0276 121.171 49.4884C123.768 47.8934 126.001 46.0478 127.87 43.9515C129.784 41.8552 131.06 39.645 131.698 37.3209ZM161.485 38.8247C161.849 38.7791 162.168 38.8703 162.442 39.0981C162.761 39.326 162.943 39.6222 162.989 39.9868C163.034 40.3514 162.943 40.6704 162.715 40.9438C160.847 43.3591 158.614 45.2503 156.016 46.6174C153.419 47.9846 150.981 48.4175 148.702 47.9162C148.064 49.4656 147.175 50.6961 146.036 51.6075C144.897 52.4734 143.712 52.9063 142.482 52.9063H142.413C141.183 52.8607 140.089 52.4506 139.132 51.6759C138.221 50.8556 137.583 49.7391 137.218 48.3264C136.626 46.0934 136.74 43.9743 137.56 41.9691C138.335 39.9184 139.474 38.4146 140.978 37.4576C141.297 37.2297 141.661 37.1841 142.071 37.3209C142.482 36.3183 143.051 35.5436 143.78 34.9967C144.555 34.4499 145.353 34.2448 146.173 34.3815C146.629 34.4726 147.039 34.6777 147.403 34.9967C147.813 35.2701 148.201 35.7259 148.565 36.3639C148.976 37.0019 149.272 37.9816 149.454 39.3032C149.636 40.6248 149.682 42.197 149.591 44.0199C149.545 44.4756 149.477 44.9313 149.386 45.387C151.117 45.7516 153.031 45.3186 155.128 44.0882C157.27 42.8578 159.092 41.2628 160.596 39.3032C160.824 39.0298 161.12 38.8703 161.485 38.8247ZM142.482 50.2404C143.12 50.2404 143.78 49.9441 144.464 49.3517C145.193 48.7593 145.786 47.9618 146.241 46.9592C143.279 45.3186 141.73 43.0856 141.593 40.2602C140.682 41.1261 140.044 42.2881 139.679 43.7464C139.36 45.2047 139.383 46.4807 139.747 47.5744C140.249 49.3517 141.16 50.2404 142.482 50.2404ZM146.925 43.8831C147.016 42.7894 147.016 41.8552 146.925 41.0805C146.879 40.2602 146.811 39.5994 146.72 39.0981C146.629 38.5969 146.515 38.1867 146.378 37.8677C146.241 37.5487 146.105 37.3209 145.968 37.1841C145.877 37.0474 145.808 36.9791 145.763 36.9791H145.694C145.512 36.9791 145.284 37.1386 145.011 37.4576C144.737 37.731 144.532 38.1184 144.396 38.6196C144.122 39.5766 144.168 40.5564 144.532 41.559C144.897 42.5616 145.694 43.473 146.925 44.2933C146.925 44.1566 146.925 44.0199 146.925 43.8831ZM188.175 38.4829C188.54 38.3462 188.882 38.369 189.201 38.5513C189.52 38.688 189.747 38.9386 189.884 39.3032C190.021 39.6222 189.998 39.9412 189.816 40.2602C188.585 42.9034 187.195 45.6149 185.646 48.3947C184.097 51.1746 182.388 53.9772 180.519 56.8026C178.696 59.6736 176.873 61.9978 175.051 63.7751C173.228 65.5979 171.678 66.5094 170.402 66.5094C170.083 66.5094 169.787 66.441 169.514 66.3043C167.645 65.5751 167.053 62.7497 167.736 57.828C168.374 53.2253 170.061 46.7086 172.795 38.2779C172.749 38.2779 172.704 38.3006 172.658 38.3462C172.658 38.3462 172.635 38.3462 172.59 38.3462C171.587 39.0298 170.744 39.5539 170.061 39.9184C169.423 40.283 168.534 40.6931 167.395 41.1489C166.301 41.6046 165.253 41.8096 164.25 41.7641C163.248 41.7185 162.313 41.3995 161.448 40.8071C159.716 39.5766 158.827 37.8677 158.782 35.6803C158.736 33.4929 159.556 31.1004 161.242 28.5028C162.291 26.8622 163.544 25.4267 165.002 24.1963C166.506 22.9659 167.782 22.6924 168.83 23.376C169.468 23.7406 169.833 24.333 169.924 25.1533C170.061 25.9736 169.673 27.5686 168.762 29.9383C167.85 32.2624 166.324 35.3157 164.182 39.0981C165.595 39.2804 167.919 38.3006 171.154 36.1588C171.747 35.7486 172.18 35.4752 172.453 35.3385C172.772 35.1562 173.114 34.9739 173.478 34.7916C173.889 34.6094 174.23 34.541 174.504 34.5866C174.777 34.6321 175.051 34.7461 175.324 34.9284C176.008 35.4752 176.122 36.4322 175.666 37.7994C171.109 51.9265 169.309 60.4939 170.266 63.5016C170.357 63.6839 170.425 63.8206 170.471 63.9118C170.835 63.9574 171.382 63.6611 172.111 63.0231C172.886 62.3851 173.82 61.3826 174.914 60.0154C176.053 58.6483 177.261 57.0077 178.537 55.0937C179.858 53.1797 181.294 50.8328 182.843 48.0529C184.438 45.2731 185.965 42.3109 187.423 39.1665C187.606 38.8019 187.856 38.5741 188.175 38.4829ZM161.653 33.8346C161.242 35.4296 161.334 36.7056 161.926 37.6626C165.253 31.8751 167.03 27.9559 167.258 25.9052C166.711 26.2242 166.073 26.7483 165.344 27.4774C164.66 28.2066 163.931 29.1636 163.156 30.3484C162.427 31.4877 161.926 32.6498 161.653 33.8346Z" fill="#EEC664"/>
<path d="M29.344 26.504L28.896 26.56L25.536 18.104C25.2 17.2453 24.8267 16.6853 24.416 16.424C24.0427 16.1627 23.408 16.032 22.512 16.032H11.144V33.224H19.264C20.16 33.224 20.7947 33.0747 21.168 32.776C21.5413 32.4773 21.8027 31.8987 21.952 31.04L22.904 26.504H23.576V40.84H22.904L21.952 36.304C21.8027 35.4453 21.5413 34.8667 21.168 34.568C20.7947 34.2693 20.16 34.12 19.264 34.12H11.144V53.104L16.632 53.552V54H2.24V53.552L6.832 53.104V16.256L2.24 15.808V15.36H28.448L29.344 26.504ZM34.6478 21.632C34.6478 20.848 34.8905 20.2133 35.3758 19.728C35.8985 19.2053 36.5518 18.944 37.3358 18.944C38.1198 18.944 38.7545 19.2053 39.2398 19.728C39.7625 20.2133 40.0238 20.848 40.0238 21.632C40.0238 22.416 39.7625 23.0693 39.2398 23.592C38.7545 24.0773 38.1198 24.32 37.3358 24.32C36.5518 24.32 35.8985 24.0773 35.3758 23.592C34.8905 23.0693 34.6478 22.416 34.6478 21.632ZM39.4638 29.696H39.0158L32.5198 31.88V32.272L35.8238 33.504V53.104L32.4078 53.552V54H42.8798V53.552L39.4638 53.104V29.696ZM51.8687 13.624H51.4207L44.9247 15.808V16.2L48.2287 17.432V53.104L44.8127 53.552V54H55.2847V53.552L51.8687 53.104V13.624ZM57.6174 30.816L57.7294 31.096H60.3614V49.016C60.3614 50.1733 60.4921 51.1067 60.7534 51.816C61.0148 52.5253 61.4628 53.104 62.0974 53.552C63.0308 54.224 64.0948 54.56 65.2894 54.56C66.4468 54.56 67.5294 54.224 68.5374 53.552C69.5828 52.88 70.3854 51.9653 70.9454 50.808L70.7214 50.64C70.0494 51.312 69.4334 51.7973 68.8734 52.096C68.3134 52.3947 67.7348 52.544 67.1374 52.544C65.9054 52.544 65.0654 52.096 64.6174 51.2C64.2068 50.5653 64.0014 49.5947 64.0014 48.288V31.152H70.0494L70.3854 30.256H64.0014V24.936L63.7774 24.88L57.6174 30.816ZM85.4258 29.696C86.1725 29.696 86.8072 29.9573 87.3298 30.48C87.8525 30.9653 88.1138 31.5627 88.1138 32.272C88.1138 32.8693 87.9085 33.3733 87.4978 33.784C87.0872 34.1947 86.5832 34.4 85.9858 34.4C85.6125 34.4 85.2952 34.3253 85.0338 34.176C84.8098 33.9893 84.5672 33.728 84.3058 33.392C84.0445 33.0933 83.8018 32.8693 83.5778 32.72C83.3912 32.5707 83.1485 32.496 82.8498 32.496C82.2525 32.496 81.6365 32.8507 81.0018 33.56C80.4045 34.2693 79.9752 35.0907 79.7138 36.024V53.104L84.1938 53.552V54H72.6578V53.552L76.0738 53.104V33.504L72.7698 32.272V31.88L79.0978 29.696H79.5458V34.624C81.6365 31.3387 83.5965 29.696 85.4258 29.696ZM95.9831 54.392C94.5645 54.392 93.3885 53.9067 92.4551 52.936C91.5591 51.928 91.1111 50.64 91.1111 49.072C91.1111 47.2053 91.9511 45.712 93.6311 44.592C95.3485 43.472 98.2418 42.5013 102.311 41.68V36.584C102.311 34.4187 102.068 32.9253 101.583 32.104C101.098 31.2453 100.258 30.816 99.0631 30.816C97.9058 30.816 96.9725 31.1333 96.2631 31.768C95.5538 32.3653 95.1991 33.1867 95.1991 34.232L95.2551 35.744C95.2551 36.6773 95.0685 37.424 94.6951 37.984C94.3591 38.5067 93.8738 38.768 93.2391 38.768C92.6791 38.768 92.2125 38.5813 91.8391 38.208C91.5031 37.8347 91.3351 37.3493 91.3351 36.752C91.3351 35.856 91.7645 34.8853 92.6231 33.84C93.5191 32.7573 94.6578 31.8613 96.0391 31.152C97.7191 30.2187 99.4551 29.752 101.247 29.752C102.292 29.752 103.17 29.9573 103.879 30.368C104.626 30.7787 105.167 31.3573 105.503 32.104C105.69 32.5893 105.802 33.1867 105.839 33.896C105.914 34.6053 105.951 35.968 105.951 37.984V48.68C105.951 50.024 106.082 50.9573 106.343 51.48C106.604 51.9653 107.071 52.208 107.743 52.208C108.751 52.208 109.498 51.8533 109.983 51.144L110.207 51.256C109.759 52.1893 109.162 52.9173 108.415 53.44C107.668 53.9253 106.866 54.168 106.007 54.168C105.036 54.168 104.234 53.888 103.599 53.328C102.964 52.7307 102.61 51.9467 102.535 50.976L102.367 50.92C101.508 52.0027 100.519 52.8613 99.3991 53.496C98.2791 54.0933 97.1405 54.392 95.9831 54.392ZM98.3911 52.264C99.1751 52.264 99.9031 52.096 100.575 51.76C101.284 51.3867 101.863 50.864 102.311 50.192V42.296C100.37 42.7813 98.8578 43.2667 97.7751 43.752C96.7298 44.2373 95.9831 44.816 95.5351 45.488C95.0871 46.16 94.8631 47 94.8631 48.008C94.8631 49.3147 95.1805 50.36 95.8151 51.144C96.4498 51.8907 97.3085 52.264 98.3911 52.264ZM124.746 29.696C125.493 29.696 126.127 29.9573 126.65 30.48C127.173 30.9653 127.434 31.5627 127.434 32.272C127.434 32.8693 127.229 33.3733 126.818 33.784C126.407 34.1947 125.903 34.4 125.306 34.4C124.933 34.4 124.615 34.3253 124.354 34.176C124.13 33.9893 123.887 33.728 123.626 33.392C123.365 33.0933 123.122 32.8693 122.898 32.72C122.711 32.5707 122.469 32.496 122.17 32.496C121.573 32.496 120.957 32.8507 120.322 33.56C119.725 34.2693 119.295 35.0907 119.034 36.024V53.104L123.514 53.552V54H111.978V53.552L115.394 53.104V33.504L112.09 32.272V31.88L118.418 29.696H118.866V34.624C120.957 31.3387 122.917 29.696 124.746 29.696Z" fill="black"/>
</svg>
