<svg width="381" height="119" viewBox="0 0 381 119" fill="none" xmlns="http://www.w3.org/2000/svg">
<path d="M212.091 57.9868C212.41 58.2146 212.593 58.5109 212.638 58.8754C212.684 59.24 212.615 59.559 212.433 59.8324C212.16 60.197 211.795 60.3793 211.339 60.3793C211.157 60.3793 210.975 60.3337 210.793 60.2426C209.881 60.0603 205.37 59.8324 197.258 59.559C195.025 68.9011 193.225 76.8078 191.858 83.2789C189.078 96.1756 187.688 104.447 187.688 108.093C187.87 107.774 188.075 107.432 188.303 107.067C188.485 106.748 188.759 106.543 189.123 106.452C189.488 106.361 189.807 106.406 190.08 106.589C190.399 106.771 190.605 107.022 190.696 107.341C190.787 107.705 190.741 108.047 190.559 108.366C189.237 110.599 188.098 111.716 187.141 111.716C186.913 111.716 186.685 111.67 186.457 111.579C185.911 111.351 185.523 110.85 185.295 110.075C185.113 109.346 185.068 107.91 185.159 105.768C185.295 103.672 185.706 100.756 186.389 97.0187C187.073 93.2819 188.075 88.3146 189.397 82.1169C190.764 75.9647 192.496 68.4226 194.592 59.4906C191.493 59.3995 186.868 59.2856 180.716 59.1489C179.804 59.1033 178.779 59.0805 177.639 59.0805C170.758 72.1595 165.426 81.2966 161.644 86.4917C160.641 87.8133 159.639 88.8386 158.636 89.5678C157.634 90.2969 156.699 90.7071 155.833 90.7982C154.968 90.9349 154.239 90.9349 153.646 90.7982C153.054 90.6615 152.484 90.4336 151.937 90.1146C149.567 88.7475 147.676 85.9676 146.264 81.7751C144.896 77.6281 144.281 73.0254 144.418 67.9669C144.555 62.8629 145.443 58.4197 147.084 54.6373C149.134 49.989 152.119 46.8674 156.039 45.2724C160.003 43.6774 164.652 43.7229 169.983 45.4091C170.348 45.5002 170.599 45.7053 170.735 46.0243C170.918 46.3433 170.94 46.6851 170.804 47.0496C170.713 47.3686 170.507 47.6193 170.188 47.8016C169.869 47.9839 169.528 48.0066 169.163 47.8699C167.386 47.3231 165.654 46.9813 163.968 46.8446C162.282 46.7079 160.505 46.8446 158.636 47.2547C156.813 47.6193 155.104 48.5307 153.509 49.989C151.914 51.4017 150.57 53.3157 149.476 55.731C148.656 57.5994 148.041 59.6729 147.631 61.9515C147.221 64.2301 147.015 66.4631 147.015 68.6505C147.015 70.8379 147.175 72.9798 147.494 75.0761C147.813 77.2179 148.246 79.1319 148.793 80.8181C149.385 82.5498 150.046 84.0309 150.775 85.2613C151.55 86.4917 152.37 87.3576 153.236 87.8589C155.15 88.9526 157.246 87.9728 159.525 84.9195C163.171 79.9978 168.229 71.362 174.7 59.0121C162.852 58.6931 156.38 58.4197 155.287 58.1919C154.922 58.1007 154.626 57.9184 154.398 57.645C154.216 57.326 154.147 56.9842 154.193 56.6196C154.284 56.2551 154.489 55.9816 154.808 55.7994C155.127 55.6171 155.446 55.5487 155.765 55.5943C156.768 55.8221 163.535 56.0956 176.067 56.4146C178.072 52.4954 181.103 46.5711 185.159 38.6417C187.802 33.3554 189.967 29.0717 191.653 25.7906C193.339 22.5094 194.979 19.3878 196.574 16.4256C198.215 13.4635 199.514 11.2305 200.471 9.72664C201.428 8.17721 202.339 6.85564 203.205 5.76193C204.071 4.62264 204.777 3.91629 205.324 3.64286C205.917 3.32386 206.486 3.2555 207.033 3.43779C207.762 3.71122 208.218 4.32643 208.4 5.28343C208.628 6.24043 208.651 7.562 208.469 9.24814C208.195 12.2103 207.398 16.6307 206.076 22.5094C205.529 25.107 204.139 30.9857 201.906 40.1456C200.174 47.3459 198.83 52.9511 197.873 56.9614C206.76 57.2349 211.499 57.5766 212.091 57.9868ZM180.784 56.4829C186.754 56.6652 191.562 56.8019 195.207 56.8931C196.438 51.6068 197.805 45.8192 199.309 39.5304C201.542 30.4161 202.954 24.5601 203.547 21.9626C205.324 13.8964 206.122 8.72407 205.939 6.4455C205.21 7.17464 204.185 8.61014 202.863 10.752C201.587 12.8483 199.947 15.7649 197.942 19.5017C195.982 23.2386 194.341 26.4058 193.02 29.0034C191.698 31.5554 189.853 35.1555 187.483 39.8038C183.746 47.1864 180.921 52.7461 179.007 56.4829C179.189 56.4829 179.462 56.4829 179.827 56.4829C180.237 56.4829 180.556 56.4829 180.784 56.4829ZM245.084 56.4829C245.449 56.3462 245.791 56.369 246.11 56.5513C246.429 56.688 246.657 56.9386 246.793 57.3032C246.93 57.6222 246.907 57.9412 246.725 58.2602C245.495 60.9034 244.105 63.6149 242.555 66.3947C241.006 69.1746 239.297 71.9772 237.428 74.8026C235.606 77.6736 233.783 79.9978 231.96 81.7751C230.137 83.5979 228.588 84.5094 227.312 84.5094C226.993 84.5094 226.696 84.441 226.423 84.3043C224.554 83.5751 223.962 80.7497 224.646 75.828C225.284 71.2253 226.97 64.7086 229.704 56.2779C229.658 56.2779 229.613 56.3006 229.567 56.3462C229.567 56.3462 229.545 56.3462 229.499 56.3462C228.496 57.0298 227.653 57.5539 226.97 57.9184C226.332 58.283 225.443 58.6931 224.304 59.1489C223.21 59.6046 222.162 59.8096 221.159 59.7641C220.157 59.7185 219.223 59.3995 218.357 58.8071C216.625 57.5766 215.736 55.8677 215.691 53.6803C215.645 51.4929 216.466 49.1004 218.152 46.5028C219.2 44.8622 220.453 43.4267 221.911 42.1963C223.415 40.9659 224.691 40.6924 225.739 41.376C226.377 41.7406 226.742 42.333 226.833 43.1533C226.97 43.9736 226.582 45.5686 225.671 47.9383C224.76 50.2624 223.233 53.3157 221.091 57.0981C222.504 57.2804 224.828 56.3006 228.063 54.1588C228.656 53.7486 229.089 53.4752 229.362 53.3385C229.681 53.1562 230.023 52.9739 230.388 52.7916C230.798 52.6094 231.14 52.541 231.413 52.5866C231.686 52.6321 231.96 52.7461 232.233 52.9284C232.917 53.4752 233.031 54.4322 232.575 55.7994C228.018 69.9265 226.218 78.4939 227.175 81.5016C227.266 81.6839 227.334 81.8206 227.38 81.9118C227.744 81.9574 228.291 81.6611 229.02 81.0231C229.795 80.3851 230.729 79.3826 231.823 78.0154C232.962 76.6483 234.17 75.0077 235.446 73.0937C236.768 71.1797 238.203 68.8328 239.753 66.0529C241.348 63.2731 242.874 60.3109 244.332 57.1665C244.515 56.8019 244.765 56.5741 245.084 56.4829ZM218.562 51.8346C218.152 53.4296 218.243 54.7056 218.835 55.6626C222.162 49.8751 223.939 45.9559 224.167 43.9052C223.62 44.2242 222.982 44.7483 222.253 45.4774C221.57 46.2066 220.84 47.1636 220.066 48.3484C219.337 49.4877 218.835 50.6498 218.562 51.8346ZM300.697 31.6693C300.925 31.9427 301.016 32.2617 300.97 32.6263C300.925 32.9909 300.742 33.2871 300.423 33.5149C299.876 33.8795 299.352 33.8567 298.851 33.4466C296.664 32.6719 281.306 32.6035 252.778 33.2415C249.816 45.6825 246.808 59.1716 243.755 73.7089C240.109 91.2539 237.899 103.308 237.125 109.87C237.216 109.87 237.307 109.893 237.398 109.938C237.763 110.029 238.013 110.234 238.15 110.553C238.287 110.918 238.287 111.26 238.15 111.579C237.922 112.308 237.74 112.832 237.603 113.151C237.421 113.516 237.17 113.857 236.851 114.176C236.532 114.541 236.19 114.723 235.826 114.723C235.689 114.723 235.53 114.7 235.347 114.655C234.755 114.473 234.413 113.994 234.322 113.219C234.185 112.445 234.231 111.397 234.459 110.075C234.641 108.161 235.051 105.404 235.689 101.804C236.828 94.968 238.537 86.0816 240.816 75.1444C243.869 60.3793 246.945 46.4344 250.044 33.3099C246.945 33.3554 243.094 33.4466 238.492 33.5833C231.2 33.7656 226.917 33.8567 225.641 33.8567C225.276 33.8567 224.98 33.7428 224.752 33.5149C224.478 33.2415 224.342 32.9225 224.342 32.5579C224.342 32.3301 224.41 32.125 224.547 31.9427C224.638 31.7149 224.797 31.5554 225.025 31.4642C225.208 31.3275 225.413 31.2591 225.641 31.2591C226.917 31.2591 231.177 31.1452 238.423 30.9174C242.935 30.8262 247.036 30.7351 250.728 30.6439C252.186 24.6285 253.485 19.5245 254.624 15.3319C254.715 14.9674 254.92 14.6939 255.239 14.5116C255.558 14.3294 255.877 14.2838 256.196 14.3749C256.561 14.4661 256.834 14.6711 257.016 14.9901C257.199 15.3091 257.244 15.6509 257.153 16.0155C256.059 20.0714 254.806 24.9247 253.394 30.5756C267.065 30.211 277.387 30.0743 284.359 30.1654C291.332 30.2566 295.707 30.4161 297.484 30.6439C299.307 30.8262 300.378 31.168 300.697 31.6693ZM271.085 56.2779C271.45 56.1867 271.792 56.2323 272.111 56.4146C272.43 56.5969 272.612 56.8703 272.657 57.2349C272.749 57.5994 272.703 57.9412 272.521 58.2602C271.245 60.2654 269.695 62.3616 267.872 64.5491C266.095 66.6909 264.067 68.6277 261.789 70.3594C259.556 72.0911 257.664 72.957 256.115 72.957C255.568 72.957 255.09 72.8659 254.68 72.6836C251.626 71.362 251.307 66.0074 253.723 56.6196C253.814 56.2551 254.019 55.9816 254.338 55.7994C254.657 55.6171 254.976 55.5715 255.295 55.6626C255.659 55.7538 255.933 55.9589 256.115 56.2779C256.297 56.5969 256.343 56.9159 256.252 57.2349C255.705 59.4223 255.295 61.3591 255.021 63.0452C254.793 64.6858 254.68 65.939 254.68 66.8049C254.725 67.6707 254.816 68.3999 254.953 68.9923C255.135 69.5391 255.272 69.8809 255.363 70.0176C255.5 70.1088 255.614 70.1771 255.705 70.2227C256.89 70.724 259.032 69.5391 262.13 66.6681C265.275 63.7971 267.986 60.516 270.265 56.8247C270.493 56.5513 270.766 56.369 271.085 56.2779ZM255.978 50.946C254.657 50.8549 254.247 50.308 254.748 49.3054C255.204 48.4851 255.796 47.9383 256.525 47.6649C257.664 47.3003 258.348 47.5965 258.576 48.5535C258.804 49.4649 258.462 50.1485 257.551 50.6042C257.095 50.8321 256.571 50.946 255.978 50.946ZM290.972 56.2779C291.337 56.1867 291.656 56.2551 291.929 56.4829C292.248 56.6652 292.453 56.9386 292.545 57.3032C292.636 57.6678 292.567 57.9868 292.34 58.2602C290.836 60.5844 289.514 62.5439 288.375 64.1389C287.281 65.7339 286.028 67.4429 284.615 69.2657C283.202 71.043 281.904 72.4557 280.719 73.5039C279.58 74.5976 278.372 75.4862 277.096 76.1698C275.82 76.8989 274.612 77.2635 273.473 77.2635C273.063 77.2635 272.653 77.2179 272.243 77.1268C270.602 76.7622 269.349 75.8052 268.483 74.2558C267.571 72.2051 267.184 69.9721 267.321 67.5568C267.412 65.0959 267.89 62.6806 268.756 60.3109C269.668 57.8045 270.807 55.8677 272.174 54.5006C273.587 53.1334 274.908 52.6549 276.139 53.0651C276.412 53.1562 276.663 53.2929 276.891 53.4752C277.119 53.6119 277.392 53.9309 277.711 54.4322C278.03 54.8879 278.19 55.5031 278.19 56.2779C278.19 57.0526 278.053 58.0551 277.779 59.2856C277.688 59.6501 277.483 59.9236 277.164 60.1059C276.891 60.2881 276.572 60.3337 276.207 60.2426C275.843 60.1514 275.569 59.9464 275.387 59.6274C275.205 59.3084 275.159 58.9894 275.25 58.6704C275.706 56.9386 275.729 55.8905 275.319 55.5259C275.136 55.5259 274.84 55.6626 274.43 55.9361C274.065 56.2095 273.564 56.8247 272.926 57.7817C272.288 58.6931 271.718 59.8552 271.217 61.2679C270.397 63.4098 269.941 65.5972 269.85 67.8302C269.804 70.0176 270.123 71.7266 270.807 72.957C271.263 73.8229 271.924 74.3469 272.789 74.5292C273.564 74.7115 274.43 74.5976 275.387 74.1874C276.39 73.7773 277.438 73.0481 278.531 72C279.671 70.9063 280.696 69.8581 281.607 68.8556C282.519 67.8074 283.567 66.4403 284.752 64.7541C285.982 63.0224 286.917 61.7009 287.555 60.7894C288.193 59.8324 289.058 58.5109 290.152 56.8247C290.334 56.5513 290.608 56.369 290.972 56.2779ZM315.447 57.0981C315.811 57.007 316.13 57.0526 316.404 57.2349C316.723 57.4171 316.928 57.6906 317.019 58.0551C317.11 58.4197 317.065 58.7387 316.882 59.0121C316.336 59.878 315.743 60.8122 315.105 61.8148C314.467 62.7718 313.51 64.0934 312.234 65.7795C311.004 67.4656 309.819 68.9467 308.68 70.2227C307.54 71.4531 306.31 72.5469 304.988 73.5039C303.667 74.4609 302.527 74.9394 301.57 74.9394C301.206 74.9394 300.887 74.871 300.613 74.7343C298.426 73.914 297.811 70.4278 298.768 64.2756C297.264 66.3264 295.897 67.8758 294.666 68.9239C292.889 70.4278 291.34 70.6101 290.018 69.4708C288.788 68.4682 288.241 66.6909 288.377 64.1389C288.469 61.5869 289.198 59.1261 290.565 56.7564C290.747 56.4374 291.021 56.2323 291.385 56.1411C291.75 56.05 292.092 56.0956 292.411 56.2779C292.73 56.4601 292.935 56.7336 293.026 57.0981C293.117 57.4171 293.071 57.7361 292.889 58.0551C292.114 59.3311 291.567 60.6755 291.248 62.0882C290.975 63.5009 290.884 64.6858 290.975 65.6428C291.112 66.5542 291.34 67.1466 291.659 67.4201C291.886 67.6479 292.319 67.4884 292.957 66.9416C294.142 65.939 295.623 64.1389 297.401 61.5414C297.72 61.1312 297.947 60.835 298.084 60.6527C298.266 60.4249 298.472 60.1742 298.699 59.9008C298.927 59.5818 299.11 59.3767 299.246 59.2856C299.383 59.1944 299.542 59.1033 299.725 59.0121C299.907 58.8754 300.089 58.8299 300.272 58.8754C300.454 58.8754 300.659 58.921 300.887 59.0121C301.479 59.24 301.798 59.7641 301.844 60.5844C301.889 61.3591 301.775 62.3844 301.502 63.6604C301.001 66.1669 300.796 68.0809 300.887 69.4024C301.024 70.724 301.137 71.5443 301.229 71.8633C301.32 72.1367 301.434 72.2734 301.57 72.2734C301.707 72.3646 301.935 72.319 302.254 72.1367C302.619 72 303.029 71.7494 303.484 71.3848C303.986 71.0202 304.533 70.5645 305.125 70.0176C305.717 69.4252 306.378 68.7189 307.107 67.8986C307.882 67.0783 308.657 66.1896 309.431 65.2326C310.206 64.2301 311.049 63.0908 311.961 61.8148C312.872 60.4932 313.761 59.1033 314.627 57.645C314.809 57.326 315.082 57.1437 315.447 57.0981ZM333.393 7.94936C334.35 9.36207 333.872 12.7116 331.958 17.9979C330.089 23.2386 327.036 29.2312 322.798 35.9758C322.752 36.0214 322.707 36.0669 322.661 36.1125C319.79 47.5965 317.033 59.559 314.39 72C311.792 84.4866 310.129 93.373 309.4 98.6593C309.446 98.6593 309.491 98.6593 309.537 98.6593C309.901 98.796 310.175 99.0239 310.357 99.3429C310.494 99.6619 310.494 100.004 310.357 100.368C310.084 101.143 309.878 101.713 309.742 102.077C309.559 102.487 309.309 102.875 308.99 103.239C308.671 103.604 308.329 103.786 307.964 103.786C307.828 103.786 307.668 103.763 307.486 103.718C306.848 103.49 306.506 102.852 306.461 101.804C306.415 100.801 306.734 98.2947 307.418 94.2844C308.238 89.3627 309.468 82.9371 311.109 75.0077C314.891 56.9614 318.651 40.8747 322.388 26.7476C322.707 25.5627 323.049 24.3323 323.413 23.0563C323.778 21.7347 324.302 20.0941 324.985 18.1346C325.669 16.175 326.33 14.4661 326.968 13.0078C327.651 11.5039 328.403 10.1824 329.224 9.04307C330.044 7.85821 330.819 7.22021 331.548 7.12907C332.322 6.99236 332.938 7.26579 333.393 7.94936ZM325.054 26.9526C328.699 20.0714 330.75 14.6711 331.206 10.752C329.201 13.7597 327.15 19.1599 325.054 26.9526ZM347.498 56.8247C347.863 56.7791 348.182 56.8703 348.455 57.0981C348.774 57.326 348.957 57.6222 349.002 57.9868C349.048 58.3514 348.957 58.6704 348.729 58.9438C346.86 61.3591 344.627 63.2503 342.03 64.6174C339.432 65.9846 336.994 66.4175 334.716 65.9162C334.078 67.4656 333.189 68.6961 332.05 69.6075C330.91 70.4734 329.726 70.9063 328.495 70.9063H328.427C327.196 70.8607 326.103 70.4506 325.146 69.6759C324.234 68.8556 323.596 67.7391 323.232 66.3264C322.639 64.0934 322.753 61.9743 323.573 59.9691C324.348 57.9184 325.487 56.4146 326.991 55.4576C327.31 55.2297 327.675 55.1841 328.085 55.3209C328.495 54.3183 329.065 53.5436 329.794 52.9967C330.569 52.4499 331.366 52.2448 332.186 52.3815C332.642 52.4726 333.052 52.6777 333.417 52.9967C333.827 53.2701 334.214 53.7259 334.579 54.3639C334.989 55.0019 335.285 55.9816 335.468 57.3032C335.65 58.6248 335.695 60.197 335.604 62.0199C335.559 62.4756 335.49 62.9313 335.399 63.387C337.131 63.7516 339.045 63.3186 341.141 62.0882C343.283 60.8578 345.106 59.2628 346.61 57.3032C346.838 57.0298 347.134 56.8703 347.498 56.8247ZM328.495 68.2404C329.133 68.2404 329.794 67.9441 330.477 67.3517C331.207 66.7593 331.799 65.9618 332.255 64.9592C329.293 63.3186 327.743 61.0856 327.606 58.2602C326.695 59.1261 326.057 60.2881 325.692 61.7464C325.373 63.2047 325.396 64.4807 325.761 65.5744C326.262 67.3517 327.174 68.2404 328.495 68.2404ZM332.938 61.8831C333.029 60.7894 333.029 59.8552 332.938 59.0805C332.893 58.2602 332.824 57.5994 332.733 57.0981C332.642 56.5969 332.528 56.1867 332.391 55.8677C332.255 55.5487 332.118 55.3209 331.981 55.1841C331.89 55.0474 331.822 54.9791 331.776 54.9791H331.708C331.526 54.9791 331.298 55.1386 331.024 55.4576C330.751 55.731 330.546 56.1184 330.409 56.6196C330.136 57.5766 330.181 58.5564 330.546 59.559C330.91 60.5616 331.708 61.473 332.938 62.2933C332.938 62.1566 332.938 62.0199 332.938 61.8831ZM375.068 56.0044C375.432 55.9589 375.751 56.0728 376.025 56.3462C376.298 56.5741 376.458 56.8703 376.503 57.2349C376.549 57.5994 376.435 57.9184 376.161 58.1919C367.321 68.491 362.262 74.4381 360.986 76.0331C360.211 77.0356 359.459 78.0154 358.73 78.9724C359.368 81.57 359.414 84.0764 358.867 86.4917C358.32 88.907 357.545 90.9805 356.543 92.7122C355.54 94.4439 354.355 95.8566 352.988 96.9504C351.712 98.0441 350.527 98.5909 349.434 98.5909C348.75 98.5909 348.181 98.3631 347.725 97.9074C345.31 95.5832 348.021 89.0893 355.859 78.4256C355.358 76.6939 354.561 75.0077 353.467 73.3671C351.188 69.9493 349.502 67.1011 348.408 64.8225C347.315 62.5439 346.813 60.4704 346.905 58.602C346.996 56.7791 347.474 55.1386 348.34 53.6803C349.251 52.222 350.459 51.0371 351.963 50.1257C353.239 49.351 354.583 48.8953 355.996 48.7586C357.409 48.6219 358.708 48.8269 359.892 49.3738C360.211 49.5561 360.416 49.8295 360.508 50.1941C360.644 50.5131 360.622 50.8321 360.439 51.1511C360.303 51.4701 360.052 51.6979 359.687 51.8346C359.368 51.9258 359.049 51.903 358.73 51.7663C357.09 50.9916 355.29 51.1966 353.33 52.3815C350.96 53.7942 349.707 55.9133 349.57 58.7387C349.479 60.2426 349.958 62.0426 351.006 64.1389C352.054 66.1896 353.604 68.7644 355.654 71.8633C356.52 73.1849 357.226 74.5292 357.773 75.8964C358.138 75.4406 358.525 74.9394 358.935 74.3925C360.211 72.7975 365.293 66.8276 374.179 56.4829C374.407 56.2095 374.703 56.05 375.068 56.0044ZM353.809 92.097C355.814 89.0437 356.702 85.6942 356.475 82.0485C354.561 84.7828 353.011 87.2209 351.826 89.3627C350.687 91.5046 349.981 93.0312 349.707 93.9426C349.479 94.8996 349.411 95.5604 349.502 95.925C349.912 95.8794 350.527 95.5149 351.348 94.8313C352.168 94.1933 352.988 93.2819 353.809 92.097Z" fill="#EEC664"/>
<path d="M40.208 22.36V22.808L36.176 23.256C35.28 23.368 34.6827 23.592 34.384 23.928C34.0853 24.264 33.936 24.88 33.936 25.776V61.896H33.376L8.232 26.224H8.008V57.584C8.008 58.48 8.12 59.1147 8.344 59.488C8.568 59.824 9.016 60.0293 9.688 60.104L13.664 60.552V61H1.4V60.552L5.432 60.104C6.104 60.0293 6.552 59.824 6.776 59.488C7 59.1147 7.112 58.48 7.112 57.584V24.992L6.888 24.656C6.36533 23.9093 5.86133 23.424 5.376 23.2C4.928 22.9387 4.256 22.808 3.36 22.808H2.408V22.36H10.752L32.816 53.272H33.04V25.776C33.04 24.88 32.928 24.2453 32.704 23.872C32.48 23.4987 32.032 23.2933 31.36 23.256L26.824 22.808V22.36H40.208ZM62.5135 58.2V58.48L56.4095 61.28H56.0735V57.472L55.9055 57.416C53.7028 60.1787 51.3322 61.56 48.7935 61.56C47.6362 61.56 46.6095 61.3173 45.7135 60.832C44.8175 60.3467 44.1642 59.6747 43.7535 58.816C43.4922 58.3307 43.3242 57.6773 43.2495 56.856C43.1748 55.9973 43.1375 54.5227 43.1375 52.432V38.152L39.7775 37.704V37.256H46.7775V52.432C46.7775 53.9253 46.8148 55.0267 46.8895 55.736C46.9642 56.408 47.1135 56.9867 47.3375 57.472C47.5988 58.0693 48.0282 58.5547 48.6255 58.928C49.2602 59.264 49.9695 59.432 50.7535 59.432C51.6868 59.432 52.5828 59.208 53.4415 58.76C54.3002 58.2747 55.0842 57.584 55.7935 56.688V38.152L52.4335 37.704V37.256H59.4335V57.528L62.5135 58.2ZM84.9896 54.616L85.2136 54.728L84.9896 55.344C84.243 57.3227 83.123 58.8533 81.6296 59.936C80.1736 61.0187 78.419 61.56 76.3656 61.56C74.3496 61.56 72.5576 61.0373 70.9896 59.992C69.4216 58.9467 68.1896 57.4907 67.2936 55.624C66.435 53.7573 66.0056 51.6107 66.0056 49.184C66.0056 46.7573 66.4723 44.592 67.4056 42.688C68.339 40.784 69.6643 39.3093 71.3816 38.264C73.099 37.2187 75.059 36.696 77.2616 36.696C79.875 36.696 81.8723 37.48 83.2536 39.048C84.6723 40.5787 85.4003 42.8187 85.4376 45.768L85.1016 46.048H69.9816C69.907 47.0187 69.8696 47.784 69.8696 48.344C69.8696 51.7413 70.5603 54.336 71.9416 56.128C73.323 57.8827 75.2456 58.76 77.7096 58.76C78.979 58.76 80.1923 58.48 81.3496 57.92C82.5443 57.3227 83.5896 56.4453 84.4856 55.288L84.9896 54.616ZM76.6456 37.312C74.891 37.312 73.435 38.04 72.2776 39.496C71.1203 40.952 70.3736 42.9307 70.0376 45.432L80.9016 45.04C81.0136 44.592 81.0696 43.8453 81.0696 42.8C81.0696 40.784 80.6776 39.3653 79.8936 38.544C79.147 37.7227 78.0643 37.312 76.6456 37.312ZM98.3653 36.696C95.752 36.696 93.7173 37.2747 92.2613 38.432C90.8427 39.5893 90.1333 41.2133 90.1333 43.304C90.1333 44.6107 90.3947 45.6933 90.9173 46.552C91.44 47.4107 92.0747 48.1013 92.8213 48.624C93.6053 49.1093 94.632 49.6693 95.9013 50.304C97.6187 51.1253 98.9067 51.928 99.7653 52.712C100.624 53.496 101.053 54.6533 101.053 56.184C101.053 57.6027 100.643 58.76 99.8213 59.656C99 60.5147 97.8987 60.944 96.5173 60.944C94.9867 60.944 93.736 60.328 92.7653 59.096C91.832 57.8267 91.1787 55.8853 90.8053 53.272H90.1333L90.4133 60.552C91.1973 60.8507 92.1493 61.0933 93.2693 61.28C94.3893 61.4667 95.3973 61.56 96.2933 61.56C98.7573 61.56 100.717 60.9067 102.173 59.6C103.629 58.256 104.357 56.4453 104.357 54.168C104.357 52.7867 104.077 51.648 103.517 50.752C102.995 49.856 102.341 49.1653 101.557 48.68C100.811 48.1573 99.784 47.5973 98.4773 47C96.7973 46.216 95.5467 45.4693 94.7253 44.76C93.904 44.0133 93.4933 42.9307 93.4933 41.512C93.4933 40.2427 93.8667 39.2347 94.6133 38.488C95.36 37.704 96.3493 37.312 97.5813 37.312C98.9253 37.312 99.9893 37.816 100.773 38.824C101.595 39.832 102.267 41.456 102.789 43.696H103.405V37.48C102.808 37.256 102.043 37.0693 101.109 36.92C100.176 36.7707 99.2613 36.696 98.3653 36.696ZM108.039 37.816L108.151 38.096H110.783V56.016C110.783 57.1733 110.914 58.1067 111.175 58.816C111.437 59.5253 111.885 60.104 112.519 60.552C113.453 61.224 114.517 61.56 115.711 61.56C116.869 61.56 117.951 61.224 118.959 60.552C120.005 59.88 120.807 58.9653 121.367 57.808L121.143 57.64C120.471 58.312 119.855 58.7973 119.295 59.096C118.735 59.3947 118.157 59.544 117.559 59.544C116.327 59.544 115.487 59.096 115.039 58.2C114.629 57.5653 114.423 56.5947 114.423 55.288V38.152H120.471L120.807 37.256H114.423V31.936L114.199 31.88L108.039 37.816ZM135.848 36.696C136.594 36.696 137.229 36.9573 137.752 37.48C138.274 37.9653 138.536 38.5627 138.536 39.272C138.536 39.8693 138.33 40.3733 137.92 40.784C137.509 41.1947 137.005 41.4 136.408 41.4C136.034 41.4 135.717 41.3253 135.456 41.176C135.232 40.9893 134.989 40.728 134.728 40.392C134.466 40.0933 134.224 39.8693 134 39.72C133.813 39.5707 133.57 39.496 133.272 39.496C132.674 39.496 132.058 39.8507 131.424 40.56C130.826 41.2693 130.397 42.0907 130.136 43.024V60.104L134.616 60.552V61H123.08V60.552L126.496 60.104V40.504L123.192 39.272V38.88L129.52 36.696H129.968V41.624C132.058 38.3387 134.018 36.696 135.848 36.696ZM152.016 36.696C154.181 36.696 156.104 37.2187 157.784 38.264C159.464 39.3093 160.77 40.784 161.704 42.688C162.637 44.5547 163.104 46.7013 163.104 49.128C163.104 51.5547 162.637 53.72 161.704 55.624C160.77 57.4907 159.464 58.9467 157.784 59.992C156.104 61.0373 154.181 61.56 152.016 61.56C149.85 61.56 147.928 61.0373 146.248 59.992C144.568 58.9467 143.261 57.4907 142.328 55.624C141.394 53.72 140.928 51.5547 140.928 49.128C140.928 46.7013 141.394 44.5547 142.328 42.688C143.261 40.784 144.568 39.3093 146.248 38.264C147.928 37.2187 149.85 36.696 152.016 36.696ZM145.072 49.128C145.072 52.8613 145.688 55.7733 146.92 57.864C148.152 59.9547 149.85 61 152.016 61C154.181 61 155.88 59.9547 157.112 57.864C158.344 55.7733 158.96 52.8613 158.96 49.128C158.96 45.3947 158.344 42.4827 157.112 40.392C155.88 38.3013 154.181 37.256 152.016 37.256C149.85 37.256 148.152 38.3013 146.92 40.392C145.688 42.4827 145.072 45.3947 145.072 49.128ZM176.24 36.696C173.627 36.696 171.592 37.2747 170.136 38.432C168.718 39.5893 168.008 41.2133 168.008 43.304C168.008 44.6107 168.27 45.6933 168.792 46.552C169.315 47.4107 169.95 48.1013 170.696 48.624C171.48 49.1093 172.507 49.6693 173.776 50.304C175.494 51.1253 176.782 51.928 177.64 52.712C178.499 53.496 178.928 54.6533 178.928 56.184C178.928 57.6027 178.518 58.76 177.696 59.656C176.875 60.5147 175.774 60.944 174.392 60.944C172.862 60.944 171.611 60.328 170.64 59.096C169.707 57.8267 169.054 55.8853 168.68 53.272H168.008L168.288 60.552C169.072 60.8507 170.024 61.0933 171.144 61.28C172.264 61.4667 173.272 61.56 174.168 61.56C176.632 61.56 178.592 60.9067 180.048 59.6C181.504 58.256 182.232 56.4453 182.232 54.168C182.232 52.7867 181.952 51.648 181.392 50.752C180.87 49.856 180.216 49.1653 179.432 48.68C178.686 48.1573 177.659 47.5973 176.352 47C174.672 46.216 173.422 45.4693 172.6 44.76C171.779 44.0133 171.368 42.9307 171.368 41.512C171.368 40.2427 171.742 39.2347 172.488 38.488C173.235 37.704 174.224 37.312 175.456 37.312C176.8 37.312 177.864 37.816 178.648 38.824C179.47 39.832 180.142 41.456 180.664 43.696H181.28V37.48C180.683 37.256 179.918 37.0693 178.984 36.92C178.051 36.7707 177.136 36.696 176.24 36.696Z" fill="black"/>
</svg>
