<svg width="253" height="111" viewBox="0 0 253 111" fill="none" xmlns="http://www.w3.org/2000/svg">
<path d="M177.698 28.6395C179.065 29.0496 179.976 30.1434 180.432 31.9206C180.888 33.6524 180.819 35.6803 180.227 38.0044C179.133 42.0147 176.445 45.7288 172.161 49.1466C170.384 50.6049 168.424 51.8809 166.282 52.9746C164.642 59.6736 162.819 67.9904 160.814 77.925C158.763 87.9051 157.259 95.789 156.302 101.577C156.165 102.306 155.732 102.67 155.003 102.67C154.912 102.67 154.844 102.67 154.798 102.67C154.57 102.625 154.365 102.534 154.183 102.397C154.001 102.26 153.864 102.078 153.773 101.85C153.682 101.622 153.659 101.394 153.704 101.166C154.889 93.1914 157.51 77.7883 161.565 54.957C161.019 55.1393 160.472 55.2988 159.925 55.4355C159.56 55.5722 159.219 55.5494 158.9 55.3671C158.581 55.1849 158.375 54.9114 158.284 54.5469C158.193 54.1823 158.239 53.8405 158.421 53.5215C158.603 53.2025 158.877 52.9974 159.241 52.9063C160.153 52.6784 161.087 52.3594 162.044 51.9493C162.363 50.3543 162.796 47.9846 163.343 44.8401C165.712 31.5333 166.92 24.5836 166.966 23.9912C166.966 23.6266 167.08 23.3304 167.307 23.1026C167.581 22.8291 167.877 22.6924 168.196 22.6924C168.561 22.6469 168.88 22.7608 169.153 23.0342C169.427 23.2621 169.586 23.5583 169.632 23.9229C169.632 24.2874 168.561 30.4851 166.419 42.516C167.102 40.602 167.786 38.8703 168.47 37.3209C169.199 35.7714 169.859 34.4954 170.452 33.4929C171.09 32.4903 171.728 31.6472 172.366 30.9636C173.004 30.2801 173.574 29.7788 174.075 29.4598C174.576 29.0952 175.055 28.8446 175.51 28.7079C176.012 28.5256 176.422 28.4572 176.741 28.5028C177.105 28.5028 177.424 28.5484 177.698 28.6395ZM177.698 37.3209C178.108 35.5436 178.199 34.1081 177.971 33.0144C177.789 31.9206 177.447 31.3054 176.946 31.1687C176.9 31.1231 176.832 31.1004 176.741 31.1004C176.467 31.1004 176.148 31.2143 175.784 31.4421C175.465 31.6244 175.032 32.0118 174.485 32.6042C173.938 33.1511 173.368 33.8802 172.776 34.7916C172.229 35.6575 171.591 36.8651 170.862 38.4146C170.178 39.964 169.495 41.7413 168.811 43.7464C168.356 45.1136 167.809 47.0276 167.171 49.4884C169.768 47.8934 172.001 46.0478 173.87 43.9515C175.784 41.8552 177.06 39.645 177.698 37.3209ZM207.485 38.8247C207.849 38.7791 208.168 38.8703 208.442 39.0981C208.761 39.326 208.943 39.6222 208.989 39.9868C209.034 40.3514 208.943 40.6704 208.715 40.9438C206.847 43.3591 204.614 45.2503 202.016 46.6174C199.419 47.9846 196.981 48.4175 194.702 47.9162C194.064 49.4656 193.175 50.6961 192.036 51.6075C190.897 52.4734 189.712 52.9063 188.482 52.9063H188.413C187.183 52.8607 186.089 52.4506 185.132 51.6759C184.221 50.8556 183.583 49.7391 183.218 48.3264C182.626 46.0934 182.74 43.9743 183.56 41.9691C184.335 39.9184 185.474 38.4146 186.978 37.4576C187.297 37.2297 187.661 37.1841 188.071 37.3209C188.482 36.3183 189.051 35.5436 189.78 34.9967C190.555 34.4499 191.353 34.2448 192.173 34.3815C192.629 34.4726 193.039 34.6777 193.403 34.9967C193.813 35.2701 194.201 35.7259 194.565 36.3639C194.976 37.0019 195.272 37.9816 195.454 39.3032C195.636 40.6248 195.682 42.197 195.591 44.0199C195.545 44.4756 195.477 44.9313 195.386 45.387C197.117 45.7516 199.031 45.3186 201.128 44.0882C203.27 42.8578 205.092 41.2628 206.596 39.3032C206.824 39.0298 207.12 38.8703 207.485 38.8247ZM188.482 50.2404C189.12 50.2404 189.78 49.9441 190.464 49.3517C191.193 48.7593 191.786 47.9618 192.241 46.9592C189.279 45.3186 187.73 43.0856 187.593 40.2602C186.682 41.1261 186.044 42.2881 185.679 43.7464C185.36 45.2047 185.383 46.4807 185.747 47.5744C186.249 49.3517 187.16 50.2404 188.482 50.2404ZM192.925 43.8831C193.016 42.7894 193.016 41.8552 192.925 41.0805C192.879 40.2602 192.811 39.5994 192.72 39.0981C192.629 38.5969 192.515 38.1867 192.378 37.8677C192.241 37.5487 192.105 37.3209 191.968 37.1841C191.877 37.0474 191.808 36.9791 191.763 36.9791H191.694C191.512 36.9791 191.284 37.1386 191.011 37.4576C190.737 37.731 190.532 38.1184 190.396 38.6196C190.122 39.5766 190.168 40.5564 190.532 41.559C190.897 42.5616 191.694 43.473 192.925 44.2933C192.925 44.1566 192.925 44.0199 192.925 43.8831ZM234.175 38.4829C234.54 38.3462 234.882 38.369 235.201 38.5513C235.52 38.688 235.747 38.9386 235.884 39.3032C236.021 39.6222 235.998 39.9412 235.816 40.2602C234.585 42.9034 233.195 45.6149 231.646 48.3947C230.097 51.1746 228.388 53.9772 226.519 56.8026C224.696 59.6736 222.873 61.9978 221.051 63.7751C219.228 65.5979 217.678 66.5094 216.402 66.5094C216.083 66.5094 215.787 66.441 215.514 66.3043C213.645 65.5751 213.053 62.7497 213.736 57.828C214.374 53.2253 216.061 46.7086 218.795 38.2779C218.749 38.2779 218.704 38.3006 218.658 38.3462C218.658 38.3462 218.635 38.3462 218.59 38.3462C217.587 39.0298 216.744 39.5539 216.061 39.9184C215.423 40.283 214.534 40.6931 213.395 41.1489C212.301 41.6046 211.253 41.8096 210.25 41.7641C209.248 41.7185 208.313 41.3995 207.448 40.8071C205.716 39.5766 204.827 37.8677 204.782 35.6803C204.736 33.4929 205.556 31.1004 207.242 28.5028C208.291 26.8622 209.544 25.4267 211.002 24.1963C212.506 22.9659 213.782 22.6924 214.83 23.376C215.468 23.7406 215.833 24.333 215.924 25.1533C216.061 25.9736 215.673 27.5686 214.762 29.9383C213.85 32.2624 212.324 35.3157 210.182 39.0981C211.595 39.2804 213.919 38.3006 217.154 36.1588C217.747 35.7486 218.18 35.4752 218.453 35.3385C218.772 35.1562 219.114 34.9739 219.478 34.7916C219.889 34.6094 220.23 34.541 220.504 34.5866C220.777 34.6321 221.051 34.7461 221.324 34.9284C222.008 35.4752 222.122 36.4322 221.666 37.7994C217.109 51.9265 215.309 60.4939 216.266 63.5016C216.357 63.6839 216.425 63.8206 216.471 63.9118C216.835 63.9574 217.382 63.6611 218.111 63.0231C218.886 62.3851 219.82 61.3826 220.914 60.0154C222.053 58.6483 223.261 57.0077 224.537 55.0937C225.858 53.1797 227.294 50.8328 228.843 48.0529C230.438 45.2731 231.965 42.3109 233.423 39.1665C233.606 38.8019 233.856 38.5741 234.175 38.4829ZM207.653 33.8346C207.242 35.4296 207.334 36.7056 207.926 37.6626C211.253 31.8751 213.03 27.9559 213.258 25.9052C212.711 26.2242 212.073 26.7483 211.344 27.4774C210.66 28.2066 209.931 29.1636 209.156 30.3484C208.427 31.4877 207.926 32.6498 207.653 33.8346Z" fill="#EEC664"/>
<path d="M20.553 14.464C23.801 14.464 26.769 15.36 29.457 17.152C32.1823 18.944 34.3103 21.3893 35.841 24.488C37.409 27.5493 38.193 30.9467 38.193 34.68C38.193 38.4133 37.409 41.8293 35.841 44.928C34.3103 47.9893 32.1823 50.416 29.457 52.208C26.769 54 23.801 54.896 20.553 54.896C17.305 54.896 14.3183 54 11.593 52.208C8.90498 50.416 6.77698 47.9893 5.20898 44.928C3.67831 41.8293 2.91298 38.4133 2.91298 34.68C2.91298 30.9467 3.67831 27.5493 5.20898 24.488C6.77698 21.3893 8.90498 18.944 11.593 17.152C14.3183 15.36 17.305 14.464 20.553 14.464ZM8.28898 34.68C8.28898 40.9147 9.35298 45.7307 11.481 49.128C13.609 52.488 16.633 54.168 20.553 54.168C24.473 54.168 27.497 52.488 29.625 49.128C31.753 45.7307 32.817 40.9147 32.817 34.68C32.817 28.4453 31.753 23.6293 29.625 20.232C27.497 16.8347 24.473 15.136 20.553 15.136C16.633 15.136 13.609 16.8347 11.481 20.232C9.35298 23.6293 8.28898 28.4453 8.28898 34.68ZM55.294 29.696C56.0406 29.696 56.6753 29.9573 57.198 30.48C57.7206 30.9653 57.982 31.5627 57.982 32.272C57.982 32.8693 57.7766 33.3733 57.366 33.784C56.9553 34.1947 56.4513 34.4 55.854 34.4C55.4806 34.4 55.1633 34.3253 54.902 34.176C54.678 33.9893 54.4353 33.728 54.174 33.392C53.9126 33.0933 53.67 32.8693 53.446 32.72C53.2593 32.5707 53.0166 32.496 52.718 32.496C52.1206 32.496 51.5046 32.8507 50.87 33.56C50.2726 34.2693 49.8433 35.0907 49.582 36.024V53.104L54.062 53.552V54H42.526V53.552L45.942 53.104V33.504L42.638 32.272V31.88L48.966 29.696H49.414V34.624C51.5046 31.3387 53.4646 29.696 55.294 29.696ZM69.5604 54.56C70.9791 54.56 72.2858 54.2053 73.4804 53.496C74.7124 52.7867 75.7578 51.76 76.6164 50.416L76.7844 50.472V54.28H77.1204L83.2244 51.48V51.2L80.1444 50.528V13.624H79.6964L73.2004 15.808V16.2L76.5044 17.432V30.368C75.0484 29.92 73.5924 29.696 72.1364 29.696C69.8218 29.696 67.7498 30.2373 65.9204 31.32C64.1284 32.4027 62.7284 33.9333 61.7204 35.912C60.7498 37.8533 60.2644 40.0747 60.2644 42.576C60.2644 44.8533 60.6564 46.9067 61.4404 48.736C62.2618 50.528 63.3818 51.9467 64.8004 52.992C66.2191 54.0373 67.8058 54.56 69.5604 54.56ZM71.5204 52.32C69.2431 52.32 67.4511 51.3867 66.1444 49.52C64.8751 47.616 64.2404 45.04 64.2404 41.792C64.2404 38.32 64.9498 35.5387 66.3684 33.448C67.8244 31.32 69.7284 30.256 72.0804 30.256C73.4991 30.256 74.5818 30.704 75.3284 31.6C76.1124 32.4587 76.5044 33.7093 76.5044 35.352V49.688C76.0191 50.5093 75.3284 51.1627 74.4324 51.648C73.5738 52.096 72.6031 52.32 71.5204 52.32ZM105.662 47.616L105.886 47.728L105.662 48.344C104.916 50.3227 103.796 51.8533 102.302 52.936C100.846 54.0187 99.0918 54.56 97.0385 54.56C95.0225 54.56 93.2305 54.0373 91.6625 52.992C90.0945 51.9467 88.8625 50.4907 87.9665 48.624C87.1078 46.7573 86.6785 44.6107 86.6785 42.184C86.6785 39.7573 87.1452 37.592 88.0785 35.688C89.0118 33.784 90.3372 32.3093 92.0545 31.264C93.7718 30.2187 95.7318 29.696 97.9345 29.696C100.548 29.696 102.545 30.48 103.926 32.048C105.345 33.5787 106.073 35.8187 106.11 38.768L105.774 39.048H90.6545C90.5798 40.0187 90.5425 40.784 90.5425 41.344C90.5425 44.7413 91.2332 47.336 92.6145 49.128C93.9958 50.8827 95.9185 51.76 98.3825 51.76C99.6518 51.76 100.865 51.48 102.022 50.92C103.217 50.3227 104.262 49.4453 105.158 48.288L105.662 47.616ZM97.3185 30.312C95.5638 30.312 94.1078 31.04 92.9505 32.496C91.7932 33.952 91.0465 35.9307 90.7105 38.432L101.574 38.04C101.686 37.592 101.742 36.8453 101.742 35.8C101.742 33.784 101.35 32.3653 100.566 31.544C99.8198 30.7227 98.7372 30.312 97.3185 30.312ZM133.094 53.552V54H122.678V53.552L126.094 53.104V38.824C126.094 37.368 126.057 36.2853 125.982 35.576C125.908 34.8667 125.758 34.2693 125.534 33.784C125.236 33.1493 124.732 32.664 124.022 32.328C123.35 31.9547 122.566 31.768 121.67 31.768C119.766 31.768 118.068 32.5707 116.574 34.176V53.104L119.99 53.552V54H109.518V53.552L112.934 53.104V33.784L109.63 32.552V32.16L115.958 29.976H116.406V33.504C118.796 30.9653 121.297 29.696 123.91 29.696C125.068 29.696 126.113 29.9573 127.046 30.48C128.017 30.9653 128.708 31.6187 129.118 32.44C129.38 32.9253 129.548 33.5973 129.622 34.456C129.697 35.2773 129.734 36.7333 129.734 38.824V53.104L133.094 53.552ZM141.265 54.392C139.847 54.392 138.671 53.9067 137.737 52.936C136.841 51.928 136.393 50.64 136.393 49.072C136.393 47.2053 137.233 45.712 138.913 44.592C140.631 43.472 143.524 42.5013 147.593 41.68V36.584C147.593 34.4187 147.351 32.9253 146.865 32.104C146.38 31.2453 145.54 30.816 144.345 30.816C143.188 30.816 142.255 31.1333 141.545 31.768C140.836 32.3653 140.481 33.1867 140.481 34.232L140.537 35.744C140.537 36.6773 140.351 37.424 139.977 37.984C139.641 38.5067 139.156 38.768 138.521 38.768C137.961 38.768 137.495 38.5813 137.121 38.208C136.785 37.8347 136.617 37.3493 136.617 36.752C136.617 35.856 137.047 34.8853 137.905 33.84C138.801 32.7573 139.94 31.8613 141.321 31.152C143.001 30.2187 144.737 29.752 146.529 29.752C147.575 29.752 148.452 29.9573 149.161 30.368C149.908 30.7787 150.449 31.3573 150.785 32.104C150.972 32.5893 151.084 33.1867 151.121 33.896C151.196 34.6053 151.233 35.968 151.233 37.984V48.68C151.233 50.024 151.364 50.9573 151.625 51.48C151.887 51.9653 152.353 52.208 153.025 52.208C154.033 52.208 154.78 51.8533 155.265 51.144L155.489 51.256C155.041 52.1893 154.444 52.9173 153.697 53.44C152.951 53.9253 152.148 54.168 151.289 54.168C150.319 54.168 149.516 53.888 148.881 53.328C148.247 52.7307 147.892 51.9467 147.817 50.976L147.649 50.92C146.791 52.0027 145.801 52.8613 144.681 53.496C143.561 54.0933 142.423 54.392 141.265 54.392ZM143.673 52.264C144.457 52.264 145.185 52.096 145.857 51.76C146.567 51.3867 147.145 50.864 147.593 50.192V42.296C145.652 42.7813 144.14 43.2667 143.057 43.752C142.012 44.2373 141.265 44.816 140.817 45.488C140.369 46.16 140.145 47 140.145 48.008C140.145 49.3147 140.463 50.36 141.097 51.144C141.732 51.8907 142.591 52.264 143.673 52.264ZM170.028 29.696C170.775 29.696 171.41 29.9573 171.932 30.48C172.455 30.9653 172.716 31.5627 172.716 32.272C172.716 32.8693 172.511 33.3733 172.1 33.784C171.69 34.1947 171.186 34.4 170.588 34.4C170.215 34.4 169.898 34.3253 169.636 34.176C169.412 33.9893 169.17 33.728 168.908 33.392C168.647 33.0933 168.404 32.8693 168.18 32.72C167.994 32.5707 167.751 32.496 167.452 32.496C166.855 32.496 166.239 32.8507 165.604 33.56C165.007 34.2693 164.578 35.0907 164.316 36.024V53.104L168.796 53.552V54H157.26V53.552L160.676 53.104V33.504L157.372 32.272V31.88L163.7 29.696H164.148V34.624C166.239 31.3387 168.199 29.696 170.028 29.696Z" fill="black"/>
</svg>
