<svg width="391" height="115" viewBox="0 0 391 115" fill="none" xmlns="http://www.w3.org/2000/svg">
<path d="M206.602 52.556C206.954 52.424 207.284 52.446 207.592 52.622C207.944 52.754 208.164 52.996 208.252 53.348C208.384 53.656 208.384 53.964 208.252 54.272C203.852 63.688 199.474 71.696 195.118 78.296C190.762 84.896 186.56 89.89 182.512 93.278C178.508 96.666 174.79 98.36 171.358 98.36C170.346 98.36 169.356 98.206 168.388 97.898C165.264 96.93 162.734 94.466 160.798 90.506C158.906 86.59 157.784 81.618 157.432 75.59C157.08 69.606 157.498 62.786 158.686 55.13C159.962 47.122 162.14 38.85 165.22 30.314C168.828 20.282 172.744 12.736 176.968 7.676C180.4 3.584 183.348 2.132 185.812 3.32001C187.528 4.15601 188.672 6.158 189.244 9.326C189.86 12.45 189.97 16.388 189.574 21.14C189.178 25.892 188.584 30.666 187.792 35.462C187 40.214 185.988 45.362 184.756 50.906C184.668 51.214 184.47 51.478 184.162 51.698C183.854 51.874 183.524 51.918 183.172 51.83C182.864 51.742 182.6 51.566 182.38 51.302C182.204 50.994 182.16 50.664 182.248 50.312C183.568 44.416 184.624 39.026 185.416 34.142C186.208 29.214 186.714 25.1 186.934 21.8C187.198 18.5 187.264 15.662 187.132 13.286C187 10.91 186.714 9.12801 186.274 7.94001C185.878 6.70801 185.35 5.938 184.69 5.63C184.074 5.32201 183.26 5.49801 182.248 6.158C181.236 6.818 180.136 7.852 178.948 9.26C175.032 13.968 171.424 20.832 168.124 29.852C164.824 38.828 162.514 47.386 161.194 55.526C159.434 66.35 159.368 75.524 160.996 83.048C161.744 86.48 162.822 89.252 164.23 91.364C165.638 93.52 167.288 94.884 169.18 95.456C173.36 96.776 178.398 94.356 184.294 88.196C191.246 80.936 198.462 69.276 205.942 53.216C206.074 52.908 206.294 52.688 206.602 52.556ZM228.016 53.348C228.368 53.304 228.676 53.392 228.94 53.612C229.248 53.832 229.424 54.118 229.468 54.47C229.512 54.822 229.424 55.13 229.204 55.394C227.4 57.726 225.244 59.552 222.736 60.872C220.228 62.192 217.874 62.61 215.674 62.126C215.058 63.622 214.2 64.81 213.1 65.69C212 66.526 210.856 66.944 209.668 66.944H209.602C208.414 66.9 207.358 66.504 206.434 65.756C205.554 64.964 204.938 63.886 204.586 62.522C204.014 60.366 204.124 58.32 204.916 56.384C205.664 54.404 206.764 52.952 208.216 52.028C208.524 51.808 208.876 51.764 209.272 51.896C209.668 50.928 210.218 50.18 210.922 49.652C211.67 49.124 212.44 48.926 213.232 49.058C213.672 49.146 214.068 49.344 214.42 49.652C214.816 49.916 215.19 50.356 215.542 50.972C215.938 51.588 216.224 52.534 216.4 53.81C216.576 55.086 216.62 56.604 216.532 58.364C216.488 58.804 216.422 59.244 216.334 59.684C218.006 60.036 219.854 59.618 221.878 58.43C223.946 57.242 225.706 55.702 227.158 53.81C227.378 53.546 227.664 53.392 228.016 53.348ZM209.668 64.37C210.284 64.37 210.922 64.084 211.582 63.512C212.286 62.94 212.858 62.17 213.298 61.202C210.438 59.618 208.942 57.462 208.81 54.734C207.93 55.57 207.314 56.692 206.962 58.1C206.654 59.508 206.676 60.74 207.028 61.796C207.512 63.512 208.392 64.37 209.668 64.37ZM213.958 58.232C214.046 57.176 214.046 56.274 213.958 55.526C213.914 54.734 213.848 54.096 213.76 53.612C213.672 53.128 213.562 52.732 213.43 52.424C213.298 52.116 213.166 51.896 213.034 51.764C212.946 51.632 212.88 51.566 212.836 51.566H212.77C212.594 51.566 212.374 51.72 212.11 52.028C211.846 52.292 211.648 52.666 211.516 53.15C211.252 54.074 211.296 55.02 211.648 55.988C212 56.956 212.77 57.836 213.958 58.628C213.958 58.496 213.958 58.364 213.958 58.232ZM262.489 52.952C262.841 52.908 263.149 52.996 263.413 53.216C263.677 53.436 263.809 53.722 263.809 54.074C263.853 54.426 263.765 54.734 263.545 54.998C257.957 61.554 253.535 64.216 250.279 62.984C247.947 62.104 246.693 59.31 246.517 54.602C245.901 55.746 244.933 57.66 243.613 60.344C242.865 61.972 242.359 63.006 242.095 63.446C240.951 65.646 239.719 66.57 238.399 66.218C236.595 65.778 235.715 63.248 235.759 58.628C235.759 57.748 235.781 56.714 235.825 55.526C232.921 59.662 229.951 64.634 226.915 70.442C226.387 71.454 225.815 71.96 225.199 71.96C224.979 71.96 224.781 71.894 224.605 71.762C224.385 71.674 224.231 71.586 224.143 71.498C224.011 71.41 223.901 71.168 223.813 70.772C223.681 70.376 223.659 69.87 223.747 69.254C223.791 68.638 223.923 67.736 224.143 66.548C224.363 65.36 224.693 63.93 225.133 62.258C226.541 56.626 228.235 51.588 230.215 47.144C230.347 46.792 230.567 46.55 230.875 46.418C231.227 46.286 231.557 46.308 231.865 46.484C232.217 46.616 232.437 46.858 232.525 47.21C232.657 47.518 232.657 47.826 232.525 48.134C230.325 53.106 228.521 58.628 227.113 64.7C229.753 60.036 232.481 55.746 235.297 51.83C235.913 50.95 236.595 50.642 237.343 50.906C237.871 51.082 238.179 51.456 238.267 52.028C238.355 52.556 238.377 53.634 238.333 55.262C238.289 56.626 238.267 57.748 238.267 58.628C238.267 60.96 238.509 62.61 238.993 63.578C239.257 63.314 239.565 62.874 239.917 62.258C240.137 61.818 240.621 60.828 241.369 59.288C243.173 55.504 244.471 53.04 245.263 51.896C246.055 50.708 246.869 50.202 247.705 50.378C248.629 50.598 249.091 51.566 249.091 53.282C249.047 57.594 249.751 60.036 251.203 60.608C252.083 60.916 253.425 60.52 255.229 59.42C257.033 58.276 259.167 56.252 261.631 53.348C261.851 53.084 262.137 52.952 262.489 52.952ZM274.731 43.514C276.051 43.91 276.931 44.966 277.371 46.682C277.811 48.354 277.745 50.312 277.173 52.556C276.117 56.428 273.521 60.014 269.385 63.314C267.669 64.722 265.777 65.954 263.709 67.01C262.125 73.478 260.365 81.508 258.429 91.1C256.449 100.736 254.997 108.348 254.073 113.936C253.941 114.64 253.523 114.992 252.819 114.992C252.731 114.992 252.665 114.992 252.621 114.992C252.401 114.948 252.203 114.86 252.027 114.728C251.851 114.596 251.719 114.42 251.631 114.2C251.543 113.98 251.521 113.76 251.565 113.54C252.709 105.84 255.239 90.968 259.155 68.924C258.627 69.1 258.099 69.254 257.571 69.386C257.219 69.518 256.889 69.496 256.581 69.32C256.273 69.144 256.075 68.88 255.987 68.528C255.899 68.176 255.943 67.846 256.119 67.538C256.295 67.23 256.559 67.032 256.911 66.944C257.791 66.724 258.693 66.416 259.617 66.02C259.925 64.48 260.343 62.192 260.871 59.156C263.159 46.308 264.325 39.598 264.369 39.026C264.369 38.674 264.479 38.388 264.699 38.168C264.963 37.904 265.249 37.772 265.557 37.772C265.909 37.728 266.217 37.838 266.481 38.102C266.745 38.322 266.899 38.608 266.943 38.96C266.943 39.312 265.909 45.296 263.841 56.912C264.501 55.064 265.161 53.392 265.821 51.896C266.525 50.4 267.163 49.168 267.735 48.2C268.351 47.232 268.967 46.418 269.583 45.758C270.199 45.098 270.749 44.614 271.233 44.306C271.717 43.954 272.179 43.712 272.619 43.58C273.103 43.404 273.499 43.338 273.807 43.382C274.159 43.382 274.467 43.426 274.731 43.514ZM274.731 51.896C275.127 50.18 275.215 48.794 274.995 47.738C274.819 46.682 274.489 46.088 274.005 45.956C273.961 45.912 273.895 45.89 273.807 45.89C273.543 45.89 273.235 46 272.883 46.22C272.575 46.396 272.157 46.77 271.629 47.342C271.101 47.87 270.551 48.574 269.979 49.454C269.451 50.29 268.835 51.456 268.131 52.952C267.471 54.448 266.811 56.164 266.151 58.1C265.711 59.42 265.183 61.268 264.567 63.644C267.075 62.104 269.231 60.322 271.035 58.298C272.883 56.274 274.115 54.14 274.731 51.896ZM299.927 6.158C300.851 7.52201 300.389 10.756 298.541 15.86C296.737 20.92 293.789 26.706 289.697 33.218C289.653 33.262 289.609 33.306 289.565 33.35C286.793 44.438 284.131 55.988 281.579 68C279.071 80.056 277.465 88.636 276.761 93.74C276.805 93.74 276.849 93.74 276.893 93.74C277.245 93.872 277.509 94.092 277.685 94.4C277.817 94.708 277.817 95.038 277.685 95.39C277.421 96.138 277.223 96.688 277.091 97.04C276.915 97.436 276.673 97.81 276.365 98.162C276.057 98.514 275.727 98.69 275.375 98.69C275.243 98.69 275.089 98.668 274.913 98.624C274.297 98.404 273.967 97.788 273.923 96.776C273.879 95.808 274.187 93.388 274.847 89.516C275.639 84.764 276.827 78.56 278.411 70.904C282.063 53.48 285.693 37.948 289.301 24.308C289.609 23.164 289.939 21.976 290.291 20.744C290.643 19.468 291.149 17.884 291.809 15.992C292.469 14.1 293.107 12.45 293.723 11.042C294.383 9.59 295.109 8.314 295.901 7.214C296.693 6.07 297.441 5.454 298.145 5.366C298.893 5.234 299.487 5.49801 299.927 6.158ZM291.875 24.506C295.395 17.862 297.375 12.648 297.815 8.86401C295.879 11.768 293.899 16.982 291.875 24.506ZM311.962 53.084C312.314 52.996 312.622 53.062 312.886 53.282C313.194 53.458 313.37 53.722 313.414 54.074C313.458 54.426 313.392 54.734 313.216 54.998C308.244 61.95 303.712 66.878 299.62 69.782C297.992 70.926 296.386 71.498 294.802 71.498C293.57 71.498 292.492 71.168 291.568 70.508C291.04 70.112 290.578 69.584 290.182 68.924C289.742 68.264 289.368 67.34 289.06 66.152C288.752 64.964 288.708 63.402 288.928 61.466C289.104 59.53 289.588 57.33 290.38 54.866V54.8C291.612 50.796 293.108 47.628 294.868 45.296C296.628 42.964 298.212 41.776 299.62 41.732C300.632 41.688 301.292 42.128 301.6 43.052C302.084 44.328 301.512 46.132 299.884 48.464C298.256 50.796 295.858 53.304 292.69 55.988C292.162 57.704 291.788 59.288 291.568 60.74C291.348 62.192 291.26 63.358 291.304 64.238C291.392 65.074 291.546 65.822 291.766 66.482C292.03 67.098 292.25 67.538 292.426 67.802C292.646 68.066 292.866 68.286 293.086 68.462C294.406 69.43 296.1 69.166 298.168 67.67C302.04 64.942 306.352 60.234 311.104 53.546C311.324 53.282 311.61 53.128 311.962 53.084ZM299.158 44.504C297.618 45.472 296.1 47.562 294.604 50.774C297.156 48.222 298.674 46.132 299.158 44.504ZM365.489 29.06C365.709 29.324 365.797 29.632 365.753 29.984C365.709 30.336 365.533 30.622 365.225 30.842C364.697 31.194 364.191 31.172 363.707 30.776C361.595 30.028 346.767 29.962 319.223 30.578C316.363 42.59 313.459 55.614 310.511 69.65C306.991 86.59 304.857 98.228 304.109 104.564C304.197 104.564 304.285 104.586 304.373 104.63C304.725 104.718 304.967 104.916 305.099 105.224C305.231 105.576 305.231 105.906 305.099 106.214C304.879 106.918 304.703 107.424 304.571 107.732C304.395 108.084 304.153 108.414 303.845 108.722C303.537 109.074 303.207 109.25 302.855 109.25C302.723 109.25 302.569 109.228 302.393 109.184C301.821 109.008 301.491 108.546 301.403 107.798C301.271 107.05 301.315 106.038 301.535 104.762C301.711 102.914 302.107 100.252 302.723 96.776C303.823 90.176 305.473 81.596 307.673 71.036C310.621 56.78 313.591 43.316 316.583 30.644C313.591 30.688 309.873 30.776 305.429 30.908C298.389 31.084 294.253 31.172 293.021 31.172C292.669 31.172 292.383 31.062 292.163 30.842C291.899 30.578 291.767 30.27 291.767 29.918C291.767 29.698 291.833 29.5 291.965 29.324C292.053 29.104 292.207 28.95 292.427 28.862C292.603 28.73 292.801 28.664 293.021 28.664C294.253 28.664 298.367 28.554 305.363 28.334C309.719 28.246 313.679 28.158 317.243 28.07C318.651 22.262 319.905 17.334 321.005 13.286C321.093 12.934 321.291 12.67 321.599 12.494C321.907 12.318 322.215 12.274 322.523 12.362C322.875 12.45 323.139 12.648 323.315 12.956C323.491 13.264 323.535 13.594 323.447 13.946C322.391 17.862 321.181 22.548 319.817 28.004C333.017 27.652 342.983 27.52 349.715 27.608C356.447 27.696 360.671 27.85 362.387 28.07C364.147 28.246 365.181 28.576 365.489 29.06ZM341.518 53.348C341.87 53.304 342.178 53.392 342.442 53.612C342.75 53.832 342.926 54.118 342.97 54.47C343.014 54.822 342.926 55.13 342.706 55.394C340.902 57.726 338.746 59.552 336.238 60.872C333.73 62.192 331.376 62.61 329.176 62.126C328.56 63.622 327.702 64.81 326.602 65.69C325.502 66.526 324.358 66.944 323.17 66.944H323.104C321.916 66.9 320.86 66.504 319.936 65.756C319.056 64.964 318.44 63.886 318.088 62.522C317.516 60.366 317.626 58.32 318.418 56.384C319.166 54.404 320.266 52.952 321.718 52.028C322.026 51.808 322.378 51.764 322.774 51.896C323.17 50.928 323.72 50.18 324.424 49.652C325.172 49.124 325.942 48.926 326.734 49.058C327.174 49.146 327.57 49.344 327.922 49.652C328.318 49.916 328.692 50.356 329.044 50.972C329.44 51.588 329.726 52.534 329.902 53.81C330.078 55.086 330.122 56.604 330.034 58.364C329.99 58.804 329.924 59.244 329.836 59.684C331.508 60.036 333.356 59.618 335.38 58.43C337.448 57.242 339.208 55.702 340.66 53.81C340.88 53.546 341.166 53.392 341.518 53.348ZM323.17 64.37C323.786 64.37 324.424 64.084 325.084 63.512C325.788 62.94 326.36 62.17 326.8 61.202C323.94 59.618 322.444 57.462 322.312 54.734C321.432 55.57 320.816 56.692 320.464 58.1C320.156 59.508 320.178 60.74 320.53 61.796C321.014 63.512 321.894 64.37 323.17 64.37ZM327.46 58.232C327.548 57.176 327.548 56.274 327.46 55.526C327.416 54.734 327.35 54.096 327.262 53.612C327.174 53.128 327.064 52.732 326.932 52.424C326.8 52.116 326.668 51.896 326.536 51.764C326.448 51.632 326.382 51.566 326.338 51.566H326.272C326.096 51.566 325.876 51.72 325.612 52.028C325.348 52.292 325.15 52.666 325.018 53.15C324.754 54.074 324.798 55.02 325.15 55.988C325.502 56.956 326.272 57.836 327.46 58.628C327.46 58.496 327.46 58.364 327.46 58.232ZM368.137 52.556C368.489 52.512 368.797 52.622 369.061 52.886C369.325 53.106 369.479 53.392 369.523 53.744C369.567 54.096 369.457 54.404 369.193 54.668C360.657 64.612 355.773 70.354 354.541 71.894C353.793 72.862 353.067 73.808 352.363 74.732C352.979 77.24 353.023 79.66 352.495 81.992C351.967 84.324 351.219 86.326 350.251 87.998C349.283 89.67 348.139 91.034 346.819 92.09C345.587 93.146 344.443 93.674 343.387 93.674C342.727 93.674 342.177 93.454 341.737 93.014C339.405 90.77 342.023 84.5 349.591 74.204C349.107 72.532 348.337 70.904 347.281 69.32C345.081 66.02 343.453 63.27 342.397 61.07C341.341 58.87 340.857 56.868 340.945 55.064C341.033 53.304 341.495 51.72 342.331 50.312C343.211 48.904 344.377 47.76 345.829 46.88C347.061 46.132 348.359 45.692 349.723 45.56C351.087 45.428 352.341 45.626 353.485 46.154C353.793 46.33 353.991 46.594 354.079 46.946C354.211 47.254 354.189 47.562 354.013 47.87C353.881 48.178 353.639 48.398 353.287 48.53C352.979 48.618 352.671 48.596 352.363 48.464C350.779 47.716 349.041 47.914 347.149 49.058C344.861 50.422 343.651 52.468 343.519 55.196C343.431 56.648 343.893 58.386 344.905 60.41C345.917 62.39 347.413 64.876 349.393 67.868C350.229 69.144 350.911 70.442 351.439 71.762C351.791 71.322 352.165 70.838 352.561 70.31C353.793 68.77 358.699 63.006 367.279 53.018C367.499 52.754 367.785 52.6 368.137 52.556ZM347.611 87.404C349.547 84.456 350.405 81.222 350.185 77.702C348.337 80.342 346.841 82.696 345.697 84.764C344.597 86.832 343.915 88.306 343.651 89.186C343.431 90.11 343.365 90.748 343.453 91.1C343.849 91.056 344.443 90.704 345.235 90.044C346.027 89.428 346.819 88.548 347.611 87.404Z" fill="#EEC664"/>
<path d="M11.143 37.2V53.104L16.631 53.552V54H2.23902V53.552L6.83102 53.104V16.256L2.23902 15.808V15.36H16.407C20.775 15.36 24.1164 16.2933 26.431 18.16C28.783 20.0267 29.959 22.6587 29.959 26.056C29.959 29.6773 28.8017 32.44 26.487 34.344C24.1724 36.248 20.8124 37.2 16.407 37.2H11.143ZM11.143 16.032V36.528H16.239C19.263 36.528 21.4657 35.6693 22.847 33.952C24.2284 32.2347 24.919 29.5093 24.919 25.776C24.919 22.6773 24.2844 20.288 23.015 18.608C21.783 16.8907 19.5244 16.032 16.239 16.032H11.143ZM36.3181 54.392C34.8994 54.392 33.7234 53.9067 32.7901 52.936C31.8941 51.928 31.4461 50.64 31.4461 49.072C31.4461 47.2053 32.2861 45.712 33.9661 44.592C35.6834 43.472 38.5768 42.5013 42.6461 41.68V36.584C42.6461 34.4187 42.4034 32.9253 41.9181 32.104C41.4328 31.2453 40.5928 30.816 39.3981 30.816C38.2408 30.816 37.3074 31.1333 36.5981 31.768C35.8888 32.3653 35.5341 33.1867 35.5341 34.232L35.5901 35.744C35.5901 36.6773 35.4034 37.424 35.0301 37.984C34.6941 38.5067 34.2088 38.768 33.5741 38.768C33.0141 38.768 32.5474 38.5813 32.1741 38.208C31.8381 37.8347 31.6701 37.3493 31.6701 36.752C31.6701 35.856 32.0994 34.8853 32.9581 33.84C33.8541 32.7573 34.9928 31.8613 36.3741 31.152C38.0541 30.2187 39.7901 29.752 41.5821 29.752C42.6274 29.752 43.5048 29.9573 44.2141 30.368C44.9608 30.7787 45.5021 31.3573 45.8381 32.104C46.0248 32.5893 46.1368 33.1867 46.1741 33.896C46.2488 34.6053 46.2861 35.968 46.2861 37.984V48.68C46.2861 50.024 46.4168 50.9573 46.6781 51.48C46.9394 51.9653 47.4061 52.208 48.0781 52.208C49.0861 52.208 49.8328 51.8533 50.3181 51.144L50.5421 51.256C50.0941 52.1893 49.4968 52.9173 48.7501 53.44C48.0034 53.9253 47.2008 54.168 46.3421 54.168C45.3714 54.168 44.5688 53.888 43.9341 53.328C43.2994 52.7307 42.9448 51.9467 42.8701 50.976L42.7021 50.92C41.8434 52.0027 40.8541 52.8613 39.7341 53.496C38.6141 54.0933 37.4754 54.392 36.3181 54.392ZM38.7261 52.264C39.5101 52.264 40.2381 52.096 40.9101 51.76C41.6194 51.3867 42.1981 50.864 42.6461 50.192V42.296C40.7048 42.7813 39.1928 43.2667 38.1101 43.752C37.0648 44.2373 36.3181 44.816 35.8701 45.488C35.4221 46.16 35.1981 47 35.1981 48.008C35.1981 49.3147 35.5154 50.36 36.1501 51.144C36.7848 51.8907 37.6434 52.264 38.7261 52.264ZM64.3531 67.104H76.4491V66.656L73.0331 66.208V30.256H72.4171L70.9051 31.768H70.6811C68.8144 30.3867 66.7611 29.696 64.5211 29.696C62.3931 29.696 60.4518 30.2747 58.6971 31.432C56.9798 32.5893 55.6171 34.176 54.6091 36.192C53.6384 38.1707 53.1531 40.4107 53.1531 42.912C53.1531 45.152 53.5451 47.168 54.3291 48.96C55.1504 50.7147 56.2704 52.096 57.6891 53.104C59.1078 54.0747 60.7131 54.56 62.5051 54.56C65.2304 54.56 67.5264 53.4587 69.3931 51.256V66.096L64.3531 66.712V67.104ZM64.6891 30.256C66.1824 30.256 67.3398 30.76 68.1611 31.768C68.9824 32.7387 69.3931 34.12 69.3931 35.912V50.528C68.7958 51.2747 68.0491 51.8533 67.1531 52.264C66.2571 52.6747 65.3238 52.88 64.3531 52.88C62.1878 52.88 60.4704 51.9093 59.2011 49.968C57.9318 47.9893 57.2971 45.3013 57.2971 41.904C57.2971 38.3573 57.9691 35.5387 59.3131 33.448C60.6571 31.32 62.4491 30.256 64.6891 30.256ZM100.63 51.2V51.48L94.5257 54.28H94.1897V50.472L94.0217 50.416C91.8191 53.1787 89.4484 54.56 86.9097 54.56C85.7524 54.56 84.7257 54.3173 83.8297 53.832C82.9337 53.3467 82.2804 52.6747 81.8697 51.816C81.6084 51.3307 81.4404 50.6773 81.3657 49.856C81.2911 48.9973 81.2537 47.5227 81.2537 45.432V31.152L77.8937 30.704V30.256H84.8937V45.432C84.8937 46.9253 84.9311 48.0267 85.0057 48.736C85.0804 49.408 85.2297 49.9867 85.4537 50.472C85.7151 51.0693 86.1444 51.5547 86.7417 51.928C87.3764 52.264 88.0857 52.432 88.8697 52.432C89.8031 52.432 90.6991 52.208 91.5577 51.76C92.4164 51.2747 93.2004 50.584 93.9097 49.688V31.152L90.5497 30.704V30.256H97.5497V50.528L100.63 51.2ZM123.106 47.616L123.33 47.728L123.106 48.344C122.359 50.3227 121.239 51.8533 119.746 52.936C118.29 54.0187 116.535 54.56 114.482 54.56C112.466 54.56 110.674 54.0373 109.106 52.992C107.538 51.9467 106.306 50.4907 105.41 48.624C104.551 46.7573 104.122 44.6107 104.122 42.184C104.122 39.7573 104.589 37.592 105.522 35.688C106.455 33.784 107.781 32.3093 109.498 31.264C111.215 30.2187 113.175 29.696 115.378 29.696C117.991 29.696 119.989 30.48 121.37 32.048C122.789 33.5787 123.517 35.8187 123.554 38.768L123.218 39.048H108.098C108.023 40.0187 107.986 40.784 107.986 41.344C107.986 44.7413 108.677 47.336 110.058 49.128C111.439 50.8827 113.362 51.76 115.826 51.76C117.095 51.76 118.309 51.48 119.466 50.92C120.661 50.3227 121.706 49.4453 122.602 48.288L123.106 47.616ZM114.762 30.312C113.007 30.312 111.551 31.04 110.394 32.496C109.237 33.952 108.49 35.9307 108.154 38.432L119.018 38.04C119.13 37.592 119.186 36.8453 119.186 35.8C119.186 33.784 118.794 32.3653 118.01 31.544C117.263 30.7227 116.181 30.312 114.762 30.312ZM126.906 30.816L127.018 31.096H129.65V49.016C129.65 50.1733 129.78 51.1067 130.042 51.816C130.303 52.5253 130.751 53.104 131.386 53.552C132.319 54.224 133.383 54.56 134.578 54.56C135.735 54.56 136.818 54.224 137.826 53.552C138.871 52.88 139.674 51.9653 140.234 50.808L140.01 50.64C139.338 51.312 138.722 51.7973 138.162 52.096C137.602 52.3947 137.023 52.544 136.426 52.544C135.194 52.544 134.354 52.096 133.906 51.2C133.495 50.5653 133.29 49.5947 133.29 48.288V31.152H139.338L139.674 30.256H133.29V24.936L133.066 24.88L126.906 30.816ZM161.77 47.616L161.994 47.728L161.77 48.344C161.023 50.3227 159.903 51.8533 158.41 52.936C156.954 54.0187 155.199 54.56 153.146 54.56C151.13 54.56 149.338 54.0373 147.77 52.992C146.202 51.9467 144.97 50.4907 144.074 48.624C143.215 46.7573 142.786 44.6107 142.786 42.184C142.786 39.7573 143.253 37.592 144.186 35.688C145.119 33.784 146.445 32.3093 148.162 31.264C149.879 30.2187 151.839 29.696 154.042 29.696C156.655 29.696 158.653 30.48 160.034 32.048C161.453 33.5787 162.181 35.8187 162.218 38.768L161.882 39.048H146.762C146.687 40.0187 146.65 40.784 146.65 41.344C146.65 44.7413 147.341 47.336 148.722 49.128C150.103 50.8827 152.026 51.76 154.49 51.76C155.759 51.76 156.973 51.48 158.13 50.92C159.325 50.3227 160.37 49.4453 161.266 48.288L161.77 47.616ZM153.426 30.312C151.671 30.312 150.215 31.04 149.058 32.496C147.901 33.952 147.154 35.9307 146.818 38.432L157.682 38.04C157.794 37.592 157.85 36.8453 157.85 35.8C157.85 33.784 157.458 32.3653 156.674 31.544C155.927 30.7227 154.845 30.312 153.426 30.312ZM175.146 29.696C172.532 29.696 170.498 30.2747 169.042 31.432C167.623 32.5893 166.914 34.2133 166.914 36.304C166.914 37.6107 167.175 38.6933 167.698 39.552C168.22 40.4107 168.855 41.1013 169.602 41.624C170.386 42.1093 171.412 42.6693 172.682 43.304C174.399 44.1253 175.687 44.928 176.546 45.712C177.404 46.496 177.834 47.6533 177.834 49.184C177.834 50.6027 177.423 51.76 176.602 52.656C175.78 53.5147 174.679 53.944 173.298 53.944C171.767 53.944 170.516 53.328 169.546 52.096C168.612 50.8267 167.959 48.8853 167.586 46.272H166.914L167.194 53.552C167.978 53.8507 168.93 54.0933 170.05 54.28C171.17 54.4667 172.178 54.56 173.074 54.56C175.538 54.56 177.498 53.9067 178.954 52.6C180.41 51.256 181.138 49.4453 181.138 47.168C181.138 45.7867 180.858 44.648 180.298 43.752C179.775 42.856 179.122 42.1653 178.338 41.68C177.591 41.1573 176.564 40.5973 175.258 40C173.578 39.216 172.327 38.4693 171.506 37.76C170.684 37.0133 170.274 35.9307 170.274 34.512C170.274 33.2427 170.647 32.2347 171.394 31.488C172.14 30.704 173.13 30.312 174.362 30.312C175.706 30.312 176.77 30.816 177.554 31.824C178.375 32.832 179.047 34.456 179.57 36.696H180.186V30.48C179.588 30.256 178.823 30.0693 177.89 29.92C176.956 29.7707 176.042 29.696 175.146 29.696Z" fill="black"/>
</svg>
