<svg width="344" height="123" viewBox="0 0 344 123" fill="none" xmlns="http://www.w3.org/2000/svg">
<path d="M192.995 52.4406C193.35 52.3077 193.682 52.3298 193.992 52.5071C194.347 52.6401 194.569 52.8839 194.657 53.2386C194.79 53.5489 194.79 53.8592 194.657 54.1695C190.224 63.6558 185.814 71.7236 181.425 78.3729C177.037 85.0222 172.803 90.0535 168.725 93.4668C164.691 96.8801 160.945 98.5868 157.488 98.5868C156.468 98.5868 155.471 98.4316 154.495 98.1213C151.348 97.1461 148.799 94.6637 146.849 90.6741C144.943 86.7289 143.812 81.7197 143.458 75.6467C143.103 69.618 143.524 62.7471 144.721 55.0339C146.007 46.9661 148.201 38.6323 151.304 30.0325C154.939 19.9256 158.884 12.3232 163.14 7.22543C166.597 3.10287 169.567 1.64002 172.05 2.8369C173.778 3.67914 174.931 5.6961 175.507 8.88776C176.128 12.0351 176.239 16.0025 175.84 20.79C175.441 25.5775 174.842 30.3871 174.044 35.219C173.246 40.0065 172.227 45.1929 170.986 50.7783C170.897 51.0886 170.698 51.3546 170.387 51.5762C170.077 51.7536 169.745 51.7979 169.39 51.7092C169.08 51.6206 168.814 51.4433 168.592 51.1773C168.415 50.867 168.37 50.5345 168.459 50.1799C169.789 44.2398 170.853 38.8096 171.651 33.8891C172.449 28.9243 172.958 24.7796 173.18 21.4549C173.446 18.1303 173.512 15.2711 173.379 12.8773C173.246 10.4836 172.958 8.68828 172.515 7.49141C172.116 6.2502 171.584 5.47445 170.919 5.16415C170.299 4.85385 169.479 5.03117 168.459 5.6961C167.439 6.36102 166.331 7.40275 165.134 8.82126C161.189 13.5644 157.554 20.4797 154.229 29.5671C150.905 38.6101 148.578 47.232 147.248 55.4328C145.475 66.3377 145.408 75.5802 147.048 83.1604C147.802 86.618 148.888 89.4107 150.306 91.5385C151.725 93.7106 153.387 95.0848 155.293 95.6611C159.505 96.9909 164.58 94.5529 170.52 88.3468C177.524 81.0326 184.794 69.2855 192.33 53.1056C192.463 52.7953 192.685 52.5736 192.995 52.4406ZM218.293 53.1721C218.647 53.0391 218.98 53.0612 219.29 53.2386C219.601 53.3715 219.8 53.6154 219.889 53.97C220.022 54.2803 220.022 54.5906 219.889 54.9009C215.146 64.6975 210.912 69.5958 207.189 69.5958C206.967 69.5958 206.723 69.5737 206.457 69.5293C203.487 68.9531 201.647 64.9635 200.938 57.5606C198.766 60.4863 196.838 62.88 195.153 64.7418C193.646 66.3377 192.361 66.8918 191.297 66.4042C190.233 66.0052 189.723 64.8527 189.767 62.9465C189.767 61.3507 190.122 59.4446 190.831 57.2281C191.541 55.0117 192.582 52.8618 193.956 50.7783C195.331 48.6949 196.816 47.3872 198.411 46.8552C200.761 46.013 202.933 46.7887 204.928 49.1825C205.149 49.4485 205.238 49.7588 205.194 50.1134C205.194 50.468 205.061 50.7562 204.795 50.9778C204.529 51.1994 204.219 51.3103 203.864 51.3103C203.509 51.2659 203.221 51.1108 202.999 50.8448C201.448 48.983 199.874 48.6284 198.278 49.7809C196.461 51.0665 194.932 53.3937 193.69 56.7627C192.494 60.0873 192.028 62.4589 192.294 63.8774C192.56 63.6558 192.87 63.3677 193.225 63.013C194.998 61.1069 197.17 58.3807 199.741 54.8344C200.318 54.0365 200.717 53.4824 200.938 53.1721C201.293 52.7288 201.758 52.5958 202.335 52.7731C202.911 52.9061 203.221 53.2829 203.265 53.9035C203.354 56.0756 203.531 58.0039 203.797 59.6884C204.063 61.3729 204.329 62.6584 204.595 63.545C204.861 64.3872 205.172 65.0965 205.526 65.6727C205.881 66.249 206.147 66.6258 206.324 66.8031C206.546 66.9361 206.767 67.0026 206.989 67.0026C207.61 67.1356 208.385 66.8475 209.316 66.1382C210.292 65.3846 211.511 63.9661 212.973 61.8826C214.481 59.7549 216.01 57.073 217.561 53.837C217.739 53.4824 217.983 53.2607 218.293 53.1721ZM272.29 28.7692C272.511 29.0351 272.6 29.3454 272.556 29.7001C272.511 30.0547 272.334 30.3428 272.024 30.5645C271.492 30.9191 270.982 30.8969 270.495 30.498C268.367 29.7444 253.428 29.6779 225.678 30.2985C222.797 42.4002 219.871 55.5215 216.901 69.6623C213.355 86.7289 211.205 98.4538 210.451 104.837C210.54 104.837 210.629 104.859 210.717 104.904C211.072 104.992 211.316 105.192 211.449 105.502C211.582 105.857 211.582 106.189 211.449 106.499C211.227 107.209 211.05 107.718 210.917 108.029C210.74 108.383 210.496 108.716 210.185 109.026C209.875 109.381 209.543 109.558 209.188 109.558C209.055 109.558 208.9 109.536 208.723 109.492C208.146 109.314 207.814 108.849 207.725 108.095C207.592 107.342 207.637 106.322 207.858 105.037C208.035 103.175 208.434 100.493 209.055 96.9909C210.163 90.3416 211.826 81.6976 214.042 71.0587C217.012 56.6962 220.004 43.1316 223.019 30.365C220.004 30.4093 216.258 30.498 211.781 30.631C204.689 30.8083 200.522 30.8969 199.281 30.8969C198.926 30.8969 198.638 30.7861 198.416 30.5645C198.15 30.2985 198.017 29.9882 198.017 29.6336C198.017 29.4119 198.084 29.2124 198.217 29.0351C198.305 28.8135 198.46 28.6583 198.682 28.5697C198.859 28.4367 199.059 28.3702 199.281 28.3702C200.522 28.3702 204.666 28.2594 211.715 28.0377C216.103 27.9491 220.093 27.8604 223.683 27.7718C225.102 21.9204 226.365 16.9556 227.474 12.8773C227.562 12.5227 227.762 12.2567 228.072 12.0794C228.382 11.9021 228.693 11.8578 229.003 11.9464C229.358 12.0351 229.624 12.2346 229.801 12.5449C229.978 12.8552 230.022 13.1876 229.934 13.5423C228.87 17.4875 227.651 22.2085 226.277 27.7053C239.575 27.3506 249.616 27.2177 256.398 27.3063C263.18 27.395 267.436 27.5501 269.165 27.7718C270.938 27.9491 271.98 28.2815 272.29 28.7692ZM251.864 53.1721C252.219 53.0391 252.551 53.0612 252.861 53.2386C253.172 53.3715 253.371 53.6154 253.46 53.97C253.593 54.2803 253.593 54.5906 253.46 54.9009C248.717 64.6975 244.483 69.5958 240.76 69.5958C240.538 69.5958 240.294 69.5737 240.028 69.5293C237.058 68.9531 235.219 64.9635 234.509 57.5606C232.337 60.4863 230.409 62.88 228.724 64.7418C227.217 66.3377 225.932 66.8918 224.868 66.4042C223.804 66.0052 223.294 64.8527 223.339 62.9465C223.339 61.3507 223.693 59.4446 224.402 57.2281C225.112 55.0117 226.153 52.8618 227.528 50.7783C228.902 48.6949 230.387 47.3872 231.983 46.8552C234.332 46.013 236.504 46.7887 238.499 49.1825C238.721 49.4485 238.809 49.7588 238.765 50.1134C238.765 50.468 238.632 50.7562 238.366 50.9778C238.1 51.1994 237.79 51.3103 237.435 51.3103C237.08 51.2659 236.792 51.1108 236.571 50.8448C235.019 48.983 233.445 48.6284 231.85 49.7809C230.032 51.0665 228.503 53.3937 227.262 56.7627C226.065 60.0873 225.599 62.4589 225.865 63.8774C226.131 63.6558 226.442 63.3677 226.796 63.013C228.569 61.1069 230.741 58.3807 233.312 54.8344C233.889 54.0365 234.288 53.4824 234.509 53.1721C234.864 52.7288 235.329 52.5958 235.906 52.7731C236.482 52.9061 236.792 53.2829 236.837 53.9035C236.925 56.0756 237.103 58.0039 237.369 59.6884C237.635 61.3729 237.9 62.6584 238.166 63.545C238.432 64.3872 238.743 65.0965 239.097 65.6727C239.452 66.249 239.718 66.6258 239.895 66.8031C240.117 66.9361 240.339 67.0026 240.56 67.0026C241.181 67.1356 241.957 66.8475 242.887 66.1382C243.863 65.3846 245.082 63.9661 246.545 61.8826C248.052 59.7549 249.581 57.073 251.133 53.837C251.31 53.4824 251.554 53.2607 251.864 53.1721ZM269.29 5.6961C270.221 7.07028 269.755 10.3284 267.893 15.4706C266.076 20.5684 263.106 26.3976 258.983 32.9582C258.939 33.0025 258.895 33.0469 258.85 33.0912C256.058 44.262 253.376 55.8983 250.805 68C248.278 80.146 246.66 88.7901 245.951 93.9323C245.995 93.9323 246.039 93.9323 246.084 93.9323C246.438 94.0652 246.704 94.2869 246.882 94.5972C247.015 94.9075 247.015 95.2399 246.882 95.5946C246.616 96.3482 246.416 96.9023 246.283 97.2569C246.106 97.6559 245.862 98.0327 245.552 98.3873C245.242 98.7419 244.909 98.9192 244.554 98.9192C244.421 98.9192 244.266 98.8971 244.089 98.8527C243.468 98.6311 243.136 98.0105 243.092 96.9909C243.047 96.0157 243.358 93.5776 244.023 89.6767C244.82 84.8892 246.017 78.6389 247.613 70.9257C251.292 53.3715 254.95 37.7235 258.584 23.9817C258.895 22.8291 259.227 21.6322 259.582 20.391C259.936 19.1055 260.446 17.5097 261.111 15.6035C261.776 13.6974 262.419 12.0351 263.04 10.6166C263.704 9.15373 264.436 7.8682 265.234 6.75998C266.032 5.60744 266.785 4.98684 267.495 4.89818C268.248 4.76519 268.847 5.03117 269.29 5.6961ZM261.178 24.1811C264.724 17.4875 266.719 12.2346 267.162 8.42231C265.212 11.348 263.217 16.6009 261.178 24.1811ZM283.01 53.2386C283.365 53.1942 283.675 53.2829 283.941 53.5045C284.251 53.7262 284.429 54.0143 284.473 54.3689C284.517 54.7236 284.429 55.0339 284.207 55.2998C282.39 57.6493 280.218 59.4889 277.691 60.8188C275.164 62.1486 272.792 62.5697 270.576 62.0821C269.955 63.5893 269.091 64.7862 267.983 65.6727C266.875 66.515 265.722 66.9361 264.525 66.9361H264.459C263.262 66.8918 262.198 66.4928 261.267 65.7392C260.38 64.9413 259.76 63.8553 259.405 62.4811C258.829 60.309 258.94 58.2477 259.738 56.2972C260.491 54.3024 261.6 52.8396 263.062 51.9087C263.373 51.6871 263.727 51.6427 264.126 51.7757C264.525 50.8005 265.079 50.0469 265.789 49.515C266.542 48.983 267.318 48.7835 268.116 48.9165C268.559 49.0052 268.958 49.2047 269.313 49.515C269.712 49.7809 270.088 50.2242 270.443 50.8448C270.842 51.4654 271.13 52.4185 271.307 53.704C271.485 54.9895 271.529 56.5189 271.44 58.292C271.396 58.7353 271.33 59.1786 271.241 59.6219C272.925 59.9765 274.787 59.5554 276.826 58.3585C278.91 57.1616 280.683 55.6101 282.146 53.704C282.367 53.438 282.656 53.2829 283.01 53.2386ZM264.525 64.3429C265.146 64.3429 265.789 64.0548 266.454 63.4785C267.163 62.9022 267.739 62.1265 268.182 61.1512C265.301 59.5554 263.794 57.3833 263.661 54.6349C262.774 55.4772 262.154 56.6075 261.799 58.0261C261.489 59.4446 261.511 60.6858 261.865 61.7497C262.353 63.4785 263.24 64.3429 264.525 64.3429ZM268.847 58.159C268.936 57.0952 268.936 56.1864 268.847 55.4328C268.803 54.6349 268.736 53.9921 268.648 53.5045C268.559 53.0169 268.448 52.618 268.315 52.3077C268.182 51.9974 268.049 51.7757 267.916 51.6427C267.828 51.5097 267.761 51.4433 267.717 51.4433H267.65C267.473 51.4433 267.251 51.5984 266.985 51.9087C266.719 52.1747 266.52 52.5515 266.387 53.0391C266.121 53.97 266.165 54.9231 266.52 55.8983C266.875 56.8735 267.65 57.7601 268.847 58.558C268.847 58.425 268.847 58.292 268.847 58.159ZM310.825 52.7066C311.18 52.7953 311.446 52.9948 311.623 53.3051C311.845 53.571 311.911 53.8813 311.822 54.236C311.778 54.5906 311.601 54.8566 311.291 55.0339C303.311 60.2203 297.039 64.764 292.473 68.6649C289.68 85.5098 286.422 98.3208 282.699 107.098C278.975 115.875 275.34 120.751 271.794 121.726C271.306 121.859 270.841 121.926 270.397 121.926C268.979 121.926 267.76 121.305 266.74 120.064C264.834 117.67 264.147 113.836 264.679 108.561C265.3 102.887 267.228 97.0796 270.464 91.1396C275.207 82.5841 281.745 74.6493 290.079 67.3351C290.7 63.5671 291.276 59.6219 291.808 55.4993C290.39 57.6271 289.082 59.4889 287.885 61.0847C286.023 63.5228 284.427 64.5424 283.098 64.1434C282.034 63.8331 281.413 62.8579 281.236 61.2177C281.103 59.6662 281.324 57.6714 281.901 55.2334C282.521 52.7509 283.519 50.3129 284.893 47.9191C286.267 45.5254 287.774 43.9295 289.414 43.1316C291.675 41.9791 293.869 42.3559 295.997 44.262C296.263 44.528 296.396 44.8383 296.396 45.1929C296.44 45.5032 296.33 45.7914 296.064 46.0573C295.842 46.3233 295.554 46.4784 295.199 46.5228C294.845 46.5228 294.534 46.412 294.268 46.1903C292.672 44.7275 291.055 44.7275 289.414 46.1903C287.553 47.8748 286.068 50.5567 284.959 54.236C283.851 57.8709 283.496 60.309 283.895 61.5502C284.383 61.2399 285.026 60.575 285.824 59.5554C288.661 55.8318 290.944 52.4406 292.672 49.382C293.027 48.8057 293.537 48.6284 294.202 48.85C294.867 49.0273 295.155 49.4706 295.066 50.1799C294.446 55.2777 293.781 60.1538 293.071 64.8083C297.194 61.4394 302.802 57.4719 309.894 52.9061C310.204 52.6845 310.515 52.618 310.825 52.7066ZM271.062 119.266C272.259 118.956 273.567 117.892 274.985 116.074C276.36 114.257 277.867 111.597 279.507 108.095C281.147 104.593 282.832 99.6728 284.56 93.3338C286.334 86.9948 287.951 79.7028 289.414 71.4576C282.41 77.9296 276.847 84.9114 272.725 92.4029C271.395 94.7967 270.309 97.1904 269.466 99.5842C268.58 101.978 267.959 104.15 267.605 106.1C267.25 108.051 267.073 109.846 267.073 111.486C267.073 113.171 267.228 114.589 267.538 115.742C267.848 116.894 268.247 117.803 268.735 118.468C269.4 119.266 270.176 119.532 271.062 119.266ZM331.711 53.2386C332.066 53.1942 332.376 53.2829 332.642 53.5045C332.952 53.7262 333.13 54.0143 333.174 54.3689C333.218 54.7236 333.13 55.0339 332.908 55.2998C331.091 57.6493 328.918 59.4889 326.392 60.8188C323.865 62.1486 321.493 62.5697 319.277 62.0821C318.656 63.5893 317.792 64.7862 316.684 65.6727C315.576 66.515 314.423 66.9361 313.226 66.9361H313.16C311.963 66.8918 310.899 66.4928 309.968 65.7392C309.081 64.9413 308.461 63.8553 308.106 62.4811C307.53 60.309 307.641 58.2477 308.439 56.2972C309.192 54.3024 310.3 52.8396 311.763 51.9087C312.074 51.6871 312.428 51.6427 312.827 51.7757C313.226 50.8005 313.78 50.0469 314.489 49.515C315.243 48.983 316.019 48.7835 316.817 48.9165C317.26 49.0052 317.659 49.2047 318.014 49.515C318.413 49.7809 318.789 50.2242 319.144 50.8448C319.543 51.4654 319.831 52.4185 320.008 53.704C320.186 54.9895 320.23 56.5189 320.141 58.292C320.097 58.7353 320.031 59.1786 319.942 59.6219C321.626 59.9765 323.488 59.5554 325.527 58.3585C327.611 57.1616 329.384 55.6101 330.847 53.704C331.068 53.438 331.357 53.2829 331.711 53.2386ZM313.226 64.3429C313.847 64.3429 314.489 64.0548 315.154 63.4785C315.864 62.9022 316.44 62.1265 316.883 61.1512C314.002 59.5554 312.495 57.3833 312.362 54.6349C311.475 55.4772 310.855 56.6075 310.5 58.0261C310.19 59.4446 310.212 60.6858 310.566 61.7497C311.054 63.4785 311.941 64.3429 313.226 64.3429ZM317.548 58.159C317.637 57.0952 317.637 56.1864 317.548 55.4328C317.504 54.6349 317.437 53.9921 317.349 53.5045C317.26 53.0169 317.149 52.618 317.016 52.3077C316.883 51.9974 316.75 51.7757 316.617 51.6427C316.529 51.5097 316.462 51.4433 316.418 51.4433H316.351C316.174 51.4433 315.952 51.5984 315.686 51.9087C315.42 52.1747 315.221 52.5515 315.088 53.0391C314.822 53.97 314.866 54.9231 315.221 55.8983C315.576 56.8735 316.351 57.7601 317.548 58.558C317.548 58.425 317.548 58.292 317.548 58.159Z" fill="#F2D48B"/>
<path d="M40.208 15.359V15.807L36.176 16.255C35.28 16.367 34.6827 16.591 34.384 16.927C34.0853 17.263 33.936 17.879 33.936 18.775V54.895H33.376L8.232 19.223H8.008V50.583C8.008 51.479 8.12 52.1137 8.344 52.487C8.568 52.823 9.016 53.0284 9.688 53.103L13.664 53.551V53.999H1.4V53.551L5.432 53.103C6.104 53.0284 6.552 52.823 6.776 52.487C7 52.1137 7.112 51.479 7.112 50.583V17.991L6.888 17.655C6.36533 16.9084 5.86133 16.423 5.376 16.199C4.928 15.9377 4.256 15.807 3.36 15.807H2.408V15.359H10.752L32.816 46.271H33.04V18.775C33.04 17.879 32.928 17.2444 32.704 16.871C32.48 16.4977 32.032 16.2924 31.36 16.255L26.824 15.807V15.359H40.208ZM62.5135 51.199V51.479L56.4095 54.279H56.0735V50.471L55.9055 50.415C53.7028 53.1777 51.3322 54.559 48.7935 54.559C47.6362 54.559 46.6095 54.3164 45.7135 53.831C44.8175 53.3457 44.1642 52.6737 43.7535 51.815C43.4922 51.3297 43.3242 50.6764 43.2495 49.855C43.1748 48.9964 43.1375 47.5217 43.1375 45.431V31.151L39.7775 30.703V30.255H46.7775V45.431C46.7775 46.9244 46.8148 48.0257 46.8895 48.735C46.9642 49.407 47.1135 49.9857 47.3375 50.471C47.5988 51.0684 48.0282 51.5537 48.6255 51.927C49.2602 52.263 49.9695 52.431 50.7535 52.431C51.6868 52.431 52.5828 52.207 53.4415 51.759C54.3002 51.2737 55.0842 50.583 55.7935 49.687V31.151L52.4335 30.703V30.255H59.4335V50.527L62.5135 51.199ZM84.9896 47.615L85.2136 47.727L84.9896 48.343C84.243 50.3217 83.123 51.8524 81.6296 52.935C80.1736 54.0177 78.419 54.559 76.3656 54.559C74.3496 54.559 72.5576 54.0364 70.9896 52.991C69.4216 51.9457 68.1896 50.4897 67.2936 48.623C66.435 46.7564 66.0056 44.6097 66.0056 42.183C66.0056 39.7564 66.4723 37.591 67.4056 35.687C68.339 33.783 69.6643 32.3084 71.3816 31.263C73.099 30.2177 75.059 29.695 77.2616 29.695C79.875 29.695 81.8723 30.479 83.2536 32.047C84.6723 33.5777 85.4003 35.8177 85.4376 38.767L85.1016 39.047H69.9816C69.907 40.0177 69.8696 40.783 69.8696 41.343C69.8696 44.7404 70.5603 47.335 71.9416 49.127C73.323 50.8817 75.2456 51.759 77.7096 51.759C78.979 51.759 80.1923 51.479 81.3496 50.919C82.5443 50.3217 83.5896 49.4444 84.4856 48.287L84.9896 47.615ZM76.6456 30.311C74.891 30.311 73.435 31.039 72.2776 32.495C71.1203 33.951 70.3736 35.9297 70.0376 38.431L80.9016 38.039C81.0136 37.591 81.0696 36.8444 81.0696 35.799C81.0696 33.783 80.6776 32.3644 79.8936 31.543C79.147 30.7217 78.0643 30.311 76.6456 30.311ZM98.3653 29.695C95.752 29.695 93.7173 30.2737 92.2613 31.431C90.8427 32.5884 90.1333 34.2124 90.1333 36.303C90.1333 37.6097 90.3947 38.6924 90.9173 39.551C91.44 40.4097 92.0747 41.1004 92.8213 41.623C93.6053 42.1084 94.632 42.6684 95.9013 43.303C97.6187 44.1244 98.9067 44.927 99.7653 45.711C100.624 46.495 101.053 47.6524 101.053 49.183C101.053 50.6017 100.643 51.759 99.8213 52.655C99 53.5137 97.8987 53.943 96.5173 53.943C94.9867 53.943 93.736 53.327 92.7653 52.095C91.832 50.8257 91.1787 48.8844 90.8053 46.271H90.1333L90.4133 53.551C91.1973 53.8497 92.1493 54.0924 93.2693 54.279C94.3893 54.4657 95.3973 54.559 96.2933 54.559C98.7573 54.559 100.717 53.9057 102.173 52.599C103.629 51.255 104.357 49.4444 104.357 47.167C104.357 45.7857 104.077 44.647 103.517 43.751C102.995 42.855 102.341 42.1644 101.557 41.679C100.811 41.1564 99.784 40.5964 98.4773 39.999C96.7973 39.215 95.5467 38.4684 94.7253 37.759C93.904 37.0124 93.4933 35.9297 93.4933 34.511C93.4933 33.2417 93.8667 32.2337 94.6133 31.487C95.36 30.703 96.3493 30.311 97.5813 30.311C98.9253 30.311 99.9893 30.815 100.773 31.823C101.595 32.831 102.267 34.455 102.789 36.695H103.405V30.479C102.808 30.255 102.043 30.0684 101.109 29.919C100.176 29.7697 99.2613 29.695 98.3653 29.695ZM108.039 30.815L108.151 31.095H110.783V49.015C110.783 50.1724 110.914 51.1057 111.175 51.815C111.437 52.5244 111.885 53.103 112.519 53.551C113.453 54.223 114.517 54.559 115.711 54.559C116.869 54.559 117.951 54.223 118.959 53.551C120.005 52.879 120.807 51.9644 121.367 50.807L121.143 50.639C120.471 51.311 119.855 51.7964 119.295 52.095C118.735 52.3937 118.157 52.543 117.559 52.543C116.327 52.543 115.487 52.095 115.039 51.199C114.629 50.5644 114.423 49.5937 114.423 48.287V31.151H120.471L120.807 30.255H114.423V24.935L114.199 24.879L108.039 30.815ZM135.848 29.695C136.594 29.695 137.229 29.9564 137.752 30.479C138.274 30.9644 138.536 31.5617 138.536 32.271C138.536 32.8684 138.33 33.3724 137.92 33.783C137.509 34.1937 137.005 34.399 136.408 34.399C136.034 34.399 135.717 34.3244 135.456 34.175C135.232 33.9884 134.989 33.727 134.728 33.391C134.466 33.0924 134.224 32.8684 134 32.719C133.813 32.5697 133.57 32.495 133.272 32.495C132.674 32.495 132.058 32.8497 131.424 33.559C130.826 34.2684 130.397 35.0897 130.136 36.023V53.103L134.616 53.551V53.999H123.08V53.551L126.496 53.103V33.503L123.192 32.271V31.879L129.52 29.695H129.968V34.623C132.058 31.3377 134.018 29.695 135.848 29.695ZM152.016 29.695C154.181 29.695 156.104 30.2177 157.784 31.263C159.464 32.3084 160.77 33.783 161.704 35.687C162.637 37.5537 163.104 39.7004 163.104 42.127C163.104 44.5537 162.637 46.719 161.704 48.623C160.77 50.4897 159.464 51.9457 157.784 52.991C156.104 54.0364 154.181 54.559 152.016 54.559C149.85 54.559 147.928 54.0364 146.248 52.991C144.568 51.9457 143.261 50.4897 142.328 48.623C141.394 46.719 140.928 44.5537 140.928 42.127C140.928 39.7004 141.394 37.5537 142.328 35.687C143.261 33.783 144.568 32.3084 146.248 31.263C147.928 30.2177 149.85 29.695 152.016 29.695ZM145.072 42.127C145.072 45.8604 145.688 48.7724 146.92 50.863C148.152 52.9537 149.85 53.999 152.016 53.999C154.181 53.999 155.88 52.9537 157.112 50.863C158.344 48.7724 158.96 45.8604 158.96 42.127C158.96 38.3937 158.344 35.4817 157.112 33.391C155.88 31.3004 154.181 30.255 152.016 30.255C149.85 30.255 148.152 31.3004 146.92 33.391C145.688 35.4817 145.072 38.3937 145.072 42.127Z" fill="black"/>
</svg>
