<svg width="723" height="201" viewBox="0 0 723 201" fill="none" xmlns="http://www.w3.org/2000/svg">
<path d="M189.702 3.1553C190.249 3.1553 190.692 3.36016 191.034 3.76987C191.444 4.11131 191.648 4.55517 191.648 5.10146C191.648 5.44289 191.546 5.78433 191.341 6.12576C191.205 6.3989 190.966 6.63791 190.624 6.84277C190.351 6.97934 190.044 7.04763 189.702 7.04763C181.849 7.1842 172.46 8.07192 161.534 9.7108C150.608 11.2814 140.058 13.33 129.883 15.8566C128.518 21.5927 125.923 31.6991 122.099 46.1758C119.094 57.6479 116.875 66.3203 115.441 72.1929C125.001 69.6663 134.254 67.5153 143.199 65.7399C152.213 63.8961 157.949 63.0426 160.407 63.1791C160.954 63.2474 161.398 63.4864 161.739 63.8961C162.08 64.2376 162.217 64.6814 162.149 65.2277C162.149 65.774 161.944 66.252 161.534 66.6617C161.193 67.0032 160.749 67.1739 160.202 67.1739C158.837 67.0373 156.242 67.3105 152.418 67.9933C148.594 68.6079 143.984 69.4956 138.59 70.6565C133.263 71.8174 127.664 73.1148 121.791 74.5488C119.196 75.2317 116.704 75.8804 114.314 76.495C107.758 102.99 104.378 121.154 104.173 130.988C104.105 135.699 104.959 138.431 106.734 139.182C107.758 139.66 109.09 139.592 110.729 138.977C112.436 138.431 114.416 137.372 116.67 135.802C118.923 134.231 121.04 132.661 123.02 131.09C125.001 129.588 127.391 127.539 130.191 124.944C132.99 122.349 135.107 120.335 136.541 118.901C138.044 117.535 140.024 115.657 142.482 113.267C143.916 111.833 144.975 110.775 145.657 110.092L147.399 108.453C150.062 105.858 151.906 104.117 152.93 103.229C153.613 102.615 154.125 102.171 154.466 101.898C154.808 101.624 155.218 101.351 155.696 101.078C156.242 100.737 156.72 100.6 157.13 100.668C157.539 100.668 157.915 100.839 158.256 101.181C158.734 101.522 159.007 101.898 159.076 102.307C159.144 102.785 158.939 103.434 158.461 104.253C158.051 105.073 157.608 105.824 157.13 106.507C156.652 107.19 155.798 108.351 154.569 109.99C154.227 110.468 153.784 110.741 153.237 110.809C152.691 110.877 152.213 110.741 151.803 110.399C151.667 110.331 151.53 110.229 151.394 110.092C151.257 110.229 150.847 110.638 150.164 111.321L148.423 112.96C147.74 113.643 146.682 114.667 145.248 116.033C141.697 119.515 138.692 122.418 136.234 124.739C133.776 127.061 131.044 129.485 128.04 132.012C125.103 134.607 122.542 136.655 120.357 138.158C118.172 139.66 115.987 140.889 113.802 141.845C111.617 142.869 109.705 143.382 108.066 143.382C106.973 143.382 106.017 143.177 105.198 142.767C101.783 141.333 100.145 137.407 100.281 130.988C100.418 120.95 103.627 103.195 109.909 77.7241C96.1156 81.6165 88.331 84.4162 86.5555 86.1234C86.2141 86.4648 85.7702 86.6355 85.2239 86.6355C84.6776 86.6355 84.1996 86.4648 83.7899 86.1234C83.4485 85.7137 83.2778 85.2357 83.2778 84.6894C83.2778 84.1431 83.4826 83.6651 83.8923 83.2554C86.2824 80.9336 95.3303 77.6217 111.036 73.3197C112.607 67.0373 115.031 57.6479 118.309 45.1515C121.791 31.9039 124.216 22.5145 125.581 16.9833C119.299 18.6222 113.768 20.3293 108.988 22.1048C104.276 23.8802 100.315 25.7581 97.1058 27.7384C93.8963 29.7187 92.0184 31.6308 91.4721 33.4745C90.9258 35.1817 92.0526 36.9913 94.8523 38.9033C95.262 39.2447 95.501 39.6886 95.5693 40.2349C95.7059 40.7129 95.6376 41.1909 95.3645 41.6689C94.9547 42.2152 94.4085 42.4883 93.7256 42.4883C93.3159 42.4883 92.9403 42.3859 92.5989 42.181C88.2285 39.1764 86.5896 35.8987 87.6822 32.3478C89.7991 25.3143 102.774 18.7246 126.606 12.5788C127.015 10.8717 127.357 9.40351 127.63 8.17435C127.698 7.62806 127.971 7.21834 128.449 6.9452C128.927 6.67205 129.405 6.60376 129.883 6.74033C130.43 6.80862 130.839 7.08177 131.112 7.55977C131.454 7.96949 131.556 8.4475 131.42 8.99379C131.283 9.67665 131.112 10.5302 130.908 11.5545C140.946 9.09622 151.325 7.11591 162.046 5.61361C172.767 4.04302 181.986 3.22358 189.702 3.1553ZM216.913 79.2606C217.46 79.1923 217.938 79.3289 218.347 79.6703C218.825 80.0117 219.064 80.4556 219.064 81.0019C219.133 81.5482 218.996 82.0262 218.655 82.4359C216.06 85.4405 213.089 87.6257 209.743 88.9914C206.397 90.2889 203.222 90.5279 200.217 89.7084C196.735 88.8207 194.037 86.6697 192.125 83.2554C190.418 89.1963 187.823 95.0348 184.341 100.771C182.019 104.663 179.663 107.873 177.273 110.399C174.883 112.994 172.732 114.599 170.82 115.213C170.137 115.418 169.488 115.521 168.874 115.521C167.645 115.521 166.62 115.111 165.801 114.292C161.84 110.263 163.821 96.4005 171.742 72.7051C171.878 72.2271 172.186 71.8857 172.664 71.6808C173.21 71.4076 173.722 71.3735 174.2 71.5784C174.746 71.7149 175.122 72.0222 175.327 72.5002C175.6 72.9782 175.634 73.4904 175.429 74.0367C173.449 80.0459 171.844 85.4405 170.615 90.2206C169.386 94.9323 168.567 98.5515 168.157 101.078C167.815 103.536 167.679 105.619 167.747 107.326C167.815 109.034 167.918 110.092 168.054 110.502C168.191 110.98 168.362 111.287 168.567 111.424C168.771 111.628 169.113 111.628 169.591 111.424C171.503 110.809 173.893 108.658 176.761 104.97C179.629 101.283 182.326 96.7419 184.853 91.3473C187.379 85.8844 188.984 80.7288 189.667 75.8804C189.735 75.4024 189.94 75.0268 190.282 74.7537C190.691 74.4123 191.135 74.2074 191.613 74.1391C192.706 74.1391 193.355 74.6854 193.559 75.778C194.652 81.5141 197.213 84.8942 201.242 85.9185C203.495 86.5331 205.919 86.2941 208.514 85.2015C211.177 84.1089 213.533 82.3335 215.582 79.8752C215.991 79.4655 216.435 79.2606 216.913 79.2606ZM248.429 78.8509C248.975 78.7143 249.453 78.8167 249.863 79.1582C250.341 79.4313 250.614 79.841 250.682 80.3873C250.751 80.9336 250.648 81.4116 250.375 81.8213C242.659 92.6106 235.625 100.259 229.275 104.766C226.748 106.541 224.255 107.429 221.797 107.429C219.885 107.429 218.212 106.917 216.778 105.892C215.959 105.278 215.242 104.458 214.627 103.434C213.944 102.41 213.364 100.976 212.886 99.132C212.408 97.2882 212.339 94.8641 212.681 91.8595C212.954 88.8548 213.705 85.4405 214.934 81.6165V81.5141C216.846 75.3 219.168 70.3834 221.9 66.7642C224.631 63.145 227.089 61.3012 229.275 61.233C230.845 61.1647 231.869 61.8475 232.347 63.2816C233.099 65.2619 232.211 68.0616 229.684 71.6808C227.158 75.3 223.436 79.1923 218.519 83.3578C217.7 86.021 217.12 88.4793 216.778 90.7327C216.437 92.9862 216.3 94.7958 216.368 96.1615C216.505 97.4589 216.744 98.6198 217.085 99.6441C217.495 100.6 217.837 101.283 218.11 101.693C218.451 102.102 218.793 102.444 219.134 102.717C221.183 104.219 223.812 103.81 227.021 101.488C233.03 97.2541 239.722 89.9474 247.097 79.5679C247.439 79.1582 247.883 78.9192 248.429 78.8509ZM228.558 65.535C226.168 67.0373 223.812 70.2809 221.49 75.2658C225.45 71.3052 227.806 68.0616 228.558 65.535ZM284.793 78.9533C285.339 78.8167 285.852 78.885 286.33 79.1582C286.808 79.4313 287.115 79.841 287.251 80.3873C287.388 80.8653 287.32 81.3433 287.047 81.8213C284.725 85.9185 282.71 89.1621 281.003 91.5522C279.296 93.9422 277.555 95.8201 275.779 97.1858C274.004 98.5515 272.262 99.132 270.555 98.9271C267.141 98.5174 264.444 94.8299 262.463 87.8647C261.029 83.1529 259.8 80.797 258.776 80.797C258.571 80.7288 258.264 80.8312 257.854 81.1043C257.513 81.3092 256.932 81.9238 256.113 82.9481C255.293 83.9041 254.371 85.2357 253.347 86.9428C252.391 88.65 251.094 91.1766 249.455 94.5226C247.884 97.8687 246.177 101.829 244.333 106.404C243.992 107.224 243.377 107.634 242.49 107.634C242.353 107.634 242.216 107.599 242.08 107.531C240.919 107.258 240.407 106.541 240.543 105.38C241.226 99.7807 243.787 89.367 248.226 74.1391C248.704 72.5685 249.045 71.3735 249.25 70.5541C249.455 70.0078 249.796 69.6322 250.274 69.4273C250.752 69.1542 251.23 69.0859 251.708 69.2225C252.255 69.3591 252.664 69.6663 252.937 70.1443C253.211 70.6224 253.245 71.1345 253.04 71.6808C252.903 72.1588 252.562 73.3538 252.016 75.2658C250.513 80.5239 249.352 84.6211 248.533 87.5574C250.718 83.4602 252.63 80.6263 254.269 79.0557C255.908 77.4851 257.478 76.734 258.981 76.8023C260.756 76.8706 262.156 77.7924 263.18 79.5679C264.273 81.3433 265.297 83.7675 266.253 86.8404C267.756 92.0985 269.36 94.8299 271.067 95.0348C271.887 95.1714 272.877 94.7275 274.038 93.7032C275.267 92.6106 276.565 91.0742 277.93 89.0939C279.296 87.0453 280.32 85.4405 281.003 84.2797C281.754 83.1188 282.608 81.6506 283.564 79.8752C283.837 79.3972 284.247 79.0899 284.793 78.9533ZM368.112 41.5664C368.453 41.9762 368.59 42.4542 368.521 43.0005C368.453 43.5468 368.18 43.9906 367.702 44.3321C366.883 44.8783 366.097 44.8442 365.346 44.2296C362.068 43.0688 339.056 42.9663 296.308 43.9223C291.87 62.5645 287.363 82.7774 282.788 104.561C277.325 130.851 274.013 148.913 272.852 158.746C272.989 158.746 273.125 158.78 273.262 158.849C273.808 158.985 274.184 159.292 274.388 159.77C274.593 160.317 274.593 160.829 274.388 161.307C274.047 162.399 273.774 163.185 273.569 163.663C273.296 164.209 272.92 164.721 272.442 165.199C271.964 165.745 271.452 166.019 270.906 166.019C270.701 166.019 270.462 165.984 270.189 165.916C269.301 165.643 268.789 164.926 268.652 163.765C268.448 162.604 268.516 161.034 268.857 159.053C269.13 156.185 269.745 152.054 270.701 146.659C272.408 136.416 274.969 123.101 278.383 106.712C282.958 84.5869 287.568 63.6913 292.211 44.0248C287.568 44.0931 281.798 44.2296 274.901 44.4345C263.975 44.7076 257.556 44.8442 255.644 44.8442C255.098 44.8442 254.654 44.6735 254.312 44.3321C253.903 43.9223 253.698 43.4443 253.698 42.898C253.698 42.5566 253.8 42.2493 254.005 41.9762C254.142 41.6347 254.381 41.3957 254.722 41.2592C254.995 41.0543 255.302 40.9519 255.644 40.9519C257.556 40.9519 263.941 40.7812 274.798 40.4397C281.559 40.3031 287.704 40.1666 293.236 40.03C295.421 31.0162 297.367 23.3681 299.074 17.0857C299.211 16.5395 299.518 16.1297 299.996 15.8566C300.474 15.5834 300.952 15.5152 301.43 15.6517C301.976 15.7883 302.386 16.0956 302.659 16.5736C302.932 17.0516 303 17.5637 302.864 18.11C301.225 24.1875 299.347 31.4601 297.23 39.9276C317.716 39.3813 333.183 39.1764 343.631 39.313C354.079 39.4496 360.634 39.6886 363.297 40.03C366.029 40.3032 367.634 40.8153 368.112 41.5664ZM330.91 79.2606C331.457 79.1923 331.935 79.3289 332.344 79.6703C332.822 80.0117 333.096 80.4556 333.164 81.0019C333.232 81.5482 333.096 82.0262 332.754 82.4359C329.954 86.0551 326.608 88.889 322.716 90.9376C318.824 92.9862 315.17 93.6349 311.756 92.8838C310.8 95.2055 309.468 97.0492 307.761 98.415C306.054 99.7124 304.279 100.361 302.435 100.361H302.333C300.489 100.293 298.85 99.6783 297.416 98.5174C296.05 97.2882 295.094 95.6152 294.548 93.4983C293.66 90.1523 293.831 86.977 295.06 83.9724C296.221 80.8995 297.928 78.646 300.182 77.212C300.66 76.8706 301.206 76.8023 301.82 77.0071C302.435 75.5048 303.289 74.344 304.381 73.5245C305.542 72.7051 306.737 72.3978 307.966 72.6027C308.649 72.7392 309.264 73.0465 309.81 73.5245C310.425 73.9342 311.005 74.6171 311.551 75.5731C312.166 76.5291 312.61 77.9973 312.883 79.9776C313.156 81.9579 313.224 84.3138 313.088 87.0453C313.019 87.7281 312.917 88.411 312.78 89.0939C315.375 89.6401 318.243 88.9914 321.384 87.1477C324.594 85.304 327.325 82.9139 329.579 79.9776C329.92 79.5679 330.364 79.3289 330.91 79.2606ZM302.435 96.3664C303.391 96.3664 304.381 95.9225 305.405 95.0348C306.498 94.1471 307.386 92.952 308.069 91.4497C303.63 88.9914 301.308 85.6454 301.103 81.4116C299.738 82.7091 298.782 84.4504 298.235 86.6355C297.757 88.8207 297.792 90.7327 298.338 92.3716C299.089 95.0348 300.455 96.3664 302.435 96.3664ZM309.093 86.8404C309.229 85.2015 309.229 83.8016 309.093 82.6408C309.025 81.4116 308.922 80.4215 308.786 79.6703C308.649 78.9192 308.478 78.3046 308.273 77.8266C308.069 77.3486 307.864 77.0071 307.659 76.8023C307.522 76.5974 307.42 76.495 307.352 76.495H307.249C306.976 76.495 306.635 76.734 306.225 77.212C305.815 77.6217 305.508 78.2022 305.303 78.9533C304.893 80.3873 304.962 81.8555 305.508 83.3578C306.054 84.8601 307.249 86.2258 309.093 87.455C309.093 87.2501 309.093 87.0453 309.093 86.8404ZM372.222 78.0314C372.768 77.9632 373.246 78.1339 373.656 78.5436C374.065 78.885 374.304 79.3289 374.373 79.8752C374.441 80.4215 374.27 80.8995 373.861 81.3092C360.613 96.7419 353.033 105.653 351.121 108.043C349.96 109.546 348.834 111.014 347.741 112.448C348.697 116.34 348.765 120.096 347.946 123.715C347.126 127.334 345.965 130.441 344.463 133.036C342.961 135.631 341.185 137.748 339.137 139.387C337.225 141.026 335.449 141.845 333.81 141.845C332.786 141.845 331.933 141.504 331.25 140.821C327.631 137.338 331.694 127.607 343.439 111.628C342.688 109.034 341.493 106.507 339.854 104.049C336.44 98.9271 333.913 94.6592 332.274 91.2449C330.635 87.8306 329.884 84.7235 330.021 81.9238C330.157 79.1923 330.874 76.734 332.172 74.5488C333.537 72.3637 335.347 70.5882 337.6 69.2225C339.512 68.0616 341.527 67.3787 343.644 67.1739C345.761 66.969 347.707 67.2763 349.482 68.0958C349.96 68.3689 350.268 68.7786 350.404 69.3249C350.609 69.8029 350.575 70.2809 350.302 70.7589C350.097 71.2369 349.721 71.5784 349.175 71.7832C348.697 71.9198 348.219 71.8857 347.741 71.6808C345.283 70.5199 342.585 70.8272 339.649 72.6027C336.098 74.7195 334.22 77.8949 334.015 82.1286C333.879 84.3821 334.596 87.0794 336.166 90.2206C337.737 93.2935 340.059 97.1517 343.132 101.795C344.429 103.775 345.487 105.79 346.307 107.838C346.853 107.156 347.434 106.404 348.048 105.585C349.96 103.195 357.574 94.2495 370.89 78.7484C371.231 78.3387 371.675 78.0997 372.222 78.0314ZM340.366 132.114C343.371 127.539 344.702 122.52 344.361 117.057C341.493 121.154 339.171 124.808 337.396 128.017C335.688 131.227 334.63 133.514 334.22 134.88C333.879 136.314 333.776 137.304 333.913 137.85C334.528 137.782 335.449 137.236 336.679 136.212C337.908 135.256 339.137 133.89 340.366 132.114ZM490.831 75.4707C491.378 75.6756 491.753 76.017 491.958 76.495C492.231 76.973 492.265 77.4851 492.06 78.0314C491.856 78.5094 491.514 78.8509 491.036 79.0557C487.554 80.6263 480.896 82.0603 471.062 83.3578C468.467 94.8982 465.907 107.838 463.38 122.179C460.854 136.519 459.215 147.24 458.463 154.342C459.01 154.068 459.556 154.034 460.102 154.239C460.444 154.376 460.717 154.581 460.922 154.854C461.195 155.127 461.332 155.4 461.332 155.673C461.4 156.015 461.4 156.39 461.332 156.8C460.444 159.19 459.693 160.897 459.078 161.921C458.463 163.014 457.712 163.56 456.825 163.56C456.62 163.56 456.381 163.526 456.108 163.458C455.083 163.116 454.469 162.195 454.264 160.692C454.127 159.19 454.298 156.288 454.776 151.986C455.391 146.591 456.449 139.353 457.951 130.271C459.932 118.457 462.185 106.541 464.712 94.5226C455.971 110.502 447.299 122.452 438.695 130.373C430.159 138.294 422.75 141.094 416.467 138.772C410.595 136.587 407.146 130.373 406.122 120.13C405.098 109.955 406.668 97.1858 410.834 81.8213C413.975 70.2809 419.301 57.1699 426.813 42.4883C434.393 27.7384 441.972 16.3346 449.552 8.27678C452.693 4.93074 455.8 2.71143 458.873 1.61885C462.014 0.526266 464.78 0.628694 467.17 1.92614C468.194 2.54072 469.116 3.3943 469.936 4.48688C470.823 5.51118 471.643 7.1842 472.394 9.50594C473.145 11.8277 473.555 14.5933 473.623 17.8028C473.76 21.0122 473.452 25.246 472.701 30.504C472.018 35.7621 470.789 41.6347 469.014 48.122C468.877 48.6682 468.57 49.078 468.092 49.3511C467.614 49.6243 467.102 49.6925 466.555 49.556C466.077 49.4194 465.702 49.1121 465.429 48.6341C465.156 48.1561 465.087 47.644 465.224 47.0977C467.477 38.6984 468.843 31.3918 469.321 25.1777C469.867 18.8953 469.731 14.2518 468.911 11.2472C468.16 8.24264 466.931 6.29647 465.224 5.40875C463.722 4.52103 461.81 4.58931 459.488 5.61361C457.234 6.63791 454.878 8.41335 452.42 10.94C445.045 18.7929 437.67 29.9236 430.295 44.3321C422.92 58.6722 417.696 71.5101 414.624 82.8456C410.526 97.937 408.99 110.297 410.014 119.925C410.902 128.461 413.531 133.514 417.901 135.085C419.13 135.563 420.53 135.699 422.101 135.495C423.672 135.29 425.31 134.778 427.018 133.958C428.793 133.139 430.637 131.978 432.549 130.475C434.529 128.973 436.544 127.198 438.592 125.149C447.606 115.999 456.654 102.273 465.736 83.9724C462.936 84.2455 458.566 84.6894 452.625 85.304C442.519 86.3282 435.075 87.1818 430.295 87.8647C430.227 87.8647 430.159 87.8647 430.09 87.8647C429.612 87.8647 429.169 87.694 428.759 87.3525C428.417 87.0111 428.213 86.6014 428.144 86.1234C428.076 85.782 428.11 85.4405 428.247 85.0991C428.383 84.7577 428.588 84.4845 428.861 84.2797C429.134 84.0748 429.442 83.9382 429.783 83.8699C434.632 83.2554 442.109 82.4359 452.215 81.4116C459.317 80.6605 464.507 80.1142 467.785 79.7727C467.785 79.7045 467.819 79.602 467.887 79.4655C467.955 79.2606 468.024 79.124 468.092 79.0557C468.57 77.9632 469.389 77.6217 470.55 78.0314C471.096 78.2363 471.506 78.646 471.779 79.2606C480.588 78.0997 486.461 76.8364 489.397 75.4707C489.875 75.2658 490.353 75.2658 490.831 75.4707ZM537.105 79.1582C537.651 78.9533 538.163 78.9875 538.641 79.2606C539.119 79.4655 539.426 79.841 539.563 80.3873C539.768 80.8653 539.768 81.3433 539.563 81.8213C532.256 96.9127 525.735 104.458 519.999 104.458C519.658 104.458 519.282 104.424 518.872 104.356C514.297 103.468 511.463 97.3224 510.371 85.9185C507.025 90.4254 504.054 94.1129 501.459 96.9809C499.137 99.4393 497.157 100.293 495.518 99.5417C493.879 98.9271 493.094 97.1517 493.162 94.2153C493.162 91.757 493.709 88.8207 494.801 85.4064C495.894 81.9921 497.499 78.6802 499.615 75.4707C501.732 72.2612 504.02 70.2468 506.478 69.4273C510.097 68.1299 513.443 69.3249 516.516 73.0124C516.858 73.4221 516.994 73.9001 516.926 74.4464C516.926 74.9927 516.721 75.4366 516.311 75.778C515.902 76.1194 515.424 76.2901 514.877 76.2901C514.331 76.2218 513.887 75.9828 513.546 75.5731C511.156 72.7051 508.732 72.1588 506.273 73.9342C503.474 75.9146 501.118 79.4996 499.206 84.6894C497.362 89.8109 496.645 93.4642 497.055 95.6494C497.464 95.3079 497.942 94.8641 498.489 94.3178C501.22 91.3814 504.566 87.1818 508.527 81.7189C509.415 80.4898 510.029 79.6362 510.371 79.1582C510.917 78.4753 511.634 78.2704 512.522 78.5436C513.409 78.7484 513.887 79.3289 513.956 80.2849C514.092 83.6309 514.365 86.6014 514.775 89.1963C515.185 91.7912 515.594 93.7715 516.004 95.1372C516.414 96.4347 516.892 97.5272 517.438 98.415C517.984 99.3027 518.394 99.8831 518.667 100.156C519.009 100.361 519.35 100.464 519.692 100.464C520.648 100.668 521.843 100.225 523.277 99.132C524.779 97.9711 526.657 95.7859 528.91 92.5765C531.232 89.2987 533.588 85.1674 535.978 80.1825C536.251 79.6362 536.627 79.2947 537.105 79.1582ZM576.123 78.8509C576.67 78.7143 577.182 78.7826 577.66 79.0557C578.138 79.3289 578.445 79.7386 578.582 80.2849C578.718 80.8312 578.616 81.3092 578.274 81.7189C575.543 86.1575 572.299 90.2547 568.543 94.0105C564.788 97.698 560.93 100.771 556.969 103.229C553.008 105.756 549.423 107.77 546.214 109.273C543.073 110.843 539.897 112.175 536.688 113.267C535.732 113.609 534.981 113.336 534.434 112.448C533.342 115.179 532.386 117.877 531.566 120.54C531.293 121.428 530.644 121.871 529.62 121.871C529.552 121.871 529.449 121.871 529.313 121.871C528.835 121.803 528.459 121.564 528.186 121.154C527.845 120.813 527.674 120.403 527.674 119.925C527.742 118.355 529.415 110.229 532.693 95.5469C535.902 80.8653 539.146 66.5252 542.424 52.5264C542.424 52.3216 542.458 52.1167 542.526 51.9119C543.687 46.9952 544.643 43.0346 545.394 40.03C547.716 30.6065 550.379 22.5828 553.384 15.959C556.457 9.26694 559.086 5.71604 561.271 5.30632C562.432 5.10146 563.32 5.4429 563.934 6.33062C565.436 8.31093 564.583 13.569 561.373 22.1048C558.164 30.6406 553.145 41.0543 546.316 53.3459C542.629 68.8469 539.146 84.1772 535.868 99.3368C537.78 95.3762 539.624 92.1667 541.4 89.7084C546.726 82.2652 550.96 79.0216 554.101 79.9776C556.149 80.5922 557.208 82.4018 557.276 85.4064C557.276 86.8404 557.037 88.4793 556.559 90.323C556.149 92.0985 555.432 94.0788 554.408 96.2639C553.384 98.4491 552.155 100.532 550.721 102.512C561.373 96.2298 569.465 88.6158 574.997 79.6703C575.27 79.1923 575.645 78.9192 576.123 78.8509ZM560.554 10.94C556.866 16.4029 553.384 25.3143 550.106 37.6741C556.047 25.6557 559.53 16.7443 560.554 10.94ZM535.561 109.477C538.019 108.59 540.307 107.258 542.424 105.483C544.609 103.775 546.384 101.898 547.75 99.849C549.184 97.8004 550.311 95.8201 551.13 93.9081C552.018 91.9277 552.633 90.084 552.974 88.3768C553.452 85.9868 553.452 84.4504 552.974 83.7675C552.701 83.7675 552.325 83.9041 551.847 84.1772C551.438 84.3821 550.55 85.1674 549.184 86.5331C547.818 87.8306 546.316 89.6401 544.677 91.9619C541.741 96.0591 538.702 101.898 535.561 109.477ZM621.805 78.646C622.351 78.7143 622.761 78.9875 623.034 79.4655C623.375 79.8752 623.478 80.3532 623.341 80.8995C623.204 81.4458 622.931 81.8555 622.522 82.1286C610.435 89.9816 600.533 97.8004 592.817 105.585C588.788 129.69 584.384 149.254 579.603 164.277C573.936 181.963 568.439 191.558 563.112 193.06C562.634 193.197 562.122 193.265 561.576 193.265C560.005 193.265 558.64 192.582 557.479 191.216C555.567 188.758 554.542 184.695 554.406 179.027C554.201 173.359 555.089 166.667 557.069 158.951C558.981 151.235 561.781 143.791 565.468 136.621C571.955 124.261 579.877 113.267 589.232 103.639C590.256 97.2199 591.28 90.4937 592.305 83.4602C590.188 86.6697 588.208 89.367 586.364 91.5522C583.359 95.2396 580.491 96.2639 577.76 94.6251C575.506 93.2593 574.311 90.4254 574.175 86.1234C574.038 81.7531 575.028 77.0071 577.145 71.8857C577.35 71.4076 577.691 71.0662 578.169 70.8614C578.716 70.6565 579.228 70.6565 579.706 70.8614C580.184 71.0662 580.525 71.4076 580.73 71.8857C581.003 72.3637 581.037 72.8758 580.833 73.4221C578.989 78.407 578.067 82.4701 578.067 85.6112C578.135 88.7524 578.716 90.6303 579.808 91.2449C580.559 91.7229 581.72 91.0059 583.291 89.0939C586.705 84.9967 590.222 79.8069 593.841 73.5245C594.387 72.5685 595.173 72.2954 596.197 72.7051C597.221 73.0465 597.665 73.7294 597.529 74.7537C596.368 83.2895 595.173 91.3814 593.944 99.0295C600.977 92.474 609.786 85.7478 620.371 78.8509C620.78 78.5777 621.258 78.5094 621.805 78.646ZM575.814 163.151C580.184 149.493 584.247 132.046 588.003 110.809C580.628 119.003 574.277 128.222 568.951 138.465C566.014 144.064 563.693 149.766 561.986 155.571C560.21 161.443 559.118 166.565 558.708 170.935C558.298 175.306 558.264 179.061 558.605 182.202C558.947 185.344 559.596 187.495 560.552 188.656C561.03 189.202 561.508 189.407 561.986 189.27C562.327 189.202 562.703 189.031 563.112 188.758C563.522 188.485 564.205 187.768 565.161 186.607C566.117 185.514 567.073 184.08 568.029 182.305C568.985 180.598 570.18 178.071 571.614 174.725C573.048 171.379 574.448 167.521 575.814 163.151Z" fill="#EEC664"/>
<path d="M48.4687 132.438L46.2854 150.777H3.49324V150.079L10.6544 149.38V91.9162L3.49324 91.2176V90.5189H46.3728L47.5954 106.937L46.7221 107.025L41.8316 94.7982C41.3076 93.4591 40.7254 92.5858 40.0849 92.1782C39.5027 91.7707 38.513 91.5669 37.1157 91.5669H17.3789V118.378H30.3039C31.7012 118.378 32.6909 118.145 33.2731 117.679C33.8553 117.213 34.2629 116.311 34.4957 114.972L35.9804 107.898H37.0283V130.255H35.9804L34.4957 123.181C34.2629 121.842 33.8553 120.939 33.2731 120.473C32.6909 120.008 31.7012 119.775 30.3039 119.775H17.3789V149.729H36.941C38.3383 149.729 39.3572 149.526 39.9976 149.118C40.638 148.652 41.2202 147.779 41.7442 146.498L47.5081 132.35L48.4687 132.438ZM105.703 91.6542C106.635 91.7125 107.304 91.8871 107.712 92.1782C108.119 92.4693 108.323 92.906 108.323 93.4882C108.323 94.0122 108.207 94.5653 107.974 95.1475L90.2457 142.481H89.8964L71.3822 91.9162L78.98 91.2176V90.5189H57.1472V91.2176L64.3084 91.9162L86.4031 152.175H87.9751L109.371 95.1475C109.837 93.8084 110.361 92.9351 110.943 92.5276C111.584 92.0618 112.632 91.7707 114.087 91.6542L118.978 91.2176V90.5189H100.376V91.2176L105.703 91.6542ZM169.647 132.438L167.464 150.777H124.672V150.079L131.833 149.38V91.9162L124.672 91.2176V90.5189H167.551L168.774 106.937L167.901 107.025L163.01 94.7982C162.486 93.4591 161.904 92.5858 161.264 92.1782C160.681 91.7707 159.692 91.5669 158.294 91.5669H138.557V118.378H151.482C152.88 118.378 153.87 118.145 154.452 117.679C155.034 117.213 155.441 116.311 155.674 114.972L157.159 107.898H158.207V130.255H157.159L155.674 123.181C155.441 121.842 155.034 120.939 154.452 120.473C153.87 120.008 152.88 119.775 151.482 119.775H138.557V149.729H158.12C159.517 149.729 160.536 149.526 161.176 149.118C161.817 148.652 162.399 147.779 162.923 146.498L168.687 132.35L169.647 132.438ZM242.766 90.5189V91.2176L236.478 91.9162C235.081 92.0909 234.149 92.4402 233.683 92.9642C233.218 93.4882 232.985 94.4488 232.985 95.8461V152.175H232.111L192.9 96.5448H192.551V145.45C192.551 146.847 192.725 147.837 193.075 148.419C193.424 148.943 194.123 149.264 195.17 149.38L201.371 150.079V150.777H182.245V150.079L188.533 149.38C189.581 149.264 190.28 148.943 190.629 148.419C190.979 147.837 191.153 146.847 191.153 145.45V94.6235L190.804 94.0995C189.989 92.9351 189.203 92.1782 188.446 91.8289C187.747 91.4214 186.699 91.2176 185.302 91.2176H183.817V90.5189H196.83L231.238 138.726H231.588V95.8461C231.588 94.4488 231.413 93.4591 231.064 92.8769C230.714 92.2947 230.016 91.9745 228.968 91.9162L221.894 91.2176V90.5189H242.766ZM274.674 149.38L265.243 150.079V150.777H290.831V150.079L281.399 149.38V91.4796H294.149C295.547 91.4796 296.536 91.7125 297.119 92.1782C297.759 92.5858 298.341 93.4591 298.865 94.7982L304.28 108.247L304.978 108.072L303.057 89.1216H302.533C301.252 89.7039 300.146 90.0823 299.214 90.257C298.341 90.4316 297.206 90.5189 295.809 90.5189H262.186C260.789 90.5189 259.624 90.4316 258.693 90.257C257.82 90.0823 256.742 89.7039 255.462 89.1216H254.938L251.532 108.072L252.23 108.247L258.256 94.7982C258.838 93.4591 259.45 92.5858 260.09 92.1782C260.731 91.7125 261.749 91.4796 263.147 91.4796H274.674V149.38ZM344.805 89.1216C349.87 89.1216 354.498 90.5189 358.69 93.3135C362.94 96.1081 366.259 99.9216 368.646 104.754C371.091 109.528 372.314 114.826 372.314 120.648C372.314 126.47 371.091 131.797 368.646 136.63C366.259 141.404 362.94 145.188 358.69 147.983C354.498 150.777 349.87 152.175 344.805 152.175C339.739 152.175 335.082 150.777 330.832 147.983C326.64 145.188 323.321 141.404 320.876 136.63C318.489 131.797 317.295 126.47 317.295 120.648C317.295 114.826 318.489 109.528 320.876 104.754C323.321 99.9216 326.64 96.1081 330.832 93.3135C335.082 90.5189 339.739 89.1216 344.805 89.1216ZM325.679 120.648C325.679 130.371 327.338 137.881 330.657 143.18C333.976 148.419 338.691 151.039 344.805 151.039C350.918 151.039 355.634 148.419 358.952 143.18C362.271 137.881 363.93 130.371 363.93 120.648C363.93 110.925 362.271 103.415 358.952 98.1167C355.634 92.8187 350.918 90.1696 344.805 90.1696C338.691 90.1696 333.976 92.8187 330.657 98.1167C327.338 103.415 325.679 110.925 325.679 120.648ZM406.231 152.175C409.841 152.175 413.072 151.418 415.925 149.904C418.836 148.39 421.106 146.323 422.737 143.704C424.367 141.025 425.182 137.998 425.182 134.621C425.182 131.594 424.512 129.061 423.173 127.023C421.892 124.927 420.175 123.181 418.021 121.783C415.925 120.386 413.13 118.902 409.637 117.33C405.736 115.525 402.709 113.982 400.555 112.701C398.459 111.42 396.799 109.906 395.577 108.16C394.412 106.413 393.83 104.259 393.83 101.697C393.83 98.1459 394.907 95.3513 397.061 93.3135C399.216 91.2176 402.097 90.1696 405.707 90.1696C411.704 90.1696 416.158 93.168 419.069 99.1647C420.524 102.134 421.718 105.569 422.649 109.47L423.523 109.208L422.649 90.1696H421.514L419.418 94.3615C417.031 92.4984 414.79 91.1594 412.694 90.3443C410.656 89.5292 408.443 89.1216 406.056 89.1216C402.621 89.1216 399.536 89.8494 396.799 91.3049C394.121 92.7022 391.996 94.6817 390.424 97.2434C388.91 99.7469 388.154 102.6 388.154 105.802C388.154 108.946 388.852 111.624 390.25 113.836C391.705 115.99 393.51 117.766 395.664 119.164C397.818 120.503 400.496 121.871 403.699 123.268C407.599 124.956 410.627 126.441 412.781 127.722C414.935 129.003 416.623 130.546 417.846 132.35C419.127 134.155 419.767 136.368 419.767 138.988C419.767 142.714 418.574 145.683 416.187 147.895C413.858 150.05 410.598 151.127 406.406 151.127C401.515 151.127 397.585 149.467 394.616 146.149C393.161 144.519 391.967 142.597 391.036 140.385C390.162 138.173 389.289 135.087 388.416 131.128L387.63 131.303L388.765 152.175H389.9L391.734 147.371C393.539 148.885 395.722 150.05 398.284 150.865C400.846 151.738 403.495 152.175 406.231 152.175ZM507.798 144.053C506.343 146.149 504.363 147.866 501.86 149.205C499.356 150.486 496.649 151.127 493.738 151.127C487.625 151.127 482.909 148.478 479.591 143.18C476.272 137.881 474.613 130.371 474.613 120.648C474.613 110.925 476.272 103.415 479.591 98.1167C482.909 92.8187 487.654 90.1696 493.825 90.1696C497.144 90.1696 500.142 90.9556 502.821 92.5276C505.557 94.0413 507.798 96.2246 509.545 99.0774C511.292 101.988 512.573 105.685 513.388 110.168L514.61 109.819L513.737 90.1696H512.602L510.506 94.3615C507.187 92.5567 504.16 91.2467 501.423 90.4316C498.745 89.5583 496.125 89.1216 493.563 89.1216C488.556 89.1216 483.957 90.5189 479.765 93.3135C475.573 96.1081 472.255 99.9216 469.809 104.754C467.422 109.586 466.229 114.884 466.229 120.648C466.229 126.47 467.422 131.797 469.809 136.63C472.255 141.404 475.573 145.188 479.765 147.983C484.015 150.777 488.673 152.175 493.738 152.175C496.766 152.175 500.288 151.592 504.305 150.428C508.322 149.264 511.728 147.401 514.523 144.839V122.045L521.684 121.347V120.648H501.511V121.347L507.798 122.045V144.053ZM585.741 150.079V150.777H564.345V150.079L571.506 149.205L563.297 126.849H542.163L534.915 146.149C534.682 146.789 534.565 147.313 534.565 147.721C534.565 148.361 534.74 148.827 535.089 149.118C535.497 149.351 536.196 149.526 537.185 149.642L542.513 150.079V150.777H523.911V150.079L528.802 149.642C530.257 149.526 531.276 149.234 531.858 148.769C532.499 148.303 533.052 147.43 533.517 146.149L554.914 89.1216H556.485L578.493 149.205L585.741 150.079ZM562.773 125.451L552.992 98.8154H552.643L542.687 125.451H562.773ZM623.049 118.989C628.115 119.688 631.986 121.347 634.664 123.967C637.343 126.587 638.682 130.022 638.682 134.272C638.682 138.929 637.052 142.859 633.791 146.061C630.589 149.205 625.64 150.777 618.945 150.777H593.182V150.079L600.343 149.38V91.9162L593.182 91.2176V90.5189H614.928C621.798 90.5189 627.038 91.7416 630.647 94.1868C634.257 96.6321 636.062 100.184 636.062 104.841C636.062 108.567 634.926 111.653 632.656 114.098C630.385 116.544 627.183 118.057 623.049 118.64V118.989ZM607.068 91.5669V118.378H617.198C621.099 118.378 623.894 117.242 625.582 114.972C627.329 112.701 628.202 109.324 628.202 104.841C628.202 95.9917 623.69 91.5669 614.666 91.5669H607.068ZM616.849 149.729C625.873 149.729 630.385 144.664 630.385 134.534C630.385 129.236 629.25 125.393 626.979 123.006C624.709 120.619 621.332 119.426 616.849 119.426H607.068V149.729H616.849ZM702.064 90.5189V91.2176L697.174 91.6542C695.776 91.7707 694.787 92.0618 694.204 92.5276C693.68 92.9351 693.098 93.8084 692.458 95.1475L677.262 126.849V149.38L684.86 150.079V150.777H662.94V150.079L670.538 149.38V127.285L651.587 91.9162L644.426 91.2176V90.5189H666.171V91.2176L658.573 91.9162L676.302 125.015H676.738L691.061 95.1475C691.293 94.6235 691.41 94.0704 691.41 93.4882C691.41 92.906 691.206 92.4693 690.799 92.1782C690.391 91.8871 689.721 91.7125 688.79 91.6542L683.463 91.2176V90.5189H702.064Z" fill="black"/>
</svg>
