<svg width="348" height="131" viewBox="0 0 348 131" fill="none" xmlns="http://www.w3.org/2000/svg">
<path d="M190.928 13.848C192.116 14.64 193.128 15.652 193.964 16.884C194.844 18.072 195.548 19.612 196.076 21.504C196.648 23.352 196.78 25.684 196.472 28.5C196.164 31.316 195.394 34.462 194.162 37.938C190.114 49.158 184.746 57.958 178.058 64.338C175.374 66.89 172.602 68.87 169.742 70.278C166.926 71.686 164.242 72.39 161.69 72.39C161.426 72.39 161.162 72.368 160.898 72.324C156.894 72.06 154.056 70.168 152.384 66.648C146.84 89.66 143.65 104.29 142.814 110.538C142.902 110.362 142.99 110.164 143.078 109.944C143.21 109.636 143.43 109.416 143.738 109.284C144.09 109.152 144.42 109.152 144.728 109.284C145.036 109.46 145.256 109.702 145.388 110.01C145.52 110.362 145.52 110.692 145.388 111C144.552 112.804 143.87 114.08 143.342 114.828C142.814 115.62 142.264 116.016 141.692 116.016C141.516 116.016 141.34 115.972 141.164 115.884C140.504 115.664 140.13 115.026 140.042 113.97C139.954 112.958 140.196 110.78 140.768 107.436C141.428 103.432 142.594 97.69 144.266 90.21C146.334 80.97 150.074 65.306 155.486 43.218C158.566 30.59 160.634 22.054 161.69 17.61C155.662 20.162 150.492 23.33 146.18 27.114C143.98 29.05 142.176 30.986 140.768 32.922C139.36 34.858 138.37 36.596 137.798 38.136C137.27 39.632 136.962 41.128 136.874 42.624C136.83 44.12 136.918 45.374 137.138 46.386C137.402 47.354 137.754 48.3 138.194 49.224C138.37 49.532 138.392 49.862 138.26 50.214C138.172 50.522 137.974 50.764 137.666 50.94C137.358 51.072 137.028 51.094 136.676 51.006C136.368 50.874 136.126 50.654 135.95 50.346C134.014 46.474 133.772 42.338 135.224 37.938C136.72 33.538 139.8 29.292 144.464 25.2C149.524 20.8 155.508 17.258 162.416 14.574C162.592 13.694 162.768 12.902 162.944 12.198C162.988 11.89 163.164 11.648 163.472 11.472C163.78 11.252 164.088 11.186 164.396 11.274C164.748 11.318 165.012 11.494 165.188 11.802C165.408 12.11 165.474 12.44 165.386 12.792C165.342 12.924 165.298 13.166 165.254 13.518C166.354 13.166 167.454 12.836 168.554 12.528C173.262 11.252 177.53 10.724 181.358 10.944C185.23 11.164 188.42 12.132 190.928 13.848ZM191.72 37.08C192.292 35.496 192.754 33.978 193.106 32.526C193.502 31.074 193.766 29.512 193.898 27.84C194.074 26.124 194.052 24.584 193.832 23.22C193.656 21.812 193.194 20.47 192.446 19.194C191.742 17.874 190.752 16.774 189.476 15.894C187.32 14.442 184.46 13.65 180.896 13.518C177.376 13.342 173.482 13.826 169.214 14.97C167.674 15.41 166.112 15.916 164.528 16.488C163.516 21.02 161.338 30.128 157.994 43.812C156.014 51.776 154.474 58.024 153.374 62.556C153.682 62.732 153.88 62.996 153.968 63.348C154.408 65.328 155.222 66.868 156.41 67.968C157.642 69.068 159.182 69.684 161.03 69.816C163.274 69.948 165.738 69.376 168.422 68.1C171.106 66.824 173.746 64.954 176.342 62.49C182.722 56.418 187.848 47.948 191.72 37.08ZM210.651 63.084C211.003 62.996 211.311 63.062 211.575 63.282C211.883 63.458 212.059 63.722 212.103 64.074C212.147 64.426 212.081 64.734 211.905 64.998C206.933 71.95 202.401 76.878 198.309 79.782C196.681 80.926 195.075 81.498 193.491 81.498C192.259 81.498 191.181 81.168 190.257 80.508C189.729 80.112 189.267 79.584 188.871 78.924C188.431 78.264 188.057 77.34 187.749 76.152C187.441 74.964 187.397 73.402 187.617 71.466C187.793 69.53 188.277 67.33 189.069 64.866V64.8C190.301 60.796 191.797 57.628 193.557 55.296C195.317 52.964 196.901 51.776 198.309 51.732C199.321 51.688 199.981 52.128 200.289 53.052C200.773 54.328 200.201 56.132 198.573 58.464C196.945 60.796 194.547 63.304 191.379 65.988C190.851 67.704 190.477 69.288 190.257 70.74C190.037 72.192 189.949 73.358 189.993 74.238C190.081 75.074 190.235 75.822 190.455 76.482C190.719 77.098 190.939 77.538 191.115 77.802C191.335 78.066 191.555 78.286 191.775 78.462C193.095 79.43 194.789 79.166 196.857 77.67C200.729 74.942 205.041 70.234 209.793 63.546C210.013 63.282 210.299 63.128 210.651 63.084ZM197.847 54.504C196.307 55.472 194.789 57.562 193.293 60.774C195.845 58.222 197.363 56.132 197.847 54.504ZM230.131 63.612C230.483 63.48 230.813 63.502 231.121 63.678C231.429 63.81 231.649 64.052 231.781 64.404C231.913 64.712 231.891 65.02 231.715 65.328C230.571 67.836 227.293 77.78 221.881 95.16C218.317 106.556 215.809 114.41 214.357 118.722C213.213 122.198 212.289 124.816 211.585 126.576C211.057 127.896 210.595 128.82 210.199 129.348C209.847 129.92 209.407 130.206 208.879 130.206C208.791 130.206 208.681 130.206 208.549 130.206C207.889 130.03 207.515 129.48 207.427 128.556C207.295 127.632 207.339 126.598 207.559 125.454C207.735 124.09 208.989 116.302 211.321 102.09C213.697 87.922 215.567 77.098 216.931 69.618C215.347 71.73 213.851 73.556 212.443 75.096C210.507 77.164 208.857 77.736 207.493 76.812C206.833 76.372 206.415 75.624 206.239 74.568C206.063 73.512 206.107 72.368 206.371 71.136C206.591 69.86 206.987 68.584 207.559 67.308C208.835 64.448 210.683 62.182 213.103 60.51C215.523 58.838 218.317 58.42 221.485 59.256C221.837 59.344 222.101 59.542 222.277 59.85C222.453 60.114 222.497 60.422 222.409 60.774C222.365 60.994 222.255 61.192 222.079 61.368C221.947 61.544 221.771 61.654 221.551 61.698C221.331 61.742 221.111 61.742 220.891 61.698C219.835 61.346 218.823 61.258 217.855 61.434C216.887 61.61 216.029 61.852 215.281 62.16C214.577 62.468 213.895 62.93 213.235 63.546C212.619 64.118 212.113 64.668 211.717 65.196C211.365 65.68 211.013 66.208 210.661 66.78C210.001 67.88 209.495 69.046 209.143 70.278C208.791 71.466 208.615 72.412 208.615 73.116C208.659 73.776 208.747 74.304 208.879 74.7C209.275 74.568 209.847 74.106 210.595 73.314C212.267 71.51 214.357 68.892 216.865 65.46C217.525 64.58 217.965 63.964 218.185 63.612C218.625 63.084 219.131 62.974 219.703 63.282C220.319 63.546 220.561 64.008 220.429 64.668C218.493 74.48 215.259 93.422 210.727 121.494C212.311 116.962 215.215 107.942 219.439 94.434C224.895 76.922 228.217 66.868 229.405 64.272C229.581 63.964 229.823 63.744 230.131 63.612ZM254.25 63.612C254.602 63.524 254.91 63.568 255.174 63.744C255.482 63.92 255.68 64.184 255.768 64.536C255.856 64.888 255.812 65.196 255.636 65.46C255.108 66.296 254.536 67.198 253.92 68.166C253.304 69.09 252.38 70.366 251.148 71.994C249.96 73.622 248.816 75.052 247.716 76.284C246.616 77.472 245.428 78.528 244.152 79.452C242.876 80.376 241.776 80.838 240.852 80.838C240.5 80.838 240.192 80.772 239.928 80.64C237.816 79.848 237.222 76.482 238.146 70.542C236.694 72.522 235.374 74.018 234.186 75.03C232.47 76.482 230.974 76.658 229.698 75.558C228.51 74.59 227.982 72.874 228.114 70.41C228.202 67.946 228.906 65.57 230.226 63.282C230.402 62.974 230.666 62.776 231.018 62.688C231.37 62.6 231.7 62.644 232.008 62.82C232.316 62.996 232.514 63.26 232.602 63.612C232.69 63.92 232.646 64.228 232.47 64.536C231.722 65.768 231.194 67.066 230.886 68.43C230.622 69.794 230.534 70.938 230.622 71.862C230.754 72.742 230.974 73.314 231.282 73.578C231.502 73.798 231.92 73.644 232.536 73.116C233.68 72.148 235.11 70.41 236.826 67.902C237.134 67.506 237.354 67.22 237.486 67.044C237.662 66.824 237.86 66.582 238.08 66.318C238.3 66.01 238.476 65.812 238.608 65.724C238.74 65.636 238.894 65.548 239.07 65.46C239.246 65.328 239.422 65.284 239.598 65.328C239.774 65.328 239.972 65.372 240.192 65.46C240.764 65.68 241.072 66.186 241.116 66.978C241.16 67.726 241.05 68.716 240.786 69.948C240.302 72.368 240.104 74.216 240.192 75.492C240.324 76.768 240.434 77.56 240.522 77.868C240.61 78.132 240.72 78.264 240.852 78.264C240.984 78.352 241.204 78.308 241.512 78.132C241.864 78 242.26 77.758 242.7 77.406C243.184 77.054 243.712 76.614 244.284 76.086C244.856 75.514 245.494 74.832 246.198 74.04C246.946 73.248 247.694 72.39 248.442 71.466C249.19 70.498 250.004 69.398 250.884 68.166C251.764 66.89 252.622 65.548 253.458 64.14C253.634 63.832 253.898 63.656 254.25 63.612ZM273.944 63.084C274.296 62.996 274.604 63.062 274.868 63.282C275.176 63.458 275.352 63.722 275.396 64.074C275.44 64.426 275.374 64.734 275.198 64.998C270.226 71.95 265.694 76.878 261.602 79.782C259.974 80.926 258.368 81.498 256.784 81.498C255.552 81.498 254.474 81.168 253.55 80.508C253.022 80.112 252.56 79.584 252.164 78.924C251.724 78.264 251.35 77.34 251.042 76.152C250.734 74.964 250.69 73.402 250.91 71.466C251.086 69.53 251.57 67.33 252.362 64.866V64.8C253.594 60.796 255.09 57.628 256.85 55.296C258.61 52.964 260.194 51.776 261.602 51.732C262.614 51.688 263.274 52.128 263.582 53.052C264.066 54.328 263.494 56.132 261.866 58.464C260.238 60.796 257.84 63.304 254.672 65.988C254.144 67.704 253.77 69.288 253.55 70.74C253.33 72.192 253.242 73.358 253.286 74.238C253.374 75.074 253.528 75.822 253.748 76.482C254.012 77.098 254.232 77.538 254.408 77.802C254.628 78.066 254.848 78.286 255.068 78.462C256.388 79.43 258.082 79.166 260.15 77.67C264.022 74.942 268.334 70.234 273.086 63.546C273.306 63.282 273.592 63.128 273.944 63.084ZM261.14 54.504C259.6 55.472 258.082 57.562 256.586 60.774C259.138 58.222 260.656 56.132 261.14 54.504ZM297.375 63.15C297.727 63.062 298.057 63.106 298.365 63.282C298.673 63.458 298.871 63.722 298.959 64.074C299.047 64.382 299.003 64.69 298.827 64.998C297.331 67.638 296.033 69.728 294.933 71.268C293.833 72.808 292.711 74.018 291.567 74.898C290.423 75.778 289.301 76.152 288.201 76.02C286.001 75.756 284.263 73.38 282.987 68.892C282.063 65.856 281.271 64.338 280.611 64.338C280.479 64.294 280.281 64.36 280.017 64.536C279.797 64.668 279.423 65.064 278.895 65.724C278.367 66.34 277.773 67.198 277.113 68.298C276.497 69.398 275.661 71.026 274.605 73.182C273.593 75.338 272.493 77.89 271.305 80.838C271.085 81.366 270.689 81.63 270.117 81.63C270.029 81.63 269.941 81.608 269.853 81.564C269.105 81.388 268.775 80.926 268.863 80.178C269.303 76.57 270.953 69.86 273.813 60.048C274.121 59.036 274.341 58.266 274.473 57.738C274.605 57.386 274.825 57.144 275.133 57.012C275.441 56.836 275.749 56.792 276.057 56.88C276.409 56.968 276.673 57.166 276.849 57.474C277.025 57.782 277.047 58.112 276.915 58.464C276.827 58.772 276.607 59.542 276.255 60.774C275.287 64.162 274.539 66.802 274.011 68.694C275.419 66.054 276.651 64.228 277.707 63.216C278.763 62.204 279.775 61.72 280.743 61.764C281.887 61.808 282.789 62.402 283.449 63.546C284.153 64.69 284.813 66.252 285.429 68.232C286.397 71.62 287.431 73.38 288.531 73.512C289.059 73.6 289.697 73.314 290.445 72.654C291.237 71.95 292.073 70.96 292.953 69.684C293.833 68.364 294.493 67.33 294.933 66.582C295.417 65.834 295.967 64.888 296.583 63.744C296.759 63.436 297.023 63.238 297.375 63.15ZM318.325 63.348C318.677 63.304 318.985 63.392 319.249 63.612C319.557 63.832 319.733 64.118 319.777 64.47C319.821 64.822 319.733 65.13 319.513 65.394C317.709 67.726 315.553 69.552 313.045 70.872C310.537 72.192 308.183 72.61 305.983 72.126C305.367 73.622 304.509 74.81 303.409 75.69C302.309 76.526 301.165 76.944 299.977 76.944H299.911C298.723 76.9 297.667 76.504 296.743 75.756C295.863 74.964 295.247 73.886 294.895 72.522C294.323 70.366 294.433 68.32 295.225 66.384C295.973 64.404 297.073 62.952 298.525 62.028C298.833 61.808 299.185 61.764 299.581 61.896C299.977 60.928 300.527 60.18 301.231 59.652C301.979 59.124 302.749 58.926 303.541 59.058C303.981 59.146 304.377 59.344 304.729 59.652C305.125 59.916 305.499 60.356 305.851 60.972C306.247 61.588 306.533 62.534 306.709 63.81C306.885 65.086 306.929 66.604 306.841 68.364C306.797 68.804 306.731 69.244 306.643 69.684C308.315 70.036 310.163 69.618 312.187 68.43C314.255 67.242 316.015 65.702 317.467 63.81C317.687 63.546 317.973 63.392 318.325 63.348ZM299.977 74.37C300.593 74.37 301.231 74.084 301.891 73.512C302.595 72.94 303.167 72.17 303.607 71.202C300.747 69.618 299.251 67.462 299.119 64.734C298.239 65.57 297.623 66.692 297.271 68.1C296.963 69.508 296.985 70.74 297.337 71.796C297.821 73.512 298.701 74.37 299.977 74.37ZM304.267 68.232C304.355 67.176 304.355 66.274 304.267 65.526C304.223 64.734 304.157 64.096 304.069 63.612C303.981 63.128 303.871 62.732 303.739 62.424C303.607 62.116 303.475 61.896 303.343 61.764C303.255 61.632 303.189 61.566 303.145 61.566H303.079C302.903 61.566 302.683 61.72 302.419 62.028C302.155 62.292 301.957 62.666 301.825 63.15C301.561 64.074 301.605 65.02 301.957 65.988C302.309 66.956 303.079 67.836 304.267 68.628C304.267 68.496 304.267 68.364 304.267 68.232ZM344.944 62.556C345.296 62.512 345.604 62.622 345.868 62.886C346.132 63.106 346.286 63.392 346.33 63.744C346.374 64.096 346.264 64.404 346 64.668C337.464 74.612 332.58 80.354 331.348 81.894C330.6 82.862 329.874 83.808 329.17 84.732C329.786 87.24 329.83 89.66 329.302 91.992C328.774 94.324 328.026 96.326 327.058 97.998C326.09 99.67 324.946 101.034 323.626 102.09C322.394 103.146 321.25 103.674 320.194 103.674C319.534 103.674 318.984 103.454 318.544 103.014C316.212 100.77 318.83 94.5 326.398 84.204C325.914 82.532 325.144 80.904 324.088 79.32C321.888 76.02 320.26 73.27 319.204 71.07C318.148 68.87 317.664 66.868 317.752 65.064C317.84 63.304 318.302 61.72 319.138 60.312C320.018 58.904 321.184 57.76 322.636 56.88C323.868 56.132 325.166 55.692 326.53 55.56C327.894 55.428 329.148 55.626 330.292 56.154C330.6 56.33 330.798 56.594 330.886 56.946C331.018 57.254 330.996 57.562 330.82 57.87C330.688 58.178 330.446 58.398 330.094 58.53C329.786 58.618 329.478 58.596 329.17 58.464C327.586 57.716 325.848 57.914 323.956 59.058C321.668 60.422 320.458 62.468 320.326 65.196C320.238 66.648 320.7 68.386 321.712 70.41C322.724 72.39 324.22 74.876 326.2 77.868C327.036 79.144 327.718 80.442 328.246 81.762C328.598 81.322 328.972 80.838 329.368 80.31C330.6 78.77 335.506 73.006 344.086 63.018C344.306 62.754 344.592 62.6 344.944 62.556ZM324.418 97.404C326.354 94.456 327.212 91.222 326.992 87.702C325.144 90.342 323.648 92.696 322.504 94.764C321.404 96.832 320.722 98.306 320.458 99.186C320.238 100.11 320.172 100.748 320.26 101.1C320.656 101.056 321.25 100.704 322.042 100.044C322.834 99.428 323.626 98.548 324.418 97.404Z" fill="#EEC664"/>
<path d="M278.094 54.0073C279.243 53.2612 282.062 52.2308 284.146 54.0781C286.23 55.9254 287.655 54.0501 288.108 52.8816" stroke="#F2D48B" stroke-width="2.5" stroke-linecap="round"/>
<path d="M11.144 37.2V53.104L16.632 53.552V54H2.24V53.552L6.832 53.104V16.256L2.24 15.808V15.36H16.408C20.776 15.36 24.1173 16.2933 26.432 18.16C28.784 20.0267 29.96 22.6587 29.96 26.056C29.96 29.6773 28.8027 32.44 26.488 34.344C24.1733 36.248 20.8133 37.2 16.408 37.2H11.144ZM11.144 16.032V36.528H16.24C19.264 36.528 21.4667 35.6693 22.848 33.952C24.2293 32.2347 24.92 29.5093 24.92 25.776C24.92 22.6773 24.2853 20.288 23.016 18.608C21.784 16.8907 19.5253 16.032 16.24 16.032H11.144ZM36.3191 54.392C34.9004 54.392 33.7244 53.9067 32.7911 52.936C31.8951 51.928 31.4471 50.64 31.4471 49.072C31.4471 47.2053 32.2871 45.712 33.9671 44.592C35.6844 43.472 38.5777 42.5013 42.6471 41.68V36.584C42.6471 34.4187 42.4044 32.9253 41.9191 32.104C41.4337 31.2453 40.5937 30.816 39.3991 30.816C38.2417 30.816 37.3084 31.1333 36.5991 31.768C35.8897 32.3653 35.5351 33.1867 35.5351 34.232L35.5911 35.744C35.5911 36.6773 35.4044 37.424 35.0311 37.984C34.6951 38.5067 34.2097 38.768 33.5751 38.768C33.0151 38.768 32.5484 38.5813 32.1751 38.208C31.8391 37.8347 31.6711 37.3493 31.6711 36.752C31.6711 35.856 32.1004 34.8853 32.9591 33.84C33.8551 32.7573 34.9937 31.8613 36.3751 31.152C38.0551 30.2187 39.7911 29.752 41.5831 29.752C42.6284 29.752 43.5057 29.9573 44.2151 30.368C44.9617 30.7787 45.5031 31.3573 45.8391 32.104C46.0257 32.5893 46.1377 33.1867 46.1751 33.896C46.2497 34.6053 46.2871 35.968 46.2871 37.984V48.68C46.2871 50.024 46.4177 50.9573 46.6791 51.48C46.9404 51.9653 47.4071 52.208 48.0791 52.208C49.0871 52.208 49.8337 51.8533 50.3191 51.144L50.5431 51.256C50.0951 52.1893 49.4977 52.9173 48.7511 53.44C48.0044 53.9253 47.2017 54.168 46.3431 54.168C45.3724 54.168 44.5697 53.888 43.9351 53.328C43.3004 52.7307 42.9457 51.9467 42.8711 50.976L42.7031 50.92C41.8444 52.0027 40.8551 52.8613 39.7351 53.496C38.6151 54.0933 37.4764 54.392 36.3191 54.392ZM38.7271 52.264C39.5111 52.264 40.2391 52.096 40.9111 51.76C41.6204 51.3867 42.1991 50.864 42.6471 50.192V42.296C40.7057 42.7813 39.1937 43.2667 38.1111 43.752C37.0657 44.2373 36.3191 44.816 35.8711 45.488C35.4231 46.16 35.1991 47 35.1991 48.008C35.1991 49.3147 35.5164 50.36 36.1511 51.144C36.7857 51.8907 37.6444 52.264 38.7271 52.264ZM64.3541 67.104H76.4501V66.656L73.0341 66.208V30.256H72.4181L70.9061 31.768H70.6821C68.8154 30.3867 66.7621 29.696 64.5221 29.696C62.3941 29.696 60.4527 30.2747 58.6981 31.432C56.9807 32.5893 55.6181 34.176 54.6101 36.192C53.6394 38.1707 53.1541 40.4107 53.1541 42.912C53.1541 45.152 53.5461 47.168 54.3301 48.96C55.1514 50.7147 56.2714 52.096 57.6901 53.104C59.1087 54.0747 60.7141 54.56 62.5061 54.56C65.2314 54.56 67.5274 53.4587 69.3941 51.256V66.096L64.3541 66.712V67.104ZM64.6901 30.256C66.1834 30.256 67.3407 30.76 68.1621 31.768C68.9834 32.7387 69.3941 34.12 69.3941 35.912V50.528C68.7967 51.2747 68.0501 51.8533 67.1541 52.264C66.2581 52.6747 65.3247 52.88 64.3541 52.88C62.1887 52.88 60.4714 51.9093 59.2021 49.968C57.9327 47.9893 57.2981 45.3013 57.2981 41.904C57.2981 38.3573 57.9701 35.5387 59.3141 33.448C60.6581 31.32 62.4501 30.256 64.6901 30.256ZM100.631 51.2V51.48L94.5267 54.28H94.1907V50.472L94.0227 50.416C91.82 53.1787 89.4494 54.56 86.9107 54.56C85.7534 54.56 84.7267 54.3173 83.8307 53.832C82.9347 53.3467 82.2814 52.6747 81.8707 51.816C81.6094 51.3307 81.4414 50.6773 81.3667 49.856C81.292 48.9973 81.2547 47.5227 81.2547 45.432V31.152L77.8947 30.704V30.256H84.8947V45.432C84.8947 46.9253 84.932 48.0267 85.0067 48.736C85.0814 49.408 85.2307 49.9867 85.4547 50.472C85.716 51.0693 86.1454 51.5547 86.7427 51.928C87.3774 52.264 88.0867 52.432 88.8707 52.432C89.804 52.432 90.7 52.208 91.5587 51.76C92.4174 51.2747 93.2014 50.584 93.9107 49.688V31.152L90.5507 30.704V30.256H97.5507V50.528L100.631 51.2ZM123.107 47.616L123.331 47.728L123.107 48.344C122.36 50.3227 121.24 51.8533 119.747 52.936C118.291 54.0187 116.536 54.56 114.483 54.56C112.467 54.56 110.675 54.0373 109.107 52.992C107.539 51.9467 106.307 50.4907 105.411 48.624C104.552 46.7573 104.123 44.6107 104.123 42.184C104.123 39.7573 104.589 37.592 105.523 35.688C106.456 33.784 107.781 32.3093 109.499 31.264C111.216 30.2187 113.176 29.696 115.379 29.696C117.992 29.696 119.989 30.48 121.371 32.048C122.789 33.5787 123.517 35.8187 123.555 38.768L123.219 39.048H108.099C108.024 40.0187 107.987 40.784 107.987 41.344C107.987 44.7413 108.677 47.336 110.059 49.128C111.44 50.8827 113.363 51.76 115.827 51.76C117.096 51.76 118.309 51.48 119.467 50.92C120.661 50.3227 121.707 49.4453 122.603 48.288L123.107 47.616ZM114.763 30.312C113.008 30.312 111.552 31.04 110.395 32.496C109.237 33.952 108.491 35.9307 108.155 38.432L119.019 38.04C119.131 37.592 119.187 36.8453 119.187 35.8C119.187 33.784 118.795 32.3653 118.011 31.544C117.264 30.7227 116.181 30.312 114.763 30.312ZM126.907 30.816L127.019 31.096H129.651V49.016C129.651 50.1733 129.781 51.1067 130.043 51.816C130.304 52.5253 130.752 53.104 131.387 53.552C132.32 54.224 133.384 54.56 134.579 54.56C135.736 54.56 136.819 54.224 137.827 53.552C138.872 52.88 139.675 51.9653 140.235 50.808L140.011 50.64C139.339 51.312 138.723 51.7973 138.163 52.096C137.603 52.3947 137.024 52.544 136.427 52.544C135.195 52.544 134.355 52.096 133.907 51.2C133.496 50.5653 133.291 49.5947 133.291 48.288V31.152H139.339L139.675 30.256H133.291V24.936L133.067 24.88L126.907 30.816ZM161.771 47.616L161.995 47.728L161.771 48.344C161.024 50.3227 159.904 51.8533 158.411 52.936C156.955 54.0187 155.2 54.56 153.147 54.56C151.131 54.56 149.339 54.0373 147.771 52.992C146.203 51.9467 144.971 50.4907 144.075 48.624C143.216 46.7573 142.787 44.6107 142.787 42.184C142.787 39.7573 143.254 37.592 144.187 35.688C145.12 33.784 146.446 32.3093 148.163 31.264C149.88 30.2187 151.84 29.696 154.043 29.696C156.656 29.696 158.654 30.48 160.035 32.048C161.454 33.5787 162.182 35.8187 162.219 38.768L161.883 39.048H146.763C146.688 40.0187 146.651 40.784 146.651 41.344C146.651 44.7413 147.342 47.336 148.723 49.128C150.104 50.8827 152.027 51.76 154.491 51.76C155.76 51.76 156.974 51.48 158.131 50.92C159.326 50.3227 160.371 49.4453 161.267 48.288L161.771 47.616ZM153.427 30.312C151.672 30.312 150.216 31.04 149.059 32.496C147.902 33.952 147.155 35.9307 146.819 38.432L157.683 38.04C157.795 37.592 157.851 36.8453 157.851 35.8C157.851 33.784 157.459 32.3653 156.675 31.544C155.928 30.7227 154.846 30.312 153.427 30.312ZM175.147 29.696C172.533 29.696 170.499 30.2747 169.043 31.432C167.624 32.5893 166.915 34.2133 166.915 36.304C166.915 37.6107 167.176 38.6933 167.699 39.552C168.221 40.4107 168.856 41.1013 169.603 41.624C170.387 42.1093 171.413 42.6693 172.683 43.304C174.4 44.1253 175.688 44.928 176.547 45.712C177.405 46.496 177.835 47.6533 177.835 49.184C177.835 50.6027 177.424 51.76 176.603 52.656C175.781 53.5147 174.68 53.944 173.299 53.944C171.768 53.944 170.517 53.328 169.547 52.096C168.613 50.8267 167.96 48.8853 167.587 46.272H166.915L167.195 53.552C167.979 53.8507 168.931 54.0933 170.051 54.28C171.171 54.4667 172.179 54.56 173.075 54.56C175.539 54.56 177.499 53.9067 178.955 52.6C180.411 51.256 181.139 49.4453 181.139 47.168C181.139 45.7867 180.859 44.648 180.299 43.752C179.776 42.856 179.123 42.1653 178.339 41.68C177.592 41.1573 176.565 40.5973 175.259 40C173.579 39.216 172.328 38.4693 171.507 37.76C170.685 37.0133 170.275 35.9307 170.275 34.512C170.275 33.2427 170.648 32.2347 171.395 31.488C172.141 30.704 173.131 30.312 174.363 30.312C175.707 30.312 176.771 30.816 177.555 31.824C178.376 32.832 179.048 34.456 179.571 36.696H180.187V30.48C179.589 30.256 178.824 30.0693 177.891 29.92C176.957 29.7707 176.043 29.696 175.147 29.696Z" fill="black"/>
</svg>
