<svg width="779" height="245" viewBox="0 0 779 245" fill="none" xmlns="http://www.w3.org/2000/svg">
<path d="M340.97 158.221C341.634 158.221 342.174 158.429 342.589 158.844C343.088 159.342 343.337 159.924 343.337 160.588C343.337 161.003 343.212 161.377 342.963 161.709C342.714 162.124 342.382 162.415 341.967 162.581C341.634 162.83 341.261 162.954 340.846 162.954C337.856 162.871 334.452 163.328 330.632 164.324C326.896 165.404 322.619 167.106 317.803 169.431C312.987 171.756 309.002 173.749 305.846 175.41C302.691 177.153 298.332 179.561 292.768 182.634C286.458 186.204 281.725 188.82 278.569 190.481C275.414 192.224 271.843 193.885 267.858 195.463C263.872 197.04 260.592 197.829 258.018 197.829C255.776 197.829 253.908 197.289 252.413 196.21C248.593 193.304 247.805 186.952 250.047 177.153C256.274 149.835 264.91 116.87 275.954 78.2583C278.611 68.9583 281.019 60.6963 283.178 53.4722C285.42 46.2482 287.288 40.3111 288.783 35.6611C290.36 30.9281 291.813 26.984 293.142 23.8286C294.47 20.5902 295.467 18.1822 296.131 16.6045C296.878 15.0269 297.626 13.8644 298.373 13.1171C299.12 12.3697 299.66 11.9961 299.992 11.9961C300.324 11.9131 300.781 11.9131 301.362 11.9961C302.857 12.1622 303.77 13.3247 304.103 15.4836C304.435 17.6425 304.393 20.9639 303.978 25.4478C303.895 26.1121 303.604 26.6518 303.106 27.067C302.608 27.4822 302.027 27.6898 301.362 27.6898C300.698 27.6067 300.117 27.3161 299.619 26.8179C299.203 26.3197 299.037 25.7384 299.12 25.0741C299.286 23.5795 299.411 22.2094 299.494 20.9639C295.176 30.8451 288.533 51.6039 279.566 83.2404C268.937 120.689 260.675 152.367 254.78 178.274C252.953 185.997 253.119 190.688 255.278 192.349C255.859 192.764 256.606 193.013 257.52 193.096C258.433 193.179 259.513 193.055 260.758 192.722C262.087 192.39 263.374 192.017 264.619 191.601C265.865 191.269 267.442 190.647 269.352 189.733C271.262 188.82 272.881 188.031 274.21 187.367C275.538 186.702 277.324 185.747 279.566 184.502C281.891 183.256 283.676 182.26 284.921 181.513C286.167 180.848 287.994 179.852 290.402 178.523C295.052 175.866 298.581 173.873 300.989 172.545C303.48 171.216 306.884 169.431 311.202 167.189C315.603 165.03 319.256 163.369 322.163 162.207C325.069 161.128 328.224 160.173 331.629 159.342C335.116 158.512 338.23 158.138 340.97 158.221ZM370.456 111.14C371.12 111.057 371.702 111.223 372.2 111.638C372.781 112.054 373.113 112.593 373.196 113.258C373.279 113.922 373.113 114.503 372.698 115.001C369.294 119.402 365.225 122.848 360.492 125.339C355.759 127.83 351.317 128.619 347.165 127.706C346.002 130.529 344.383 132.771 342.307 134.432C340.231 136.009 338.072 136.798 335.83 136.798H335.706C333.464 136.715 331.471 135.968 329.727 134.556C328.067 133.062 326.904 131.027 326.24 128.453C325.16 124.384 325.368 120.523 326.863 116.87C328.274 113.133 330.35 110.393 333.09 108.649C333.672 108.234 334.336 108.151 335.083 108.4C335.83 106.573 336.868 105.162 338.197 104.165C339.609 103.169 341.062 102.795 342.556 103.044C343.387 103.21 344.134 103.584 344.798 104.165C345.546 104.663 346.251 105.494 346.916 106.656C347.663 107.819 348.203 109.604 348.535 112.012C348.867 114.42 348.95 117.285 348.784 120.606C348.701 121.437 348.576 122.267 348.41 123.097C351.566 123.762 355.053 122.973 358.873 120.731C362.775 118.489 366.097 115.583 368.837 112.012C369.252 111.514 369.792 111.223 370.456 111.14ZM335.83 131.941C336.993 131.941 338.197 131.401 339.442 130.321C340.771 129.242 341.851 127.789 342.681 125.962C337.284 122.973 334.46 118.904 334.211 113.756C332.551 115.334 331.388 117.451 330.724 120.108C330.143 122.765 330.184 125.09 330.848 127.083C331.762 130.321 333.422 131.941 335.83 131.941ZM343.926 120.357C344.092 118.364 344.092 116.662 343.926 115.251C343.843 113.756 343.719 112.552 343.553 111.638C343.387 110.725 343.179 109.978 342.93 109.397C342.681 108.815 342.432 108.4 342.183 108.151C342.017 107.902 341.892 107.777 341.809 107.777H341.684C341.352 107.777 340.937 108.068 340.439 108.649C339.941 109.147 339.567 109.853 339.318 110.767C338.82 112.51 338.903 114.296 339.567 116.122C340.231 117.949 341.684 119.61 343.926 121.104C343.926 120.855 343.926 120.606 343.926 120.357ZM422.558 110.144C423.223 110.31 423.721 110.684 424.053 111.265C424.468 111.763 424.593 112.344 424.427 113.009C424.344 113.673 424.011 114.171 423.43 114.503C408.484 124.218 396.734 132.729 388.182 140.037C382.95 171.59 376.847 195.587 369.872 212.028C362.897 228.469 356.088 237.603 349.446 239.43C348.532 239.679 347.66 239.803 346.83 239.803C344.173 239.803 341.889 238.641 339.98 236.316C336.409 231.832 335.122 224.65 336.118 214.768C337.281 204.14 340.893 193.262 346.955 182.135C355.839 166.11 368.087 151.246 383.698 137.545C384.86 130.487 385.94 123.097 386.936 115.375C384.279 119.361 381.829 122.848 379.587 125.838C376.1 130.404 373.111 132.314 370.62 131.567C368.627 130.986 367.464 129.159 367.132 126.087C366.883 123.18 367.298 119.444 368.378 114.877C369.54 110.227 371.408 105.66 373.983 101.176C376.557 96.6921 379.38 93.7028 382.452 92.2082C386.687 90.0493 390.797 90.7551 394.783 94.3256C395.281 94.8238 395.53 95.4051 395.53 96.0693C395.613 96.6506 395.406 97.1903 394.907 97.6885C394.492 98.1867 393.953 98.4774 393.288 98.5604C392.624 98.5604 392.043 98.3528 391.545 97.9376C388.555 95.1975 385.524 95.1975 382.452 97.9376C378.965 101.093 376.183 106.117 374.107 113.009C372.031 119.817 371.367 124.384 372.114 126.709C373.028 126.128 374.232 124.883 375.726 122.973C381.041 115.998 385.317 109.646 388.555 103.916C389.22 102.837 390.174 102.505 391.42 102.92C392.666 103.252 393.205 104.082 393.039 105.411C391.877 114.96 390.631 124.094 389.303 132.812C397.025 126.502 407.529 119.07 420.815 110.517C421.396 110.102 421.977 109.978 422.558 110.144ZM348.076 234.821C350.318 234.24 352.767 232.247 355.424 228.843C357.998 225.438 360.821 220.456 363.894 213.896C366.966 207.337 370.121 198.12 373.36 186.246C376.681 174.372 379.712 160.712 382.452 145.268C369.333 157.391 358.912 170.469 351.189 184.502C348.698 188.986 346.664 193.47 345.086 197.954C343.426 202.438 342.263 206.506 341.599 210.16C340.935 213.813 340.602 217.176 340.602 220.249C340.602 223.404 340.893 226.061 341.474 228.22C342.056 230.379 342.803 232.081 343.716 233.327C344.962 234.821 346.415 235.32 348.076 234.821ZM491.156 110.144C491.82 109.978 492.443 110.061 493.024 110.393C493.605 110.725 493.937 111.223 494.021 111.888C494.187 112.552 494.104 113.175 493.771 113.756C491.446 117.409 488.623 121.229 485.302 125.215C482.063 129.117 478.368 132.646 474.217 135.802C470.148 138.957 466.702 140.535 463.879 140.535C462.882 140.535 462.01 140.369 461.263 140.037C455.7 137.629 455.118 127.872 459.519 110.767C459.685 110.102 460.059 109.604 460.64 109.272C461.222 108.94 461.803 108.857 462.384 109.023C463.048 109.189 463.547 109.563 463.879 110.144C464.211 110.725 464.294 111.306 464.128 111.888C463.131 115.873 462.384 119.402 461.886 122.475C461.471 125.464 461.263 127.747 461.263 129.325C461.346 130.903 461.512 132.231 461.761 133.311C462.093 134.307 462.343 134.93 462.509 135.179C462.758 135.345 462.965 135.47 463.131 135.553C465.29 136.466 469.193 134.307 474.839 129.076C480.569 123.845 485.509 117.866 489.661 111.14C490.076 110.642 490.575 110.31 491.156 110.144ZM463.63 100.429C461.222 100.263 460.474 99.2662 461.388 97.4394C462.218 95.9448 463.297 94.9484 464.626 94.4502C466.702 93.7859 467.947 94.3256 468.363 96.0693C468.778 97.7301 468.155 98.9756 466.494 99.8059C465.664 100.221 464.709 100.429 463.63 100.429ZM536.36 110.767C537.024 110.601 537.647 110.684 538.228 111.016C538.809 111.348 539.183 111.846 539.349 112.51C539.515 113.092 539.432 113.673 539.1 114.254C536.277 119.236 533.827 123.18 531.751 126.087C529.675 128.993 527.558 131.276 525.399 132.937C523.24 134.598 521.123 135.304 519.047 135.054C514.895 134.556 511.615 130.072 509.207 121.603C507.463 115.873 505.969 113.009 504.723 113.009C504.474 112.926 504.101 113.05 503.602 113.382C503.187 113.631 502.481 114.379 501.485 115.624C500.489 116.787 499.368 118.406 498.122 120.482C496.96 122.558 495.382 125.63 493.389 129.699C491.479 133.767 489.403 138.583 487.161 144.147C486.746 145.143 485.999 145.641 484.919 145.641C484.753 145.641 484.587 145.6 484.421 145.517C483.01 145.185 482.387 144.313 482.553 142.901C483.383 136.092 486.497 123.429 491.894 104.913C492.476 103.003 492.891 101.55 493.14 100.553C493.389 99.889 493.804 99.4323 494.385 99.1832C494.967 98.851 495.548 98.768 496.129 98.9341C496.793 99.1001 497.292 99.4738 497.624 100.055C497.956 100.636 497.997 101.259 497.748 101.923C497.582 102.505 497.167 103.958 496.503 106.283C494.676 112.676 493.264 117.659 492.268 121.229C494.925 116.247 497.25 112.801 499.243 110.891C501.236 108.981 503.146 108.068 504.972 108.151C507.131 108.234 508.834 109.355 510.079 111.514C511.408 113.673 512.653 116.621 513.816 120.357C515.642 126.751 517.594 130.072 519.67 130.321C520.666 130.487 521.87 129.948 523.282 128.702C524.776 127.374 526.354 125.505 528.015 123.097C529.675 120.606 530.921 118.655 531.751 117.243C532.665 115.832 533.703 114.046 534.865 111.888C535.197 111.306 535.695 110.933 536.36 110.767Z" fill="#EEC664"/>
<path d="M37.5833 160.742H58.6301V161.44L51.469 162.139V219.603L58.6301 220.301V221H37.5833V220.301L44.7445 219.603V162.139L37.5833 161.44V160.742ZM130.092 160.742V161.44L123.804 162.139C122.407 162.314 121.475 162.663 121.01 163.187C120.544 163.711 120.311 164.671 120.311 166.069V222.397H119.438L80.2261 166.767H79.8768V215.673C79.8768 217.07 80.0514 218.06 80.4008 218.642C80.7501 219.166 81.4487 219.486 82.4967 219.603L88.6972 220.301V221H69.5717V220.301L75.8596 219.603C76.9075 219.486 77.6062 219.166 77.9555 218.642C78.3048 218.06 78.4795 217.07 78.4795 215.673V164.846L78.1302 164.322C77.3151 163.158 76.5291 162.401 75.7722 162.052C75.0736 161.644 74.0256 161.44 72.6283 161.44H71.1437V160.742H84.156L118.564 208.948H118.914V166.069C118.914 164.671 118.739 163.682 118.39 163.1C118.04 162.517 117.342 162.197 116.294 162.139L109.22 161.44V160.742H130.092ZM140.255 160.742H161.302V161.44L154.141 162.139V219.603L161.302 220.301V221H140.255V220.301L147.416 219.603V162.139L140.255 161.44V160.742ZM215.485 215.061C213.796 216.925 211.7 218.409 209.197 219.515C206.752 220.622 204.219 221.175 201.599 221.175C195.486 221.175 190.77 218.555 187.452 213.315C184.133 208.017 182.474 200.535 182.474 190.871C182.474 181.148 184.133 173.637 187.452 168.339C190.77 163.041 195.515 160.392 201.686 160.392C205.063 160.392 208.149 161.178 210.944 162.75C213.738 164.264 216.009 166.447 217.755 169.3C219.502 172.211 220.783 175.908 221.598 180.391L222.821 180.042L221.947 160.392H220.812L218.716 164.584C215.339 162.779 212.254 161.469 209.459 160.654C206.723 159.781 204.044 159.344 201.424 159.344C196.418 159.344 191.818 160.742 187.626 163.536C183.434 166.331 180.116 170.144 177.67 174.977C175.283 179.809 174.09 185.107 174.09 190.871C174.09 196.693 175.283 202.02 177.67 206.852C180.116 211.626 183.434 215.411 187.626 218.205C191.876 221 196.534 222.397 201.599 222.397C204.452 222.397 207.392 221.844 210.42 220.738C213.505 219.632 216.358 218.118 218.978 216.197L221.947 221H223.083V200.914L221.947 200.739C220.492 207.085 218.338 211.859 215.485 215.061ZM237.298 160.742H258.345V161.44L251.184 162.139V219.603L258.345 220.301V221H237.298V220.301L244.46 219.603V162.139L237.298 161.44V160.742ZM325.877 220.301V221H304.481V220.301L311.642 219.428L303.433 197.071H282.299L275.051 216.371C274.818 217.012 274.701 217.536 274.701 217.943C274.701 218.584 274.876 219.05 275.225 219.341C275.633 219.574 276.332 219.748 277.321 219.865L282.648 220.301V221H264.047V220.301L268.937 219.865C270.393 219.748 271.412 219.457 271.994 218.991C272.635 218.526 273.188 217.652 273.653 216.371L295.049 159.344H296.621L318.629 219.428L325.877 220.301ZM302.909 195.674L293.128 169.038H292.779L282.823 195.674H302.909ZM386.328 220.301V221H377.333C375.936 221 374.888 220.796 374.189 220.389C373.49 219.981 372.763 219.195 372.006 218.031L358.644 196.46C357.829 195.121 357.13 194.306 356.548 194.015C356.024 193.665 355.064 193.491 353.666 193.491H347.204V219.603L354.802 220.301V221H333.318V220.301L340.479 219.603V162.139L333.318 161.44V160.742H355.413C362.283 160.742 367.523 162.139 371.133 164.933C374.742 167.67 376.547 171.658 376.547 176.898C376.547 180.973 375.441 184.321 373.228 186.941C371.016 189.561 367.814 191.366 363.622 192.355H363.709L379.691 217.332C380.448 218.497 381.176 219.282 381.874 219.69C382.631 220.098 383.708 220.301 385.105 220.301H386.328ZM347.204 161.79V192.181H355.151C359.809 192.181 363.244 190.958 365.456 188.513C367.727 186.009 368.862 182.196 368.862 177.073C368.862 171.891 367.727 168.048 365.456 165.545C363.185 163.041 359.75 161.79 355.151 161.79H347.204ZM437.667 222.397C441.277 222.397 444.508 221.64 447.361 220.127C450.272 218.613 452.543 216.546 454.173 213.926C455.803 211.248 456.618 208.221 456.618 204.844C456.618 201.816 455.948 199.284 454.609 197.246C453.329 195.15 451.611 193.403 449.457 192.006C447.361 190.609 444.566 189.124 441.073 187.552C437.172 185.747 434.145 184.205 431.991 182.924C429.895 181.643 428.235 180.129 427.013 178.382C425.848 176.636 425.266 174.482 425.266 171.92C425.266 168.369 426.343 165.574 428.497 163.536C430.652 161.44 433.533 160.392 437.143 160.392C443.14 160.392 447.594 163.391 450.505 169.387C451.96 172.357 453.154 175.792 454.085 179.692L454.959 179.43L454.085 160.392H452.95L450.854 164.584C448.467 162.721 446.226 161.382 444.13 160.567C442.092 159.752 439.88 159.344 437.492 159.344C434.057 159.344 430.972 160.072 428.235 161.528C425.557 162.925 423.432 164.904 421.86 167.466C420.346 169.97 419.59 172.822 419.59 176.025C419.59 179.168 420.288 181.847 421.686 184.059C423.141 186.213 424.946 187.989 427.1 189.386C429.254 190.725 431.932 192.093 435.135 193.491C439.035 195.179 442.063 196.664 444.217 197.945C446.371 199.225 448.06 200.768 449.282 202.573C450.563 204.378 451.203 206.59 451.203 209.21C451.203 212.936 450.01 215.906 447.623 218.118C445.294 220.272 442.034 221.349 437.842 221.349C432.951 221.349 429.021 219.69 426.052 216.371C424.597 214.741 423.403 212.82 422.472 210.608C421.598 208.395 420.725 205.31 419.852 201.351L419.066 201.525L420.201 222.397H421.336L423.17 217.594C424.975 219.108 427.158 220.272 429.72 221.087C432.282 221.961 434.931 222.397 437.667 222.397ZM515.373 202.66L513.189 221H470.397V220.301L477.558 219.603V162.139L470.397 161.44V160.742H513.277L514.499 177.16L513.626 177.247L508.735 165.021C508.212 163.682 507.629 162.808 506.989 162.401C506.407 161.993 505.417 161.79 504.02 161.79H484.283V188.6H497.208C498.605 188.6 499.595 188.367 500.177 187.902C500.759 187.436 501.167 186.533 501.4 185.194L502.884 178.12H503.932V200.477H502.884L501.4 193.403C501.167 192.064 500.759 191.162 500.177 190.696C499.595 190.23 498.605 189.997 497.208 189.997H484.283V219.952H503.845C505.242 219.952 506.261 219.748 506.902 219.341C507.542 218.875 508.124 218.002 508.648 216.721L514.412 202.573L515.373 202.66ZM549.891 222.397C553.501 222.397 556.732 221.64 559.585 220.127C562.496 218.613 564.766 216.546 566.396 213.926C568.027 211.248 568.842 208.221 568.842 204.844C568.842 201.816 568.172 199.284 566.833 197.246C565.552 195.15 563.835 193.403 561.681 192.006C559.585 190.609 556.79 189.124 553.297 187.552C549.396 185.747 546.369 184.205 544.214 182.924C542.118 181.643 540.459 180.129 539.237 178.382C538.072 176.636 537.49 174.482 537.49 171.92C537.49 168.369 538.567 165.574 540.721 163.536C542.875 161.44 545.757 160.392 549.367 160.392C555.364 160.392 559.818 163.391 562.729 169.387C564.184 172.357 565.378 175.792 566.309 179.692L567.182 179.43L566.309 160.392H565.174L563.078 164.584C560.691 162.721 558.449 161.382 556.353 160.567C554.316 159.752 552.103 159.344 549.716 159.344C546.281 159.344 543.196 160.072 540.459 161.528C537.781 162.925 535.656 164.904 534.084 167.466C532.57 169.97 531.813 172.822 531.813 176.025C531.813 179.168 532.512 181.847 533.909 184.059C535.365 186.213 537.17 187.989 539.324 189.386C541.478 190.725 544.156 192.093 547.358 193.491C551.259 195.179 554.287 196.664 556.441 197.945C558.595 199.225 560.283 200.768 561.506 202.573C562.787 204.378 563.427 206.59 563.427 209.21C563.427 212.936 562.234 215.906 559.847 218.118C557.518 220.272 554.257 221.349 550.066 221.349C545.175 221.349 541.245 219.69 538.276 216.371C536.82 214.741 535.627 212.82 534.695 210.608C533.822 208.395 532.949 205.31 532.075 201.351L531.289 201.525L532.425 222.397H533.56L535.394 217.594C537.199 219.108 539.382 220.272 541.944 221.087C544.505 221.961 547.155 222.397 549.891 222.397ZM582.621 160.742H603.668V161.44L596.507 162.139V219.603L603.668 220.301V221H582.621V220.301L589.782 219.603V162.139L582.621 161.44V160.742ZM643.965 159.344C649.03 159.344 653.659 160.742 657.85 163.536C662.101 166.331 665.419 170.144 667.806 174.977C670.251 179.751 671.474 185.049 671.474 190.871C671.474 196.693 670.251 202.02 667.806 206.852C665.419 211.626 662.101 215.411 657.85 218.205C653.659 221 649.03 222.397 643.965 222.397C638.9 222.397 634.242 221 629.992 218.205C625.8 215.411 622.481 211.626 620.036 206.852C617.649 202.02 616.456 196.693 616.456 190.871C616.456 185.049 617.649 179.751 620.036 174.977C622.481 170.144 625.8 166.331 629.992 163.536C634.242 160.742 638.9 159.344 643.965 159.344ZM624.839 190.871C624.839 200.594 626.499 208.104 629.817 213.402C633.136 218.642 637.852 221.262 643.965 221.262C650.078 221.262 654.794 218.642 658.112 213.402C661.431 208.104 663.09 200.594 663.09 190.871C663.09 181.148 661.431 173.637 658.112 168.339C654.794 163.041 650.078 160.392 643.965 160.392C637.852 160.392 633.136 163.041 629.817 168.339C626.499 173.637 624.839 181.148 624.839 190.871ZM643.354 151.747L649.03 144.585L650.253 143.013C651.01 142.14 651.504 141.5 651.737 141.092C652.028 140.626 652.174 140.19 652.174 139.782C652.174 139.025 651.941 138.385 651.475 137.861C651.068 137.337 650.486 137.075 649.729 137.075C648.331 137.075 647.429 137.686 647.021 138.909L643.092 151.659L643.354 151.747ZM743.48 160.742V161.44L737.192 162.139C735.795 162.314 734.863 162.663 734.397 163.187C733.932 163.711 733.699 164.671 733.699 166.069V222.397H732.825L693.614 166.767H693.265V215.673C693.265 217.07 693.439 218.06 693.789 218.642C694.138 219.166 694.836 219.486 695.884 219.603L702.085 220.301V221H682.959V220.301L689.247 219.603C690.295 219.486 690.994 219.166 691.343 218.642C691.693 218.06 691.867 217.07 691.867 215.673V164.846L691.518 164.322C690.703 163.158 689.917 162.401 689.16 162.052C688.461 161.644 687.413 161.44 686.016 161.44H684.531V160.742H697.544L731.952 208.948H732.301V166.069C732.301 164.671 732.127 163.682 731.777 163.1C731.428 162.517 730.73 162.197 729.682 162.139L722.608 161.44V160.742H743.48Z" fill="black"/>
</svg>
