<svg width="581" height="207" viewBox="0 0 581 207" fill="none" xmlns="http://www.w3.org/2000/svg">
<path d="M230.304 140.424C230.852 140.355 231.331 140.492 231.741 140.834C232.22 141.176 232.459 141.621 232.459 142.168C232.528 142.715 232.391 143.229 232.049 143.707C228.423 148.154 224.592 150.378 220.556 150.378C220.419 150.378 220.282 150.378 220.145 150.378C218.708 150.378 217.272 150.07 215.835 149.454C214.398 148.907 212.893 147.983 211.32 146.683C209.815 145.452 208.481 144.255 207.318 143.092C206.155 141.929 204.684 140.218 202.905 137.961C201.195 135.703 199.826 133.89 198.8 132.522C197.774 131.154 196.269 129.033 194.285 126.159C191.411 122.191 189.154 119.113 187.512 116.924C185.938 114.734 183.783 112.032 181.047 108.817C178.31 105.601 175.711 102.933 173.248 100.812C169.074 101.838 164.97 102.317 160.933 102.249C152.587 136.387 147.764 158.074 146.464 167.31C146.669 166.831 146.909 166.284 147.182 165.668C147.387 165.189 147.73 164.847 148.208 164.642C148.756 164.437 149.269 164.437 149.748 164.642C150.295 164.916 150.637 165.292 150.774 165.771C150.979 166.318 150.979 166.831 150.774 167.31C150.09 168.884 149.474 170.149 148.927 171.107C148.448 172.065 147.969 172.92 147.49 173.672C147.011 174.425 146.532 174.972 146.053 175.314C145.643 175.656 145.198 175.827 144.719 175.827C144.446 175.827 144.172 175.759 143.898 175.622C143.283 175.417 142.838 175.041 142.564 174.493C142.291 174.015 142.154 172.92 142.154 171.21C142.154 169.568 142.427 167.173 142.975 164.026C143.522 160.879 144.343 156.603 145.438 151.199C146.601 145.794 148.106 139.09 149.953 131.085C151.8 123.081 154.126 113.366 156.931 101.941C153.442 101.531 150.671 100.641 148.619 99.2729C146.566 97.9047 145.267 96.3312 144.719 94.5524C143.898 92.158 144.514 90.174 146.566 88.6005C149.508 86.2744 154.058 86.206 160.215 88.3952C161.104 84.9061 161.959 81.3829 162.78 77.8254C168.664 53.8807 172.393 38.4193 173.966 31.4411C174.103 30.8938 174.377 30.4833 174.787 30.2097C175.266 29.8676 175.779 29.765 176.326 29.9018C176.874 30.0386 177.284 30.3465 177.558 30.8254C177.831 31.2359 177.934 31.7148 177.866 32.2621C176.292 39.3086 172.564 54.8043 166.68 78.7489C165.38 83.8115 164.457 87.5743 163.909 90.0371C165.62 90.8581 167.364 91.7817 169.143 92.8079C170.785 93.8341 172.461 95.0313 174.171 96.3996C181.697 94.2788 189.051 90.4476 196.235 84.9061C203.418 79.3647 209.746 71.9418 215.219 62.6376C219.598 55.249 222.3 48.1682 223.326 41.3953C224.352 34.6223 223.566 29.1151 220.966 24.8734C217.066 18.7162 209.644 16.0139 198.697 16.7665C193.293 17.1085 187.614 18.2715 181.663 20.2555C175.711 22.1711 170.135 24.5998 164.935 27.5416C159.804 30.4833 155.084 33.8698 150.774 37.7009C146.532 41.5321 143.283 45.4316 141.025 49.3996C136.647 57.0619 136.202 64.3479 139.691 71.2577C139.896 71.7366 139.896 72.2497 139.691 72.797C139.554 73.2759 139.246 73.6521 138.767 73.9258C138.288 74.131 137.775 74.1652 137.228 74.0284C136.749 73.8232 136.373 73.4811 136.099 73.0022C131.994 64.7926 132.473 56.2752 137.536 47.4498C140.82 41.7031 145.746 36.2643 152.313 31.1333C158.949 26.0023 166.338 21.7948 174.479 18.511C182.689 15.2272 190.693 13.3116 198.492 12.7643C211.012 11.9433 219.598 15.2956 224.25 22.821C227.26 27.6784 228.252 33.8698 227.226 41.3953C226.268 48.8523 223.395 56.6172 218.606 64.69C212.175 75.6361 203.931 84.5299 193.874 91.3712C188.675 94.9971 183.304 97.7336 177.763 99.5808C180.021 101.702 182.415 104.301 184.946 107.38C187.546 110.459 189.598 113.058 191.104 115.179C192.677 117.231 194.798 120.139 197.466 123.902C199.655 126.912 201.297 129.17 202.392 130.675C203.486 132.248 204.991 134.198 206.907 136.524C208.823 138.918 210.396 140.697 211.628 141.86C212.927 143.023 214.364 144.049 215.938 144.939C217.511 145.897 218.948 146.41 220.248 146.478C223.121 146.547 226.063 144.768 229.073 141.142C229.415 140.731 229.826 140.492 230.304 140.424ZM148.414 93.4236C148.619 94.1077 149.098 94.7577 149.85 95.3734C150.603 95.9891 151.663 96.5706 153.032 97.1179C154.468 97.5968 156.076 97.9389 157.855 98.1441C158.334 96.2285 158.812 94.313 159.291 92.3974C156.486 91.3028 154.16 90.7555 152.313 90.7555C150.877 90.7555 149.748 91.0633 148.927 91.6791C148.379 92.158 148.208 92.7395 148.414 93.4236ZM161.857 98.2467C164.251 98.2467 166.68 98.0073 169.143 97.5284C168.459 97.0495 167.775 96.6048 167.09 96.1943C165.791 95.4418 164.388 94.6892 162.883 93.9367C162.404 95.9207 162.062 97.3574 161.857 98.2467ZM256.154 92.8079C256.702 92.6711 257.18 92.7737 257.591 93.1157C258.07 93.3894 258.343 93.7999 258.412 94.3472C258.48 94.8945 258.378 95.3734 258.104 95.7839C250.373 106.593 243.327 114.255 236.964 118.771C234.433 120.549 231.936 121.439 229.473 121.439C227.557 121.439 225.881 120.926 224.445 119.9C223.624 119.284 222.905 118.463 222.29 117.437C221.606 116.41 221.024 114.974 220.545 113.127C220.066 111.279 219.998 108.851 220.34 105.841C220.614 102.83 221.366 99.4098 222.597 95.5786V95.476C224.513 89.2504 226.839 84.3246 229.576 80.6987C232.312 77.0728 234.775 75.2257 236.964 75.1572C238.538 75.0888 239.564 75.773 240.043 77.2096C240.795 79.1936 239.906 81.9986 237.375 85.6245C234.843 89.2504 231.115 93.1499 226.189 97.3232C225.368 99.9913 224.787 102.454 224.445 104.712C224.103 106.969 223.966 108.782 224.034 110.151C224.171 111.451 224.41 112.614 224.753 113.64C225.163 114.598 225.505 115.282 225.779 115.692C226.121 116.103 226.463 116.445 226.805 116.718C228.857 118.223 231.491 117.813 234.707 115.487C240.727 111.245 247.432 103.925 254.82 93.5262C255.162 93.1157 255.607 92.8763 256.154 92.8079ZM236.246 79.4673C233.851 80.9724 231.491 84.222 229.165 89.2162C233.133 85.2482 235.493 81.9986 236.246 79.4673ZM298.538 92.3974C299.085 92.5342 299.496 92.8421 299.769 93.321C300.111 93.7315 300.214 94.2104 300.077 94.7577C300.009 95.305 299.735 95.7154 299.256 95.9891C286.942 103.993 277.261 111.006 270.215 117.026C265.905 143.023 260.876 162.795 255.13 176.341C249.383 189.886 243.773 197.412 238.3 198.917C237.547 199.122 236.829 199.225 236.145 199.225C233.956 199.225 232.074 198.267 230.501 196.351C227.559 192.657 226.499 186.739 227.32 178.598C228.277 169.841 231.253 160.879 236.248 151.712C243.568 138.508 253.659 126.262 266.52 114.974C267.478 109.159 268.368 103.07 269.189 96.7074C266.999 99.9913 264.981 102.865 263.134 105.328C260.261 109.09 257.798 110.664 255.745 110.048C254.103 109.569 253.146 108.064 252.872 105.533C252.667 103.138 253.009 100.06 253.898 96.297C254.856 92.4658 256.395 88.7031 258.516 85.0088C260.637 81.3144 262.963 78.8516 265.494 77.6201C268.983 75.8414 272.37 76.4229 275.654 79.3647C276.064 79.7751 276.269 80.254 276.269 80.8013C276.338 81.2802 276.167 81.7249 275.756 82.1354C275.414 82.5459 274.969 82.7853 274.422 82.8537C273.875 82.8537 273.396 82.6827 272.986 82.3406C270.523 80.083 268.026 80.083 265.494 82.3406C262.621 84.9403 260.329 89.0794 258.619 94.7577C256.908 100.368 256.361 104.13 256.977 106.046C257.729 105.567 258.721 104.541 259.953 102.967C264.331 97.2205 267.855 91.9869 270.523 87.2664C271.07 86.377 271.857 86.1034 272.883 86.4454C273.909 86.7191 274.354 87.4032 274.217 88.4978C273.259 96.3654 272.233 103.891 271.138 111.074C277.501 105.875 286.155 99.7518 297.101 92.7053C297.58 92.3632 298.059 92.2606 298.538 92.3974ZM237.171 195.12C239.018 194.641 241.036 192.999 243.226 190.194C245.347 187.389 247.673 183.285 250.204 177.88C252.735 172.475 255.335 164.881 258.003 155.098C260.74 145.315 263.237 134.061 265.494 121.336C254.685 131.325 246.099 142.1 239.737 153.662C237.684 157.356 236.008 161.05 234.708 164.745C233.34 168.439 232.382 171.791 231.835 174.801C231.288 177.811 231.014 180.582 231.014 183.113C231.014 185.713 231.253 187.902 231.732 189.681C232.211 191.46 232.827 192.862 233.579 193.889C234.606 195.12 235.803 195.531 237.171 195.12ZM323.588 92.3974C324.136 92.2606 324.649 92.329 325.128 92.6026C325.607 92.8763 325.88 93.2868 325.949 93.8341C326.085 94.3814 326.017 94.8945 325.743 95.3734C323.828 98.3836 321.502 101.531 318.765 104.814C316.097 108.03 313.053 110.937 309.632 113.537C306.28 116.137 303.441 117.437 301.115 117.437C300.294 117.437 299.575 117.3 298.96 117.026C294.376 115.042 293.897 107.004 297.523 92.9105C297.66 92.3632 297.968 91.9527 298.446 91.6791C298.925 91.4054 299.404 91.337 299.883 91.4738C300.43 91.6106 300.841 91.9185 301.115 92.3974C301.388 92.8763 301.457 93.3552 301.32 93.8341C300.499 97.1179 299.883 100.025 299.473 102.557C299.131 105.02 298.96 106.901 298.96 108.201C299.028 109.501 299.165 110.595 299.37 111.485C299.644 112.306 299.849 112.819 299.986 113.024C300.191 113.161 300.362 113.263 300.499 113.332C302.278 114.084 305.493 112.306 310.145 107.996C314.866 103.686 318.936 98.7598 322.357 93.2184C322.699 92.8079 323.109 92.5342 323.588 92.3974ZM300.909 84.393C298.925 84.2562 298.31 83.4353 299.062 81.9302C299.746 80.6987 300.636 79.8778 301.73 79.4673C303.441 78.92 304.467 79.3647 304.809 80.8013C305.151 82.1696 304.638 83.1958 303.27 83.8799C302.585 84.222 301.799 84.393 300.909 84.393ZM441.623 50.9389C441.965 51.3494 442.102 51.8283 442.034 52.3756C441.965 52.9229 441.726 53.3676 441.315 53.7097C440.494 54.3938 439.673 54.3938 438.852 53.7097C436.047 52.7519 418.397 52.5124 385.9 52.9913C381.385 71.805 376.836 92.1922 372.252 114.153C366.779 140.492 363.461 158.587 362.298 168.439C362.435 168.439 362.571 168.473 362.708 168.541C363.256 168.747 363.632 169.089 363.837 169.568C364.042 170.047 364.077 170.56 363.94 171.107C363.529 172.133 363.187 172.886 362.914 173.365C362.708 173.912 362.366 174.425 361.887 174.904C361.408 175.451 360.895 175.725 360.348 175.725C360.143 175.725 359.903 175.691 359.63 175.622C358.74 175.349 358.193 174.63 357.988 173.467C357.851 172.304 357.954 170.765 358.296 168.849C358.569 165.908 359.185 161.769 360.143 156.432C361.853 146.102 364.419 132.727 367.839 116.308C372.423 93.9367 377.109 72.8312 381.898 52.9913C380.598 53.0597 379.298 53.0939 377.999 53.0939C367.737 71.4971 354.225 96.6048 337.464 128.417C338.969 133.138 339.242 137.858 338.285 142.579C337.122 148.599 334.488 153.525 330.383 157.356C328.741 158.929 327.168 159.921 325.662 160.332C324.157 160.742 322.892 160.571 321.865 159.819C319.334 157.835 319.984 153.148 323.815 145.76L326.586 140.629C329.459 135.087 331.649 130.914 333.154 128.109C332.401 126.262 331.443 124.449 330.28 122.67C326.997 117.745 324.499 113.537 322.789 110.048C321.079 106.559 320.326 103.378 320.531 100.504C320.668 97.8363 321.387 95.4076 322.686 93.2184C323.986 90.9607 325.765 89.1478 328.023 87.7795C329.938 86.6165 331.956 85.9665 334.077 85.8297C336.198 85.6245 338.114 85.9323 339.824 86.7533C340.371 86.9585 340.713 87.3348 340.85 87.8821C341.055 88.361 341.021 88.8741 340.748 89.4214C340.542 89.9003 340.166 90.2424 339.619 90.4476C339.14 90.5844 338.661 90.516 338.182 90.2424C335.719 89.0794 333.017 89.3872 330.075 91.166C326.518 93.2868 324.636 96.468 324.431 100.71C324.294 103.036 325.013 105.806 326.586 109.022C328.228 112.169 330.554 116 333.564 120.515C334.248 121.541 334.864 122.602 335.411 123.697C350.941 94.3472 363.598 70.8472 373.381 53.1966C364.35 53.3334 352.344 53.5728 337.361 53.9149C325.184 54.1886 318.034 54.3254 315.914 54.3254H315.811C315.332 54.3254 314.887 54.1543 314.477 53.8123C314.066 53.4018 313.861 52.9229 313.861 52.3756C313.861 51.8283 314.066 51.3836 314.477 51.0415C314.819 50.6311 315.264 50.4258 315.811 50.4258C318 50.4258 325.149 50.289 337.259 50.0153C351.625 49.6733 364.419 49.3996 375.638 49.1944C380.29 40.8479 384.669 33.1514 388.774 26.1049C389.321 25.0787 390.108 24.805 391.134 25.2839C392.229 25.6944 392.639 26.4469 392.365 27.5416C390.724 33.5619 388.911 40.7111 386.927 48.9891C397.189 48.7839 405.74 48.7155 412.582 48.7839C419.491 48.8523 424.793 48.9207 428.488 48.9891C432.25 48.9891 435.09 49.1602 437.005 49.5022C438.921 49.7759 440.084 50.0153 440.494 50.2206C440.973 50.3574 441.349 50.5968 441.623 50.9389ZM330.793 150.788C334.214 145.589 335.48 139.91 334.59 133.753C334.043 134.916 333.188 136.558 332.025 138.679C330.93 140.8 330.28 142.065 330.075 142.476L327.304 147.607C324.978 151.985 323.986 154.996 324.328 156.638C324.944 156.569 325.868 156.022 327.099 154.996C328.331 154.038 329.562 152.635 330.793 150.788ZM380.154 49.0918C380.29 49.0918 380.667 49.0918 381.282 49.0918C381.967 49.0918 382.48 49.0918 382.822 49.0918C383.506 46.15 384.19 43.3792 384.874 40.7795C383.438 43.3108 381.864 46.0816 380.154 49.0918ZM417.199 92.8079C417.747 92.6711 418.226 92.7737 418.636 93.1157C419.115 93.3894 419.389 93.7999 419.457 94.3472C419.526 94.8945 419.423 95.3734 419.149 95.7839C411.419 106.593 404.372 114.255 398.01 118.771C395.478 120.549 392.981 121.439 390.518 121.439C388.603 121.439 386.927 120.926 385.49 119.9C384.669 119.284 383.951 118.463 383.335 117.437C382.651 116.41 382.069 114.974 381.59 113.127C381.111 111.279 381.043 108.851 381.385 105.841C381.659 102.83 382.411 99.4098 383.643 95.5786V95.476C385.558 89.2504 387.884 84.3246 390.621 80.6987C393.357 77.0728 395.82 75.2257 398.01 75.1572C399.583 75.0888 400.609 75.773 401.088 77.2096C401.841 79.1936 400.951 81.9986 398.42 85.6245C395.889 89.2504 392.16 93.1499 387.234 97.3232C386.413 99.9913 385.832 102.454 385.49 104.712C385.148 106.969 385.011 108.782 385.079 110.151C385.216 111.451 385.456 112.614 385.798 113.64C386.208 114.598 386.55 115.282 386.824 115.692C387.166 116.103 387.508 116.445 387.85 116.718C389.903 118.223 392.536 117.813 395.752 115.487C401.772 111.245 408.477 103.925 415.865 93.5262C416.207 93.1157 416.652 92.8763 417.199 92.8079ZM397.291 79.4673C394.897 80.9724 392.536 84.222 390.21 89.2162C394.178 85.2482 396.539 81.9986 397.291 79.4673ZM457.326 92.7053C457.873 92.5 458.386 92.5342 458.865 92.8079C459.344 93.0131 459.686 93.3894 459.891 93.9367C460.096 94.4156 460.062 94.8945 459.788 95.3734C457.941 99.3414 455.855 103.412 453.529 107.585C451.203 111.758 448.637 115.966 445.832 120.207C443.096 124.517 440.359 128.007 437.622 130.675C434.886 133.411 432.56 134.779 430.644 134.779C430.165 134.779 429.721 134.677 429.31 134.472C426.505 133.377 425.616 129.135 426.642 121.747C427.6 114.837 430.131 105.054 434.236 92.3974C434.168 92.3974 434.099 92.4316 434.031 92.5C434.031 92.5 433.997 92.5 433.928 92.5C432.423 93.5262 431.157 94.313 430.131 94.8603C429.173 95.4076 427.839 96.0233 426.129 96.7074C424.487 97.3916 422.914 97.6994 421.409 97.631C419.903 97.5626 418.501 97.0837 417.201 96.1943C414.601 94.3472 413.267 91.7817 413.199 88.4978C413.131 85.214 414.362 81.6223 416.893 77.7227C418.467 75.2599 420.348 73.1048 422.537 71.2577C424.795 69.4105 426.711 69 428.284 70.0262C429.242 70.5735 429.789 71.4629 429.926 72.6944C430.131 73.9258 429.55 76.3203 428.181 79.8778C426.813 83.3668 424.521 87.9505 421.306 93.6288C423.427 93.9025 426.916 92.4316 431.773 89.2162C432.663 88.6005 433.312 88.19 433.723 87.9847C434.202 87.7111 434.715 87.4374 435.262 87.1638C435.878 86.8901 436.391 86.7875 436.802 86.8559C437.212 86.9243 437.622 87.0954 438.033 87.369C439.059 88.19 439.23 89.6267 438.546 91.6791C431.705 112.887 429.002 125.749 430.439 130.264C430.576 130.538 430.679 130.743 430.747 130.88C431.294 130.948 432.115 130.504 433.21 129.546C434.373 128.588 435.775 127.083 437.417 125.031C439.128 122.978 440.941 120.515 442.856 117.642C444.84 114.769 446.995 111.245 449.321 107.072C451.716 102.899 454.007 98.452 456.197 93.7315C456.47 93.1842 456.847 92.8421 457.326 92.7053ZM417.509 85.7271C416.893 88.1216 417.03 90.0371 417.919 91.4738C422.914 82.7853 425.582 76.9018 425.924 73.8232C425.103 74.3021 424.145 75.0888 423.05 76.1834C422.024 77.2781 420.93 78.7147 419.767 80.4935C418.672 82.2038 417.919 83.9484 417.509 85.7271Z" fill="#EEC664"/>
<path d="M118.31 182.301V183H109.315C107.918 183 106.87 182.796 106.171 182.389C105.473 181.981 104.745 181.195 103.988 180.031L90.6263 158.46C89.8112 157.121 89.1125 156.306 88.5303 156.015C88.0063 155.665 87.0457 155.491 85.6484 155.491H79.1859V181.603L86.7837 182.301V183H65.3003V182.301L72.4614 181.603V124.139L65.3003 123.44V122.742H87.395C94.2651 122.742 99.5049 124.139 103.115 126.933C106.724 129.67 108.529 133.658 108.529 138.898C108.529 142.973 107.423 146.321 105.211 148.941C102.998 151.561 99.796 153.366 95.6041 154.355H95.6915L111.673 179.332C112.43 180.497 113.158 181.282 113.856 181.69C114.613 182.098 115.69 182.301 117.088 182.301H118.31ZM79.1859 123.79V154.181H87.133C91.7907 154.181 95.2257 152.958 97.4381 150.513C99.7087 148.009 100.844 144.196 100.844 139.073C100.844 133.891 99.7087 130.048 97.4381 127.545C95.1675 125.041 91.7325 123.79 87.133 123.79H79.1859ZM169.159 164.66L166.976 183H124.184V182.301L131.345 181.603V124.139L124.184 123.44V122.742H167.063L168.286 139.16L167.413 139.247L162.522 127.021C161.998 125.682 161.416 124.808 160.776 124.401C160.193 123.993 159.204 123.79 157.806 123.79H138.07V150.6H150.995C152.392 150.6 153.382 150.367 153.964 149.902C154.546 149.436 154.954 148.533 155.186 147.194L156.671 140.12H157.719V162.477H156.671L155.186 155.403C154.954 154.064 154.546 153.162 153.964 152.696C153.382 152.23 152.392 151.997 150.995 151.997H138.07V181.952H157.632C159.029 181.952 160.048 181.748 160.688 181.341C161.329 180.875 161.911 180.002 162.435 178.721L168.199 164.573L169.159 164.66ZM225.685 176.276C224.23 178.371 222.25 180.089 219.747 181.428C217.243 182.709 214.536 183.349 211.625 183.349C205.512 183.349 200.796 180.7 197.477 175.402C194.159 170.104 192.499 162.594 192.499 152.871C192.499 143.148 194.159 135.637 197.477 130.339C200.796 125.041 205.541 122.392 211.712 122.392C215.031 122.392 218.029 123.178 220.707 124.75C223.444 126.264 225.685 128.447 227.432 131.3C229.178 134.211 230.459 137.908 231.274 142.391L232.497 142.042L231.624 122.392H230.488L228.392 126.584C225.074 124.779 222.046 123.469 219.31 122.654C216.632 121.781 214.012 121.344 211.45 121.344C206.443 121.344 201.844 122.742 197.652 125.536C193.46 128.331 190.141 132.144 187.696 136.977C185.309 141.809 184.115 147.107 184.115 152.871C184.115 158.693 185.309 164.02 187.696 168.852C190.141 173.626 193.46 177.411 197.652 180.205C201.902 183 206.56 184.397 211.625 184.397C214.652 184.397 218.175 183.815 222.192 182.651C226.209 181.486 229.615 179.623 232.41 177.061V154.268L239.571 153.569V152.871H219.397V153.569L225.685 154.268V176.276ZM249.712 122.742H270.759V123.44L263.598 124.139V181.603L270.759 182.301V183H249.712V182.301L256.873 181.603V124.139L249.712 123.44V122.742ZM303.62 184.397C307.23 184.397 310.461 183.64 313.314 182.127C316.225 180.613 318.496 178.546 320.126 175.926C321.756 173.248 322.571 170.221 322.571 166.844C322.571 163.816 321.902 161.284 320.563 159.246C319.282 157.15 317.564 155.403 315.41 154.006C313.314 152.609 310.52 151.124 307.026 149.552C303.126 147.747 300.098 146.205 297.944 144.924C295.848 143.643 294.189 142.129 292.966 140.382C291.802 138.636 291.219 136.482 291.219 133.92C291.219 130.369 292.297 127.574 294.451 125.536C296.605 123.44 299.487 122.392 303.096 122.392C309.093 122.392 313.547 125.391 316.458 131.387C317.914 134.357 319.107 137.792 320.039 141.692L320.912 141.43L320.039 122.392H318.903L316.807 126.584C314.42 124.721 312.179 123.382 310.083 122.567C308.045 121.752 305.833 121.344 303.446 121.344C300.011 121.344 296.925 122.072 294.189 123.528C291.511 124.925 289.385 126.904 287.814 129.466C286.3 131.97 285.543 134.822 285.543 138.025C285.543 141.168 286.242 143.847 287.639 146.059C289.094 148.213 290.899 149.989 293.053 151.386C295.208 152.725 297.886 154.093 301.088 155.491C304.989 157.179 308.016 158.664 310.17 159.945C312.324 161.225 314.013 162.768 315.235 164.573C316.516 166.378 317.157 168.59 317.157 171.21C317.157 174.936 315.963 177.906 313.576 180.118C311.247 182.272 307.987 183.349 303.795 183.349C298.905 183.349 294.975 181.69 292.005 178.371C290.55 176.741 289.356 174.82 288.425 172.608C287.552 170.395 286.678 167.31 285.805 163.351L285.019 163.525L286.154 184.397H287.29L289.124 179.594C290.928 181.108 293.112 182.272 295.673 183.087C298.235 183.961 300.884 184.397 303.62 184.397ZM358.096 181.603L348.664 182.301V183H374.252V182.301L364.82 181.603V123.702H377.571C378.968 123.702 379.958 123.935 380.54 124.401C381.18 124.808 381.763 125.682 382.287 127.021L387.701 140.47L388.4 140.295L386.478 121.344H385.954C384.674 121.927 383.567 122.305 382.636 122.48C381.763 122.654 380.627 122.742 379.23 122.742H345.608C344.21 122.742 343.046 122.654 342.114 122.48C341.241 122.305 340.164 121.927 338.883 121.344H338.359L334.953 140.295L335.652 140.47L341.678 127.021C342.26 125.682 342.871 124.808 343.512 124.401C344.152 123.935 345.171 123.702 346.568 123.702H358.096V181.603ZM452.679 182.301V183H443.684C442.286 183 441.238 182.796 440.54 182.389C439.841 181.981 439.113 181.195 438.357 180.031L424.995 158.46C424.18 157.121 423.481 156.306 422.899 156.015C422.375 155.665 421.414 155.491 420.017 155.491H413.555V181.603L421.152 182.301V183H399.669V182.301L406.83 181.603V124.139L399.669 123.44V122.742H421.764C428.634 122.742 433.874 124.139 437.483 126.933C441.093 129.67 442.898 133.658 442.898 138.898C442.898 142.973 441.792 146.321 439.579 148.941C437.367 151.561 434.165 153.366 429.973 154.355H430.06L446.042 179.332C446.799 180.497 447.526 181.282 448.225 181.69C448.982 182.098 450.059 182.301 451.456 182.301H452.679ZM413.555 123.79V154.181H421.502C426.159 154.181 429.594 152.958 431.807 150.513C434.077 148.009 435.213 144.196 435.213 139.073C435.213 133.891 434.077 130.048 431.807 127.545C429.536 125.041 426.101 123.79 421.502 123.79H413.555ZM487.11 121.344C492.175 121.344 496.803 122.742 500.995 125.536C505.245 128.331 508.564 132.144 510.951 136.977C513.396 141.751 514.619 147.049 514.619 152.871C514.619 158.693 513.396 164.02 510.951 168.852C508.564 173.626 505.245 177.411 500.995 180.205C496.803 183 492.175 184.397 487.11 184.397C482.045 184.397 477.387 183 473.137 180.205C468.945 177.411 465.626 173.626 463.181 168.852C460.794 164.02 459.6 158.693 459.6 152.871C459.6 147.049 460.794 141.751 463.181 136.977C465.626 132.144 468.945 128.331 473.137 125.536C477.387 122.742 482.045 121.344 487.11 121.344ZM467.984 152.871C467.984 162.594 469.644 170.104 472.962 175.402C476.281 180.642 480.997 183.262 487.11 183.262C493.223 183.262 497.939 180.642 501.257 175.402C504.576 170.104 506.235 162.594 506.235 152.871C506.235 143.148 504.576 135.637 501.257 130.339C497.939 125.041 493.223 122.392 487.11 122.392C480.997 122.392 476.281 125.041 472.962 130.339C469.644 135.637 467.984 143.148 467.984 152.871Z" fill="black"/>
</svg>
